SplineFontDB: 3.2
FontName: Untitled1
FullName: Untitled1
FamilyName: Untitled1
Weight: Regular
Copyright: Copyright (c) 2025, Volodya
UComments: "2025-6-15: Created with FontForge (http://fontforge.org)"
Version: 001.000
ItalicAngle: 0
UnderlinePosition: -100
UnderlineWidth: 50
Ascent: 800
Descent: 200
InvalidEm: 0
LayerCount: 2
Layer: 0 0 "Back" 1
Layer: 1 0 "Fore" 0
XUID: [1021 108 1850056556 16656748]
StyleMap: 0x0000
FSType: 0
OS2Version: 0
OS2_WeightWidthSlopeOnly: 0
OS2_UseTypoMetrics: 1
CreationTime: 1750014015
ModificationTime: 1750751737
OS2TypoAscent: 0
OS2TypoAOffset: 1
OS2TypoDescent: 0
OS2TypoDOffset: 1
OS2TypoLinegap: 90
OS2WinAscent: 0
OS2WinAOffset: 1
OS2WinDescent: 0
OS2WinDOffset: 1
HheadAscent: 0
HheadAOffset: 1
HheadDescent: 0
HheadDOffset: 1
DEI: 91125
Encoding: UnicodeFull
UnicodeInterp: none
NameList: AGL For New Fonts
DisplaySize: -48
AntiAlias: 1
FitToEm: 0
WinInfo: 12920 38 14
BeginChars: 1114113 121

StartChar: uni2460
Encoding: 9312 9312 0
Width: 1000
Flags: W
HStem: -86 32<381.703 618.195> 551 53<374 455.981> 814 32<382.541 618.297>
VStem: 34 32<261.703 496.46> 480 82<127 551> 934 32<262.659 498.297>
LayerCount: 2
Fore
SplineSet
500 -86 m 256
 436 -86 375.833333333 -73.8333333333 319.5 -49.5 c 0
 263.166666667 -25.1666666667 213.666666667 8.33333333333 171 51 c 0
 128.333333333 93.6666666667 94.8333333333 143.166666667 70.5 199.5 c 0
 46.1666666667 255.833333333 34 316 34 380 c 256
 34 444 46.1666666667 504.166666667 70.5 560.5 c 0
 94.8333333333 616.833333333 128.333333333 666.333333333 171 709 c 0
 213.666666667 751.666666667 263.166666667 785.166666667 319.5 809.5 c 0
 375.833333333 833.833333333 436 846 500 846 c 256
 564 846 624.166666667 833.833333333 680.5 809.5 c 0
 736.833333333 785.166666667 786.333333333 751.666666667 829 709 c 0
 871.666666667 666.333333333 905.166666667 616.833333333 929.5 560.5 c 0
 953.833333333 504.166666667 966 444 966 380 c 0
 966 315.333333333 953.833333333 254.833333333 929.5 198.5 c 0
 905.166666667 142.166666667 871.5 92.6666666667 828.5 50 c 0
 785.5 7.33333333333 736 -26 680 -50 c 0
 624 -74 564 -86 500 -86 c 256
500 -54 m 256
 560 -54 616.166666667 -42.8333333333 668.5 -20.5 c 0
 720.833333333 1.83333333333 767 33 807 73 c 0
 847 113 878.166666667 159.166666667 900.5 211.5 c 0
 922.833333333 263.833333333 934 320 934 380 c 256
 934 440 922.833333333 496.166666667 900.5 548.5 c 0
 878.166666667 600.833333333 847 647 807 687 c 0
 767 727 720.833333333 758.166666667 668.5 780.5 c 0
 616.166666667 802.833333333 560 814 500 814 c 0
 439.333333333 814 382.833333333 802.666666667 330.5 780 c 0
 278.166666667 757.333333333 232.166666667 726 192.5 686 c 0
 152.833333333 646 121.833333333 599.833333333 99.5 547.5 c 0
 77.1666666667 495.166666667 66 439.333333333 66 380 c 0
 66 320 77.1666666667 263.833333333 99.5 211.5 c 0
 121.833333333 159.166666667 153 113 193 73 c 0
 233 33 279.166666667 1.83333333333 331.5 -20.5 c 0
 383.833333333 -42.8333333333 440 -54 500 -54 c 256
480 127 m 1
 480 551 l 1
 374 551 l 1
 374 604 l 1
 400.666666667 608.666666667 424 614.5 444 621.5 c 0
 464 628.5 482.333333333 636.333333333 499 645 c 1
 562 645 l 1
 562 127 l 1
 480 127 l 1
EndSplineSet
Validated: 1
EndChar

StartChar: uni2461
Encoding: 9313 9313 1
Width: 1000
Flags: W
HStem: -86 32<381.703 618.195> 127 70<446.72 695> 591 66<415.104 561.306> 814 32<382.541 618.297>
VStem: 34 32<261.703 496.46> 591 80<423.143 561.911> 934 32<262.659 498.297>
LayerCount: 2
Fore
SplineSet
500 -86 m 256
 436 -86 375.833333333 -73.8333333333 319.5 -49.5 c 0
 263.166666667 -25.1666666667 213.666666667 8.33333333333 171 51 c 0
 128.333333333 93.6666666667 94.8333333333 143.166666667 70.5 199.5 c 0
 46.1666666667 255.833333333 34 316 34 380 c 256
 34 444 46.1666666667 504.166666667 70.5 560.5 c 0
 94.8333333333 616.833333333 128.333333333 666.333333333 171 709 c 0
 213.666666667 751.666666667 263.166666667 785.166666667 319.5 809.5 c 0
 375.833333333 833.833333333 436 846 500 846 c 256
 564 846 624.166666667 833.833333333 680.5 809.5 c 0
 736.833333333 785.166666667 786.333333333 751.666666667 829 709 c 0
 871.666666667 666.333333333 905.166666667 616.833333333 929.5 560.5 c 0
 953.833333333 504.166666667 966 444 966 380 c 0
 966 315.333333333 953.833333333 254.833333333 929.5 198.5 c 0
 905.166666667 142.166666667 871.5 92.6666666667 828.5 50 c 0
 785.5 7.33333333333 736 -26 680 -50 c 0
 624 -74 564 -86 500 -86 c 256
500 -54 m 256
 560 -54 616.166666667 -42.8333333333 668.5 -20.5 c 0
 720.833333333 1.83333333333 767 33 807 73 c 0
 847 113 878.166666667 159.166666667 900.5 211.5 c 0
 922.833333333 263.833333333 934 320 934 380 c 256
 934 440 922.833333333 496.166666667 900.5 548.5 c 0
 878.166666667 600.833333333 847 647 807 687 c 0
 767 727 720.833333333 758.166666667 668.5 780.5 c 0
 616.166666667 802.833333333 560 814 500 814 c 0
 439.333333333 814 382.833333333 802.666666667 330.5 780 c 0
 278.166666667 757.333333333 232.166666667 726 192.5 686 c 0
 152.833333333 646 121.833333333 599.833333333 99.5 547.5 c 0
 77.1666666667 495.166666667 66 439.333333333 66 380 c 0
 66 320 77.1666666667 263.833333333 99.5 211.5 c 0
 121.833333333 159.166666667 153 113 193 73 c 0
 233 33 279.166666667 1.83333333333 331.5 -20.5 c 0
 383.833333333 -42.8333333333 440 -54 500 -54 c 256
327 127 m 1
 327 175 l 1
 411 248.333333333 476 310 522 360 c 0
 568 410 591 455.333333333 591 496 c 0
 591 525.333333333 582.666666667 548.5 566 565.5 c 0
 549.333333333 582.5 523.666666667 591 489 591 c 0
 464.333333333 591 441.833333333 585 421.5 573 c 0
 401.166666667 561 383 547.333333333 367 532 c 1
 320 576 l 1
 345.333333333 602.666666667 372.5 622.833333333 401.5 636.5 c 0
 430.5 650.166666667 462.333333333 657 497 657 c 0
 550.333333333 657 592.666666667 642.833333333 624 614.5 c 0
 655.333333333 586.166666667 671 548.666666667 671 502 c 0
 671 470 661 437.666666667 641 405 c 0
 621 372.333333333 594.166666667 338.5 560.5 303.5 c 0
 526.833333333 268.5 488.666666667 231.666666667 446 193 c 1
 461.333333333 194.333333333 477.833333333 195.333333333 495.5 196 c 0
 513.166666667 196.666666667 530.666666667 197 548 197 c 2
 695 197 l 1
 695 127 l 1
 327 127 l 1
EndSplineSet
Validated: 1
EndChar

StartChar: uni2462
Encoding: 9314 9314 2
Width: 1000
Flags: W
HStem: -86 32<381.703 618.195> 115 66<398.963 570.074> 365 61<424 543.258> 592 65<408.788 559.42> 814 32<382.541 618.297>
VStem: 34 32<261.703 496.46> 585 83<463.093 567.555> 604 84<213.558 324.787> 934 32<262.659 498.297>
LayerCount: 2
Fore
SplineSet
500 -86 m 256xfc80
 436 -86 375.833333333 -73.8333333333 319.5 -49.5 c 0
 263.166666667 -25.1666666667 213.666666667 8.33333333333 171 51 c 0
 128.333333333 93.6666666667 94.8333333333 143.166666667 70.5 199.5 c 0
 46.1666666667 255.833333333 34 316 34 380 c 256
 34 444 46.1666666667 504.166666667 70.5 560.5 c 0
 94.8333333333 616.833333333 128.333333333 666.333333333 171 709 c 0
 213.666666667 751.666666667 263.166666667 785.166666667 319.5 809.5 c 0
 375.833333333 833.833333333 436 846 500 846 c 256
 564 846 624.166666667 833.833333333 680.5 809.5 c 0
 736.833333333 785.166666667 786.333333333 751.666666667 829 709 c 0
 871.666666667 666.333333333 905.166666667 616.833333333 929.5 560.5 c 0
 953.833333333 504.166666667 966 444 966 380 c 0
 966 315.333333333 953.833333333 254.833333333 929.5 198.5 c 0
 905.166666667 142.166666667 871.5 92.6666666667 828.5 50 c 0
 785.5 7.33333333333 736 -26 680 -50 c 0
 624 -74 564 -86 500 -86 c 256xfc80
500 -54 m 256
 560 -54 616.166666667 -42.8333333333 668.5 -20.5 c 0
 720.833333333 1.83333333333 767 33 807 73 c 0
 847 113 878.166666667 159.166666667 900.5 211.5 c 0
 922.833333333 263.833333333 934 320 934 380 c 256
 934 440 922.833333333 496.166666667 900.5 548.5 c 0
 878.166666667 600.833333333 847 647 807 687 c 0
 767 727 720.833333333 758.166666667 668.5 780.5 c 0
 616.166666667 802.833333333 560 814 500 814 c 0
 439.333333333 814 382.833333333 802.666666667 330.5 780 c 0
 278.166666667 757.333333333 232.166666667 726 192.5 686 c 0
 152.833333333 646 121.833333333 599.833333333 99.5 547.5 c 0
 77.1666666667 495.166666667 66 439.333333333 66 380 c 0
 66 320 77.1666666667 263.833333333 99.5 211.5 c 0
 121.833333333 159.166666667 153 113 193 73 c 0
 233 33 279.166666667 1.83333333333 331.5 -20.5 c 0
 383.833333333 -42.8333333333 440 -54 500 -54 c 256
495 115 m 0
 450.333333333 115 412.166666667 122.166666667 380.5 136.5 c 0
 348.833333333 150.833333333 323.333333333 168.333333333 304 189 c 1
 344 242 l 1
 361.333333333 225.333333333 381.833333333 211 405.5 199 c 0
 429.166666667 187 458.333333333 181 493 181 c 0
 525.666666667 181 552.333333333 189 573 205 c 0
 593.666666667 221 604 242.333333333 604 269 c 0xfd80
 604 298.333333333 591 321.666666667 565 339 c 0
 539 356.333333333 492 365 424 365 c 1
 424 426 l 1
 483.333333333 426 525 434.333333333 549 451 c 0
 573 467.666666667 585 489 585 515 c 0
 585 539 576.5 557.833333333 559.5 571.5 c 0
 542.5 585.166666667 519.333333333 592 490 592 c 0
 467.333333333 592 445.666666667 587.5 425 578.5 c 0
 404.333333333 569.5 385.333333333 556.666666667 368 540 c 1
 325 591 l 1
 347 611 371.833333333 627 399.5 639 c 0
 427.166666667 651 458 657 492 657 c 0
 543.333333333 657 585.5 645.166666667 618.5 621.5 c 0
 651.5 597.833333333 668 564 668 520 c 0xfe80
 668 490 658.5 465.333333333 639.5 446 c 0
 620.5 426.666666667 596 411.333333333 566 400 c 1
 566 397 l 1
 600 388.333333333 628.833333333 373 652.5 351 c 0
 676.166666667 329 688 300.333333333 688 265 c 0xfd80
 688 234.333333333 679.333333333 207.666666667 662 185 c 0
 644.666666667 162.333333333 621.5 145 592.5 133 c 0
 563.5 121 531 115 495 115 c 0
EndSplineSet
Validated: 1
EndChar

StartChar: uni2463
Encoding: 9315 9315 3
Width: 1000
Flags: W
HStem: -86 32<381.703 618.195> 265 63<357 528 606 683> 814 32<382.541 618.297>
VStem: 34 32<261.703 496.46> 528 78<127 265 328 564> 934 32<262.659 498.297>
LayerCount: 2
Fore
SplineSet
500 -86 m 256
 436 -86 375.833333333 -73.8333333333 319.5 -49.5 c 0
 263.166666667 -25.1666666667 213.666666667 8.33333333333 171 51 c 0
 128.333333333 93.6666666667 94.8333333333 143.166666667 70.5 199.5 c 0
 46.1666666667 255.833333333 34 316 34 380 c 256
 34 444 46.1666666667 504.166666667 70.5 560.5 c 0
 94.8333333333 616.833333333 128.333333333 666.333333333 171 709 c 0
 213.666666667 751.666666667 263.166666667 785.166666667 319.5 809.5 c 0
 375.833333333 833.833333333 436 846 500 846 c 256
 564 846 624.166666667 833.833333333 680.5 809.5 c 0
 736.833333333 785.166666667 786.333333333 751.666666667 829 709 c 0
 871.666666667 666.333333333 905.166666667 616.833333333 929.5 560.5 c 0
 953.833333333 504.166666667 966 444 966 380 c 0
 966 315.333333333 953.833333333 254.833333333 929.5 198.5 c 0
 905.166666667 142.166666667 871.5 92.6666666667 828.5 50 c 0
 785.5 7.33333333333 736 -26 680 -50 c 0
 624 -74 564 -86 500 -86 c 256
500 -54 m 256
 560 -54 616.166666667 -42.8333333333 668.5 -20.5 c 0
 720.833333333 1.83333333333 767 33 807 73 c 0
 847 113 878.166666667 159.166666667 900.5 211.5 c 0
 922.833333333 263.833333333 934 320 934 380 c 256
 934 440 922.833333333 496.166666667 900.5 548.5 c 0
 878.166666667 600.833333333 847 647 807 687 c 0
 767 727 720.833333333 758.166666667 668.5 780.5 c 0
 616.166666667 802.833333333 560 814 500 814 c 0
 439.333333333 814 382.833333333 802.666666667 330.5 780 c 0
 278.166666667 757.333333333 232.166666667 726 192.5 686 c 0
 152.833333333 646 121.833333333 599.833333333 99.5 547.5 c 0
 77.1666666667 495.166666667 66 439.333333333 66 380 c 0
 66 320 77.1666666667 263.833333333 99.5 211.5 c 0
 121.833333333 159.166666667 153 113 193 73 c 0
 233 33 279.166666667 1.83333333333 331.5 -20.5 c 0
 383.833333333 -42.8333333333 440 -54 500 -54 c 256
528 127 m 1
 528 265 l 1
 272 265 l 1
 272 320 l 1
 512 645 l 1
 606 645 l 1
 606 328 l 1
 683 328 l 1
 683 265 l 1
 606 265 l 1
 606 127 l 1
 528 127 l 1
357 328 m 1
 528 328 l 1
 528 460 l 2
 528 474.666666667 528.333333333 492 529 512 c 0
 529.666666667 532 530.333333333 549.333333333 531 564 c 1
 527 564 l 1
 519.666666667 550 512.666666667 538.166666667 506 528.5 c 0
 499.333333333 518.833333333 491.333333333 507 482 493 c 2
 357 328 l 1
EndSplineSet
Validated: 1
EndChar

StartChar: uni2464
Encoding: 9316 9316 4
Width: 1000
Flags: W
HStem: -86 32<381.703 618.195> 115 66<402.859 566.567> 398 58<431.51 569.72> 575 70<444 666> 814 32<382.541 618.297>
VStem: 34 32<261.703 496.46> 611 83<223.788 358.164> 934 32<262.659 498.297>
LayerCount: 2
Fore
SplineSet
500 -86 m 256
 436 -86 375.833333333 -73.8333333333 319.5 -49.5 c 0
 263.166666667 -25.1666666667 213.666666667 8.33333333333 171 51 c 0
 128.333333333 93.6666666667 94.8333333333 143.166666667 70.5 199.5 c 0
 46.1666666667 255.833333333 34 316 34 380 c 256
 34 444 46.1666666667 504.166666667 70.5 560.5 c 0
 94.8333333333 616.833333333 128.333333333 666.333333333 171 709 c 0
 213.666666667 751.666666667 263.166666667 785.166666667 319.5 809.5 c 0
 375.833333333 833.833333333 436 846 500 846 c 256
 564 846 624.166666667 833.833333333 680.5 809.5 c 0
 736.833333333 785.166666667 786.333333333 751.666666667 829 709 c 0
 871.666666667 666.333333333 905.166666667 616.833333333 929.5 560.5 c 0
 953.833333333 504.166666667 966 444 966 380 c 0
 966 315.333333333 953.833333333 254.833333333 929.5 198.5 c 0
 905.166666667 142.166666667 871.5 92.6666666667 828.5 50 c 0
 785.5 7.33333333333 736 -26 680 -50 c 0
 624 -74 564 -86 500 -86 c 256
500 -54 m 256
 560 -54 616.166666667 -42.8333333333 668.5 -20.5 c 0
 720.833333333 1.83333333333 767 33 807 73 c 0
 847 113 878.166666667 159.166666667 900.5 211.5 c 0
 922.833333333 263.833333333 934 320 934 380 c 256
 934 440 922.833333333 496.166666667 900.5 548.5 c 0
 878.166666667 600.833333333 847 647 807 687 c 0
 767 727 720.833333333 758.166666667 668.5 780.5 c 0
 616.166666667 802.833333333 560 814 500 814 c 0
 439.333333333 814 382.833333333 802.666666667 330.5 780 c 0
 278.166666667 757.333333333 232.166666667 726 192.5 686 c 0
 152.833333333 646 121.833333333 599.833333333 99.5 547.5 c 0
 77.1666666667 495.166666667 66 439.333333333 66 380 c 0
 66 320 77.1666666667 263.833333333 99.5 211.5 c 0
 121.833333333 159.166666667 153 113 193 73 c 0
 233 33 279.166666667 1.83333333333 331.5 -20.5 c 0
 383.833333333 -42.8333333333 440 -54 500 -54 c 256
498 115 m 0
 452.666666667 115 415.166666667 122.166666667 385.5 136.5 c 0
 355.833333333 150.833333333 331 167.333333333 311 186 c 1
 350 240 l 1
 366.666666667 225.333333333 386.333333333 211.833333333 409 199.5 c 0
 431.666666667 187.166666667 460 181 494 181 c 0
 527.333333333 181 555.166666667 191 577.5 211 c 0
 599.833333333 231 611 257.666666667 611 291 c 0
 611 323.666666667 600.333333333 349.666666667 579 369 c 0
 557.666666667 388.333333333 530 398 496 398 c 0
 476 398 458.833333333 395 444.5 389 c 0
 430.166666667 383 414.666666667 374.666666667 398 364 c 1
 356 390 l 1
 374 645 l 1
 666 645 l 1
 666 575 l 1
 444 575 l 1
 431 435 l 1
 443.666666667 440.333333333 457 445.166666667 471 449.5 c 0
 485 453.833333333 500 456 516 456 c 0
 548.666666667 456 578.5 450.166666667 605.5 438.5 c 0
 632.5 426.833333333 654 409 670 385 c 0
 686 361 694 330.333333333 694 293 c 256
 694 255.666666667 684.666666667 223.666666667 666 197 c 0
 647.333333333 170.333333333 623.166666667 150 593.5 136 c 0
 563.833333333 122 532 115 498 115 c 0
EndSplineSet
Validated: 1
EndChar

StartChar: uni2465
Encoding: 9317 9317 5
Width: 1000
Flags: W
HStem: -86 32<381.703 618.195> 115 64<430.978 563.207> 385 61<430.031 564.949> 589 68<447.09 597.602> 814 32<382.541 618.297>
VStem: 34 32<261.703 496.46> 296 78<381 502.565> 599 78<214.855 351.311> 934 32<262.659 498.297>
LayerCount: 2
Fore
SplineSet
500 -86 m 256
 436 -86 375.833333333 -73.8333333333 319.5 -49.5 c 0
 263.166666667 -25.1666666667 213.666666667 8.33333333333 171 51 c 0
 128.333333333 93.6666666667 94.8333333333 143.166666667 70.5 199.5 c 0
 46.1666666667 255.833333333 34 316 34 380 c 256
 34 444 46.1666666667 504.166666667 70.5 560.5 c 0
 94.8333333333 616.833333333 128.333333333 666.333333333 171 709 c 0
 213.666666667 751.666666667 263.166666667 785.166666667 319.5 809.5 c 0
 375.833333333 833.833333333 436 846 500 846 c 256
 564 846 624.166666667 833.833333333 680.5 809.5 c 0
 736.833333333 785.166666667 786.333333333 751.666666667 829 709 c 0
 871.666666667 666.333333333 905.166666667 616.833333333 929.5 560.5 c 0
 953.833333333 504.166666667 966 444 966 380 c 0
 966 315.333333333 953.833333333 254.833333333 929.5 198.5 c 0
 905.166666667 142.166666667 871.5 92.6666666667 828.5 50 c 0
 785.5 7.33333333333 736 -26 680 -50 c 0
 624 -74 564 -86 500 -86 c 256
500 -54 m 256
 560 -54 616.166666667 -42.8333333333 668.5 -20.5 c 0
 720.833333333 1.83333333333 767 33 807 73 c 0
 847 113 878.166666667 159.166666667 900.5 211.5 c 0
 922.833333333 263.833333333 934 320 934 380 c 256
 934 440 922.833333333 496.166666667 900.5 548.5 c 0
 878.166666667 600.833333333 847 647 807 687 c 0
 767 727 720.833333333 758.166666667 668.5 780.5 c 0
 616.166666667 802.833333333 560 814 500 814 c 0
 439.333333333 814 382.833333333 802.666666667 330.5 780 c 0
 278.166666667 757.333333333 232.166666667 726 192.5 686 c 0
 152.833333333 646 121.833333333 599.833333333 99.5 547.5 c 0
 77.1666666667 495.166666667 66 439.333333333 66 380 c 0
 66 320 77.1666666667 263.833333333 99.5 211.5 c 0
 121.833333333 159.166666667 153 113 193 73 c 0
 233 33 279.166666667 1.83333333333 331.5 -20.5 c 0
 383.833333333 -42.8333333333 440 -54 500 -54 c 256
501 115 m 0
 462.333333333 115 427.5 124.166666667 396.5 142.5 c 0
 365.5 160.833333333 341 188.666666667 323 226 c 0
 305 263.333333333 296 310.666666667 296 368 c 0
 296 436.666666667 306.5 492.166666667 327.5 534.5 c 0
 348.5 576.833333333 376.166666667 607.833333333 410.5 627.5 c 0
 444.833333333 647.166666667 481.666666667 657 521 657 c 0
 553.666666667 657 581.666666667 651.5 605 640.5 c 0
 628.333333333 629.5 648.333333333 616 665 600 c 1
 620 549 l 1
 608.666666667 561 594.333333333 570.666666667 577 578 c 0
 559.666666667 585.333333333 541.666666667 589 523 589 c 0
 497 589 472.833333333 582.5 450.5 569.5 c 0
 428.166666667 556.5 410.166666667 534.833333333 396.5 504.5 c 0
 382.833333333 474.166666667 375.333333333 433 374 381 c 1
 392 401 413.5 416.833333333 438.5 428.5 c 0
 463.5 440.166666667 488.333333333 446 513 446 c 0
 562.333333333 446 602 432.5 632 405.5 c 0
 662 378.5 677 338 677 284 c 0
 677 250 669 220.333333333 653 195 c 0
 637 169.666666667 615.666666667 150 589 136 c 0
 562.333333333 122 533 115 501 115 c 0
502 179 m 0
 528.666666667 179 551.5 188.5 570.5 207.5 c 0
 589.5 226.5 599 251.333333333 599 282 c 0
 599 313.333333333 590.166666667 338.333333333 572.5 357 c 0
 554.833333333 375.666666667 528.666666667 385 494 385 c 0
 476.666666667 385 457.5 380.166666667 436.5 370.5 c 0
 415.5 360.833333333 395.333333333 344.333333333 376 321 c 1
 381.333333333 272.333333333 394.833333333 236.5 416.5 213.5 c 0
 438.166666667 190.5 466.666666667 179 502 179 c 0
EndSplineSet
Validated: 1
EndChar

StartChar: uni2466
Encoding: 9318 9318 6
Width: 1000
Flags: W
HStem: -86 32<381.703 618.195> 575 70<319 589> 814 32<382.541 618.297>
VStem: 34 32<261.703 496.46> 934 32<262.659 498.297>
LayerCount: 2
Fore
SplineSet
500 -86 m 256
 436 -86 375.833333333 -73.8333333333 319.5 -49.5 c 0
 263.166666667 -25.1666666667 213.666666667 8.33333333333 171 51 c 0
 128.333333333 93.6666666667 94.8333333333 143.166666667 70.5 199.5 c 0
 46.1666666667 255.833333333 34 316 34 380 c 256
 34 444 46.1666666667 504.166666667 70.5 560.5 c 0
 94.8333333333 616.833333333 128.333333333 666.333333333 171 709 c 0
 213.666666667 751.666666667 263.166666667 785.166666667 319.5 809.5 c 0
 375.833333333 833.833333333 436 846 500 846 c 256
 564 846 624.166666667 833.833333333 680.5 809.5 c 0
 736.833333333 785.166666667 786.333333333 751.666666667 829 709 c 0
 871.666666667 666.333333333 905.166666667 616.833333333 929.5 560.5 c 0
 953.833333333 504.166666667 966 444 966 380 c 0
 966 315.333333333 953.833333333 254.833333333 929.5 198.5 c 0
 905.166666667 142.166666667 871.5 92.6666666667 828.5 50 c 0
 785.5 7.33333333333 736 -26 680 -50 c 0
 624 -74 564 -86 500 -86 c 256
500 -54 m 256
 560 -54 616.166666667 -42.8333333333 668.5 -20.5 c 0
 720.833333333 1.83333333333 767 33 807 73 c 0
 847 113 878.166666667 159.166666667 900.5 211.5 c 0
 922.833333333 263.833333333 934 320 934 380 c 256
 934 440 922.833333333 496.166666667 900.5 548.5 c 0
 878.166666667 600.833333333 847 647 807 687 c 0
 767 727 720.833333333 758.166666667 668.5 780.5 c 0
 616.166666667 802.833333333 560 814 500 814 c 0
 439.333333333 814 382.833333333 802.666666667 330.5 780 c 0
 278.166666667 757.333333333 232.166666667 726 192.5 686 c 0
 152.833333333 646 121.833333333 599.833333333 99.5 547.5 c 0
 77.1666666667 495.166666667 66 439.333333333 66 380 c 0
 66 320 77.1666666667 263.833333333 99.5 211.5 c 0
 121.833333333 159.166666667 153 113 193 73 c 0
 233 33 279.166666667 1.83333333333 331.5 -20.5 c 0
 383.833333333 -42.8333333333 440 -54 500 -54 c 256
428 127 m 1
 431.333333333 190.333333333 438.5 246.833333333 449.5 296.5 c 0
 460.5 346.166666667 477.333333333 393.333333333 500 438 c 0
 522.666666667 482.666666667 552.333333333 528.333333333 589 575 c 1
 319 575 l 1
 319 645 l 1
 683 645 l 1
 683 595 l 1
 649.666666667 556.333333333 622.333333333 519.666666667 601 485 c 0
 579.666666667 450.333333333 563.166666667 415 551.5 379 c 0
 539.833333333 343 531.166666667 304.666666667 525.5 264 c 0
 519.833333333 223.333333333 515.666666667 177.666666667 513 127 c 1
 428 127 l 1
EndSplineSet
Validated: 1
EndChar

StartChar: uni2467
Encoding: 9319 9319 7
Width: 1000
Flags: W
HStem: -86 32<381.703 618.195> 115 60<423.836 582.248> 598 59<433.678 568.075> 814 32<382.541 618.297>
VStem: 34 32<261.703 496.46> 308 74<212.734 325.06> 334 74<468.377 573.502> 598 71<451.78 568.93> 614 77<204.82 311.847> 934 32<262.659 498.297>
LayerCount: 2
Fore
SplineSet
500 -86 m 256xf840
 436 -86 375.833333333 -73.8333333333 319.5 -49.5 c 0
 263.166666667 -25.1666666667 213.666666667 8.33333333333 171 51 c 0
 128.333333333 93.6666666667 94.8333333333 143.166666667 70.5 199.5 c 0
 46.1666666667 255.833333333 34 316 34 380 c 256
 34 444 46.1666666667 504.166666667 70.5 560.5 c 0
 94.8333333333 616.833333333 128.333333333 666.333333333 171 709 c 0
 213.666666667 751.666666667 263.166666667 785.166666667 319.5 809.5 c 0
 375.833333333 833.833333333 436 846 500 846 c 256
 564 846 624.166666667 833.833333333 680.5 809.5 c 0
 736.833333333 785.166666667 786.333333333 751.666666667 829 709 c 0
 871.666666667 666.333333333 905.166666667 616.833333333 929.5 560.5 c 0
 953.833333333 504.166666667 966 444 966 380 c 0
 966 315.333333333 953.833333333 254.833333333 929.5 198.5 c 0
 905.166666667 142.166666667 871.5 92.6666666667 828.5 50 c 0
 785.5 7.33333333333 736 -26 680 -50 c 0
 624 -74 564 -86 500 -86 c 256xf840
500 -54 m 256
 560 -54 616.166666667 -42.8333333333 668.5 -20.5 c 0
 720.833333333 1.83333333333 767 33 807 73 c 0
 847 113 878.166666667 159.166666667 900.5 211.5 c 0
 922.833333333 263.833333333 934 320 934 380 c 256
 934 440 922.833333333 496.166666667 900.5 548.5 c 0
 878.166666667 600.833333333 847 647 807 687 c 0
 767 727 720.833333333 758.166666667 668.5 780.5 c 0
 616.166666667 802.833333333 560 814 500 814 c 0
 439.333333333 814 382.833333333 802.666666667 330.5 780 c 0
 278.166666667 757.333333333 232.166666667 726 192.5 686 c 0
 152.833333333 646 121.833333333 599.833333333 99.5 547.5 c 0
 77.1666666667 495.166666667 66 439.333333333 66 380 c 0
 66 320 77.1666666667 263.833333333 99.5 211.5 c 0
 121.833333333 159.166666667 153 113 193 73 c 0
 233 33 279.166666667 1.83333333333 331.5 -20.5 c 0
 383.833333333 -42.8333333333 440 -54 500 -54 c 256
500 115 m 0
 463.333333333 115 430.5 121.166666667 401.5 133.5 c 0
 372.5 145.833333333 349.666666667 162.666666667 333 184 c 0
 316.333333333 205.333333333 308 229.333333333 308 256 c 0xfcc0
 308 279.333333333 313.333333333 299.666666667 324 317 c 0
 334.666666667 334.333333333 348.166666667 349.5 364.5 362.5 c 0
 380.833333333 375.5 398 386.333333333 416 395 c 1
 416 399 l 1
 394 412.333333333 374.833333333 429.166666667 358.5 449.5 c 0
 342.166666667 469.833333333 334 493.333333333 334 520 c 0
 334 548 341.333333333 572.166666667 356 592.5 c 0
 370.666666667 612.833333333 390.666666667 628.666666667 416 640 c 0
 441.333333333 651.333333333 469.666666667 657 501 657 c 0
 553.666666667 657 594.833333333 644 624.5 618 c 0
 654.166666667 592 669 559 669 519 c 0xfb40
 669 491 660.333333333 466.166666667 643 444.5 c 0
 625.666666667 422.833333333 608 406 590 394 c 1
 590 391 l 1
 616 377 639.333333333 360 660 340 c 0
 680.666666667 320 691 292.333333333 691 257 c 0xf8c0
 691 230.333333333 683 206.333333333 667 185 c 0
 651 163.666666667 628.666666667 146.666666667 600 134 c 0
 571.333333333 121.333333333 538 115 500 115 c 0
503 175 m 0
 536.333333333 175 563.166666667 182.5 583.5 197.5 c 0
 603.833333333 212.5 614 233 614 259 c 0
 614 279.666666667 607.333333333 296.666666667 594 310 c 0
 580.666666667 323.333333333 562.666666667 335 540 345 c 0
 517.333333333 355 492 364.666666667 464 374 c 1
 442 361.333333333 422.833333333 346.166666667 406.5 328.5 c 0
 390.166666667 310.833333333 382 290.333333333 382 267 c 0
 382 240.333333333 393.666666667 218.333333333 417 201 c 0
 440.333333333 183.666666667 469 175 503 175 c 0
538 413 m 1
 556.666666667 427.666666667 571.333333333 443.5 582 460.5 c 0
 592.666666667 477.5 598 494.666666667 598 512 c 0
 598 536.666666667 589.333333333 557.166666667 572 573.5 c 0
 554.666666667 589.833333333 530.333333333 598 499 598 c 0
 472.333333333 598 450.5 591 433.5 577 c 0
 416.5 563 408 544 408 520 c 0xfb40
 408 501.333333333 414 485.333333333 426 472 c 0
 438 458.666666667 453.833333333 447.5 473.5 438.5 c 0
 493.166666667 429.5 514.666666667 421 538 413 c 1
EndSplineSet
Validated: 1
EndChar

StartChar: uni2468
Encoding: 9320 9320 8
Width: 1000
Flags: W
HStem: -86 32<381.703 618.195> 115 67<400.918 550.877> 326 59<434.236 569.473> 594 63<438.21 566.691> 814 32<382.541 618.297>
VStem: 34 32<261.703 496.46> 323 79<417.672 557.328> 623 78<269.142 389> 934 32<262.659 498.297>
LayerCount: 2
Fore
SplineSet
500 -86 m 256
 436 -86 375.833333333 -73.8333333333 319.5 -49.5 c 0
 263.166666667 -25.1666666667 213.666666667 8.33333333333 171 51 c 0
 128.333333333 93.6666666667 94.8333333333 143.166666667 70.5 199.5 c 0
 46.1666666667 255.833333333 34 316 34 380 c 256
 34 444 46.1666666667 504.166666667 70.5 560.5 c 0
 94.8333333333 616.833333333 128.333333333 666.333333333 171 709 c 0
 213.666666667 751.666666667 263.166666667 785.166666667 319.5 809.5 c 0
 375.833333333 833.833333333 436 846 500 846 c 256
 564 846 624.166666667 833.833333333 680.5 809.5 c 0
 736.833333333 785.166666667 786.333333333 751.666666667 829 709 c 0
 871.666666667 666.333333333 905.166666667 616.833333333 929.5 560.5 c 0
 953.833333333 504.166666667 966 444 966 380 c 0
 966 315.333333333 953.833333333 254.833333333 929.5 198.5 c 0
 905.166666667 142.166666667 871.5 92.6666666667 828.5 50 c 0
 785.5 7.33333333333 736 -26 680 -50 c 0
 624 -74 564 -86 500 -86 c 256
500 -54 m 256
 560 -54 616.166666667 -42.8333333333 668.5 -20.5 c 0
 720.833333333 1.83333333333 767 33 807 73 c 0
 847 113 878.166666667 159.166666667 900.5 211.5 c 0
 922.833333333 263.833333333 934 320 934 380 c 256
 934 440 922.833333333 496.166666667 900.5 548.5 c 0
 878.166666667 600.833333333 847 647 807 687 c 0
 767 727 720.833333333 758.166666667 668.5 780.5 c 0
 616.166666667 802.833333333 560 814 500 814 c 0
 439.333333333 814 382.833333333 802.666666667 330.5 780 c 0
 278.166666667 757.333333333 232.166666667 726 192.5 686 c 0
 152.833333333 646 121.833333333 599.833333333 99.5 547.5 c 0
 77.1666666667 495.166666667 66 439.333333333 66 380 c 0
 66 320 77.1666666667 263.833333333 99.5 211.5 c 0
 121.833333333 159.166666667 153 113 193 73 c 0
 233 33 279.166666667 1.83333333333 331.5 -20.5 c 0
 383.833333333 -42.8333333333 440 -54 500 -54 c 256
479 115 m 0
 446.333333333 115 418 120.333333333 394 131 c 0
 370 141.666666667 350 155 334 171 c 1
 379 221 l 1
 390.333333333 209.666666667 404.666666667 200.333333333 422 193 c 0
 439.333333333 185.666666667 457.666666667 182 477 182 c 0
 503 182 526.833333333 188.666666667 548.5 202 c 0
 570.166666667 215.333333333 587.666666667 237.166666667 601 267.5 c 0
 614.333333333 297.833333333 621.666666667 338.333333333 623 389 c 1
 605 369.666666667 584.166666667 354.333333333 560.5 343 c 0
 536.833333333 331.666666667 512.666666667 326 488 326 c 0
 439.333333333 326 399.666666667 339.333333333 369 366 c 0
 338.333333333 392.666666667 323 433.333333333 323 488 c 0
 323 522 330.833333333 551.666666667 346.5 577 c 0
 362.166666667 602.333333333 383.333333333 622 410 636 c 0
 436.666666667 650 465.666666667 657 497 657 c 0
 535.666666667 657 570.333333333 647.833333333 601 629.5 c 0
 631.666666667 611.166666667 656 583.333333333 674 546 c 0
 692 508.666666667 701 461.333333333 701 404 c 0
 701 335.333333333 690.5 279.666666667 669.5 237 c 0
 648.5 194.333333333 621.166666667 163.333333333 587.5 144 c 0
 553.833333333 124.666666667 517.666666667 115 479 115 c 0
504 385 m 0
 522 385 541.333333333 390.166666667 562 400.5 c 0
 582.666666667 410.833333333 602.333333333 427.666666667 621 451 c 1
 616.333333333 498.333333333 603.333333333 534 582 558 c 0
 560.666666667 582 532.333333333 594 497 594 c 0
 471 594 448.666666667 584.333333333 430 565 c 0
 411.333333333 545.666666667 402 520.333333333 402 489 c 0
 402 456.333333333 410.5 430.833333333 427.5 412.5 c 0
 444.5 394.166666667 470 385 504 385 c 0
EndSplineSet
Validated: 1
EndChar

StartChar: uni2469
Encoding: 9321 9321 9
Width: 1000
Flags: W
HStem: -86 32<381.703 618.195> 115 67<584.312 668.891> 551 53<207 274.626> 591 66<583.88 670.335> 814 32<382.541 618.297>
VStem: 34 32<261.703 496.46> 292 78<127 551> 465 79<237.854 536.992> 710 78<235.641 539.16> 934 32<262.659 498.297>
LayerCount: 2
Fore
SplineSet
500 -86 m 256xcfc0
 436 -86 375.833333333 -73.8333333333 319.5 -49.5 c 0
 263.166666667 -25.1666666667 213.666666667 8.33333333333 171 51 c 0
 128.333333333 93.6666666667 94.8333333333 143.166666667 70.5 199.5 c 0
 46.1666666667 255.833333333 34 316 34 380 c 256
 34 444 46.1666666667 504.166666667 70.5 560.5 c 0
 94.8333333333 616.833333333 128.333333333 666.333333333 171 709 c 0
 213.666666667 751.666666667 263.166666667 785.166666667 319.5 809.5 c 0
 375.833333333 833.833333333 436 846 500 846 c 256
 564 846 624.166666667 833.833333333 680.5 809.5 c 0
 736.833333333 785.166666667 786.333333333 751.666666667 829 709 c 0
 871.666666667 666.333333333 905.166666667 616.833333333 929.5 560.5 c 0
 953.833333333 504.166666667 966 444 966 380 c 0
 966 315.333333333 953.833333333 254.833333333 929.5 198.5 c 0
 905.166666667 142.166666667 871.5 92.6666666667 828.5 50 c 0
 785.5 7.33333333333 736 -26 680 -50 c 0
 624 -74 564 -86 500 -86 c 256xcfc0
500 -54 m 256
 560 -54 616.166666667 -42.8333333333 668.5 -20.5 c 0
 720.833333333 1.83333333333 767 33 807 73 c 0
 847 113 878.166666667 159.166666667 900.5 211.5 c 0
 922.833333333 263.833333333 934 320 934 380 c 256
 934 440 922.833333333 496.166666667 900.5 548.5 c 0
 878.166666667 600.833333333 847 647 807 687 c 0
 767 727 720.833333333 758.166666667 668.5 780.5 c 0
 616.166666667 802.833333333 560 814 500 814 c 0
 439.333333333 814 382.833333333 802.666666667 330.5 780 c 0
 278.166666667 757.333333333 232.166666667 726 192.5 686 c 0
 152.833333333 646 121.833333333 599.833333333 99.5 547.5 c 0
 77.1666666667 495.166666667 66 439.333333333 66 380 c 0
 66 320 77.1666666667 263.833333333 99.5 211.5 c 0
 121.833333333 159.166666667 153 113 193 73 c 0
 233 33 279.166666667 1.83333333333 331.5 -20.5 c 0
 383.833333333 -42.8333333333 440 -54 500 -54 c 256
292 127 m 1
 292 551 l 1
 207 551 l 1
 207 604 l 1xefc0
 229.666666667 608.666666667 249 614.5 265 621.5 c 0
 281 628.5 296 636.333333333 310 645 c 1
 370 645 l 1
 370 127 l 1
 292 127 l 1
627 115 m 0
 578.333333333 115 539.166666667 139.333333333 509.5 188 c 0
 479.833333333 236.666666667 465 303.333333333 465 388 c 256
 465 472.666666667 479.833333333 538.666666667 509.5 586 c 0
 539.166666667 633.333333333 578.333333333 657 627 657 c 0xdfc0
 676.333333333 657 715.5 633.333333333 744.5 586 c 0
 773.5 538.666666667 788 472.666666667 788 388 c 256
 788 303.333333333 773.5 236.666666667 744.5 188 c 0
 715.5 139.333333333 676.333333333 115 627 115 c 0
627 182 m 256
 651.666666667 182 671.666666667 198.666666667 687 232 c 0
 702.333333333 265.333333333 710 317.333333333 710 388 c 256
 710 458.666666667 702.333333333 510.166666667 687 542.5 c 0
 671.666666667 574.833333333 651.666666667 591 627 591 c 256
 602.333333333 591 582.333333333 574.833333333 567 542.5 c 0
 551.666666667 510.166666667 544 458.666666667 544 388 c 256
 544 317.333333333 551.666666667 265.333333333 567 232 c 0
 582.333333333 198.666666667 602.333333333 182 627 182 c 256
EndSplineSet
Validated: 1
EndChar

StartChar: uni246A
Encoding: 9322 9322 10
Width: 1000
Flags: W
HStem: -86 32<381.703 618.195> 551 53<253 320.667 526 593.309> 814 32<382.541 618.297>
VStem: 34 32<261.703 496.46> 338 78<127 551> 611 77<127 551> 934 32<262.659 498.297>
LayerCount: 2
Fore
SplineSet
500 -86 m 256
 436 -86 375.833333333 -73.8333333333 319.5 -49.5 c 0
 263.166666667 -25.1666666667 213.666666667 8.33333333333 171 51 c 0
 128.333333333 93.6666666667 94.8333333333 143.166666667 70.5 199.5 c 0
 46.1666666667 255.833333333 34 316 34 380 c 256
 34 444 46.1666666667 504.166666667 70.5 560.5 c 0
 94.8333333333 616.833333333 128.333333333 666.333333333 171 709 c 0
 213.666666667 751.666666667 263.166666667 785.166666667 319.5 809.5 c 0
 375.833333333 833.833333333 436 846 500 846 c 256
 564 846 624.166666667 833.833333333 680.5 809.5 c 0
 736.833333333 785.166666667 786.333333333 751.666666667 829 709 c 0
 871.666666667 666.333333333 905.166666667 616.833333333 929.5 560.5 c 0
 953.833333333 504.166666667 966 444 966 380 c 0
 966 315.333333333 953.833333333 254.833333333 929.5 198.5 c 0
 905.166666667 142.166666667 871.5 92.6666666667 828.5 50 c 0
 785.5 7.33333333333 736 -26 680 -50 c 0
 624 -74 564 -86 500 -86 c 256
500 -54 m 256
 560 -54 616.166666667 -42.8333333333 668.5 -20.5 c 0
 720.833333333 1.83333333333 767 33 807 73 c 0
 847 113 878.166666667 159.166666667 900.5 211.5 c 0
 922.833333333 263.833333333 934 320 934 380 c 256
 934 440 922.833333333 496.166666667 900.5 548.5 c 0
 878.166666667 600.833333333 847 647 807 687 c 0
 767 727 720.833333333 758.166666667 668.5 780.5 c 0
 616.166666667 802.833333333 560 814 500 814 c 0
 439.333333333 814 382.833333333 802.666666667 330.5 780 c 0
 278.166666667 757.333333333 232.166666667 726 192.5 686 c 0
 152.833333333 646 121.833333333 599.833333333 99.5 547.5 c 0
 77.1666666667 495.166666667 66 439.333333333 66 380 c 0
 66 320 77.1666666667 263.833333333 99.5 211.5 c 0
 121.833333333 159.166666667 153 113 193 73 c 0
 233 33 279.166666667 1.83333333333 331.5 -20.5 c 0
 383.833333333 -42.8333333333 440 -54 500 -54 c 256
338 127 m 1
 338 551 l 1
 253 551 l 1
 253 604 l 1
 275.666666667 608.666666667 295 614.5 311 621.5 c 0
 327 628.5 342.333333333 636.333333333 357 645 c 1
 416 645 l 1
 416 127 l 1
 338 127 l 1
611 127 m 1
 611 551 l 1
 526 551 l 1
 526 604 l 1
 548 608.666666667 567.166666667 614.5 583.5 621.5 c 0
 599.833333333 628.5 615 636.333333333 629 645 c 1
 688 645 l 1
 688 127 l 1
 611 127 l 1
EndSplineSet
Validated: 1
EndChar

StartChar: uni246B
Encoding: 9323 9323 11
Width: 1000
Flags: W
HStem: -86 32<381.703 618.195> 127 70<580.563 768> 551 53<207 274.267> 591 66<543.944 653.541> 814 32<382.541 618.297>
VStem: 34 32<261.703 496.46> 292 77<127 551> 676 74<412.374 566.656> 934 32<262.659 498.297>
LayerCount: 2
Fore
SplineSet
500 -86 m 256xcf80
 436 -86 375.833333333 -73.8333333333 319.5 -49.5 c 0
 263.166666667 -25.1666666667 213.666666667 8.33333333333 171 51 c 0
 128.333333333 93.6666666667 94.8333333333 143.166666667 70.5 199.5 c 0
 46.1666666667 255.833333333 34 316 34 380 c 256
 34 444 46.1666666667 504.166666667 70.5 560.5 c 0
 94.8333333333 616.833333333 128.333333333 666.333333333 171 709 c 0
 213.666666667 751.666666667 263.166666667 785.166666667 319.5 809.5 c 0
 375.833333333 833.833333333 436 846 500 846 c 256
 564 846 624.166666667 833.833333333 680.5 809.5 c 0
 736.833333333 785.166666667 786.333333333 751.666666667 829 709 c 0
 871.666666667 666.333333333 905.166666667 616.833333333 929.5 560.5 c 0
 953.833333333 504.166666667 966 444 966 380 c 0
 966 315.333333333 953.833333333 254.833333333 929.5 198.5 c 0
 905.166666667 142.166666667 871.5 92.6666666667 828.5 50 c 0
 785.5 7.33333333333 736 -26 680 -50 c 0
 624 -74 564 -86 500 -86 c 256xcf80
500 -54 m 256
 560 -54 616.166666667 -42.8333333333 668.5 -20.5 c 0
 720.833333333 1.83333333333 767 33 807 73 c 0
 847 113 878.166666667 159.166666667 900.5 211.5 c 0
 922.833333333 263.833333333 934 320 934 380 c 256
 934 440 922.833333333 496.166666667 900.5 548.5 c 0
 878.166666667 600.833333333 847 647 807 687 c 0
 767 727 720.833333333 758.166666667 668.5 780.5 c 0
 616.166666667 802.833333333 560 814 500 814 c 0
 439.333333333 814 382.833333333 802.666666667 330.5 780 c 0
 278.166666667 757.333333333 232.166666667 726 192.5 686 c 0
 152.833333333 646 121.833333333 599.833333333 99.5 547.5 c 0
 77.1666666667 495.166666667 66 439.333333333 66 380 c 0
 66 320 77.1666666667 263.833333333 99.5 211.5 c 0
 121.833333333 159.166666667 153 113 193 73 c 0
 233 33 279.166666667 1.83333333333 331.5 -20.5 c 0
 383.833333333 -42.8333333333 440 -54 500 -54 c 256
292 127 m 1
 292 551 l 1
 207 551 l 1
 207 604 l 1xef80
 229 608.666666667 248.166666667 614.5 264.5 621.5 c 0
 280.833333333 628.5 295.666666667 636.333333333 309 645 c 1
 369 645 l 1
 369 127 l 1
 292 127 l 1
474 127 m 1
 474 175 l 1
 537.333333333 248.333333333 586.833333333 310 622.5 360 c 0
 658.166666667 410 676 455.333333333 676 496 c 0
 676 525.333333333 669.666666667 548.5 657 565.5 c 0
 644.333333333 582.5 625.333333333 591 600 591 c 0
 582.666666667 591 566.666666667 585.833333333 552 575.5 c 0
 537.333333333 565.166666667 524.333333333 552.333333333 513 537 c 1
 469 580 l 1
 489 605.333333333 510.666666667 624.5 534 637.5 c 0
 557.333333333 650.5 582.666666667 657 610 657 c 0xdf80
 653.333333333 657 687.5 642.833333333 712.5 614.5 c 0
 737.5 586.166666667 750 548.666666667 750 502 c 0
 750 470 742.333333333 437.666666667 727 405 c 0
 711.666666667 372.333333333 691.166666667 338.5 665.5 303.5 c 0
 639.833333333 268.5 611.333333333 231.666666667 580 193 c 1
 592 194.333333333 605.166666667 195.333333333 619.5 196 c 0
 633.833333333 196.666666667 647.333333333 197 660 197 c 2
 768 197 l 1
 768 127 l 1
 474 127 l 1
EndSplineSet
Validated: 1
EndChar

StartChar: uni246C
Encoding: 9324 9324 12
Width: 1000
Flags: W
HStem: -86 32<381.703 618.195> 115 66<538.552 664.561> 365 61<554 644.094> 551 53<208 275.626> 592 65<543.046 656.356> 814 32<382.541 618.297>
VStem: 34 32<261.703 496.46> 294 77<127 551> 675 77<456.126 572.203> 690 79<206.38 332.138> 934 32<262.659 498.297>
LayerCount: 2
Fore
SplineSet
500 -86 m 256xe720
 436 -86 375.833333333 -73.8333333333 319.5 -49.5 c 0
 263.166666667 -25.1666666667 213.666666667 8.33333333333 171 51 c 0
 128.333333333 93.6666666667 94.8333333333 143.166666667 70.5 199.5 c 0
 46.1666666667 255.833333333 34 316 34 380 c 256
 34 444 46.1666666667 504.166666667 70.5 560.5 c 0
 94.8333333333 616.833333333 128.333333333 666.333333333 171 709 c 0
 213.666666667 751.666666667 263.166666667 785.166666667 319.5 809.5 c 0
 375.833333333 833.833333333 436 846 500 846 c 256
 564 846 624.166666667 833.833333333 680.5 809.5 c 0
 736.833333333 785.166666667 786.333333333 751.666666667 829 709 c 0
 871.666666667 666.333333333 905.166666667 616.833333333 929.5 560.5 c 0
 953.833333333 504.166666667 966 444 966 380 c 0
 966 315.333333333 953.833333333 254.833333333 929.5 198.5 c 0
 905.166666667 142.166666667 871.5 92.6666666667 828.5 50 c 0
 785.5 7.33333333333 736 -26 680 -50 c 0
 624 -74 564 -86 500 -86 c 256xe720
500 -54 m 256
 560 -54 616.166666667 -42.8333333333 668.5 -20.5 c 0
 720.833333333 1.83333333333 767 33 807 73 c 0
 847 113 878.166666667 159.166666667 900.5 211.5 c 0
 922.833333333 263.833333333 934 320 934 380 c 256
 934 440 922.833333333 496.166666667 900.5 548.5 c 0
 878.166666667 600.833333333 847 647 807 687 c 0
 767 727 720.833333333 758.166666667 668.5 780.5 c 0
 616.166666667 802.833333333 560 814 500 814 c 0
 439.333333333 814 382.833333333 802.666666667 330.5 780 c 0
 278.166666667 757.333333333 232.166666667 726 192.5 686 c 0
 152.833333333 646 121.833333333 599.833333333 99.5 547.5 c 0
 77.1666666667 495.166666667 66 439.333333333 66 380 c 0
 66 320 77.1666666667 263.833333333 99.5 211.5 c 0
 121.833333333 159.166666667 153 113 193 73 c 0
 233 33 279.166666667 1.83333333333 331.5 -20.5 c 0
 383.833333333 -42.8333333333 440 -54 500 -54 c 256
294 127 m 1
 294 551 l 1
 208 551 l 1
 208 604 l 1xf720
 230.666666667 608.666666667 250 614.5 266 621.5 c 0
 282 628.5 297 636.333333333 311 645 c 1
 371 645 l 1
 371 127 l 1
 294 127 l 1
610 115 m 0
 576.666666667 115 547.166666667 121.833333333 521.5 135.5 c 0
 495.833333333 149.166666667 475.333333333 165.666666667 460 185 c 1
 500 235 l 1
 514 220.333333333 529.666666667 207.666666667 547 197 c 0
 564.333333333 186.333333333 585 181 609 181 c 0
 632.333333333 181 651.666666667 189 667 205 c 0
 682.333333333 221 690 242.333333333 690 269 c 0xef60
 690 298.333333333 680.5 321.666666667 661.5 339 c 0
 642.5 356.333333333 606.666666667 365 554 365 c 1
 554 426 l 1
 599.333333333 426 630.833333333 434.333333333 648.5 451 c 0
 666.166666667 467.666666667 675 489 675 515 c 0
 675 539 668.666666667 557.833333333 656 571.5 c 0
 643.333333333 585.166666667 626.333333333 592 605 592 c 0
 573 592 544 577 518 547 c 1
 475 595 l 1
 493.666666667 614.333333333 514.166666667 629.5 536.5 640.5 c 0
 558.833333333 651.5 583.333333333 657 610 657 c 0
 652 657 686.166666667 645.166666667 712.5 621.5 c 0
 738.833333333 597.833333333 752 564 752 520 c 0xefa0
 752 490 744.666666667 465.333333333 730 446 c 0
 715.333333333 426.666666667 696 411.333333333 672 400 c 1
 672 397 l 1
 699.333333333 388.333333333 722.333333333 373 741 351 c 0
 759.666666667 329 769 300.333333333 769 265 c 0
 769 234.333333333 761.833333333 207.666666667 747.5 185 c 0
 733.166666667 162.333333333 714 145 690 133 c 0xef60
 666 121 639.333333333 115 610 115 c 0
EndSplineSet
Validated: 1
EndChar

StartChar: uni246D
Encoding: 9325 9325 13
Width: 1000
Flags: W
HStem: -86 32<381.703 618.195> 265 63<527 653 725 783> 551 53<207 274.267> 814 32<382.541 618.297>
VStem: 34 32<261.703 496.46> 292 77<127 551> 653 72<127 265 328 564> 934 32<262.659 498.297>
LayerCount: 2
Fore
SplineSet
500 -86 m 256
 436 -86 375.833333333 -73.8333333333 319.5 -49.5 c 0
 263.166666667 -25.1666666667 213.666666667 8.33333333333 171 51 c 0
 128.333333333 93.6666666667 94.8333333333 143.166666667 70.5 199.5 c 0
 46.1666666667 255.833333333 34 316 34 380 c 256
 34 444 46.1666666667 504.166666667 70.5 560.5 c 0
 94.8333333333 616.833333333 128.333333333 666.333333333 171 709 c 0
 213.666666667 751.666666667 263.166666667 785.166666667 319.5 809.5 c 0
 375.833333333 833.833333333 436 846 500 846 c 256
 564 846 624.166666667 833.833333333 680.5 809.5 c 0
 736.833333333 785.166666667 786.333333333 751.666666667 829 709 c 0
 871.666666667 666.333333333 905.166666667 616.833333333 929.5 560.5 c 0
 953.833333333 504.166666667 966 444 966 380 c 0
 966 315.333333333 953.833333333 254.833333333 929.5 198.5 c 0
 905.166666667 142.166666667 871.5 92.6666666667 828.5 50 c 0
 785.5 7.33333333333 736 -26 680 -50 c 0
 624 -74 564 -86 500 -86 c 256
500 -54 m 256
 560 -54 616.166666667 -42.8333333333 668.5 -20.5 c 0
 720.833333333 1.83333333333 767 33 807 73 c 0
 847 113 878.166666667 159.166666667 900.5 211.5 c 0
 922.833333333 263.833333333 934 320 934 380 c 256
 934 440 922.833333333 496.166666667 900.5 548.5 c 0
 878.166666667 600.833333333 847 647 807 687 c 0
 767 727 720.833333333 758.166666667 668.5 780.5 c 0
 616.166666667 802.833333333 560 814 500 814 c 0
 439.333333333 814 382.833333333 802.666666667 330.5 780 c 0
 278.166666667 757.333333333 232.166666667 726 192.5 686 c 0
 152.833333333 646 121.833333333 599.833333333 99.5 547.5 c 0
 77.1666666667 495.166666667 66 439.333333333 66 380 c 0
 66 320 77.1666666667 263.833333333 99.5 211.5 c 0
 121.833333333 159.166666667 153 113 193 73 c 0
 233 33 279.166666667 1.83333333333 331.5 -20.5 c 0
 383.833333333 -42.8333333333 440 -54 500 -54 c 256
292 127 m 1
 292 551 l 1
 207 551 l 1
 207 604 l 1
 229 608.666666667 248.166666667 614.5 264.5 621.5 c 0
 280.833333333 628.5 295.666666667 636.333333333 309 645 c 1
 369 645 l 1
 369 127 l 1
 292 127 l 1
653 127 m 1
 653 265 l 1
 453 265 l 1
 453 320 l 1
 635 645 l 1
 725 645 l 1
 725 328 l 1
 783 328 l 1
 783 265 l 1
 725 265 l 1
 725 127 l 1
 653 127 l 1
527 328 m 1
 653 328 l 1
 653 460 l 2
 653 474.666666667 653.333333333 492 654 512 c 0
 654.666666667 532 655.333333333 549.333333333 656 564 c 1
 652 564 l 1
 645.333333333 550 639.666666667 538.166666667 635 528.5 c 0
 630.333333333 518.833333333 624.666666667 507 618 493 c 2
 527 328 l 1
EndSplineSet
Validated: 1
EndChar

StartChar: uni246E
Encoding: 9326 9326 14
Width: 1000
Flags: W
HStem: -86 32<381.703 618.195> 115 66<539.172 663.02> 398 58<570.385 666.109> 551 53<207 274.267> 575 70<578 752> 814 32<382.541 618.297>
VStem: 34 32<261.703 496.46> 292 77<127 551> 696 78<215.047 367.165> 934 32<262.659 498.297>
LayerCount: 2
Fore
SplineSet
500 -86 m 256xe7c0
 436 -86 375.833333333 -73.8333333333 319.5 -49.5 c 0
 263.166666667 -25.1666666667 213.666666667 8.33333333333 171 51 c 0
 128.333333333 93.6666666667 94.8333333333 143.166666667 70.5 199.5 c 0
 46.1666666667 255.833333333 34 316 34 380 c 256
 34 444 46.1666666667 504.166666667 70.5 560.5 c 0
 94.8333333333 616.833333333 128.333333333 666.333333333 171 709 c 0
 213.666666667 751.666666667 263.166666667 785.166666667 319.5 809.5 c 0
 375.833333333 833.833333333 436 846 500 846 c 256
 564 846 624.166666667 833.833333333 680.5 809.5 c 0
 736.833333333 785.166666667 786.333333333 751.666666667 829 709 c 0
 871.666666667 666.333333333 905.166666667 616.833333333 929.5 560.5 c 0
 953.833333333 504.166666667 966 444 966 380 c 0
 966 315.333333333 953.833333333 254.833333333 929.5 198.5 c 0
 905.166666667 142.166666667 871.5 92.6666666667 828.5 50 c 0
 785.5 7.33333333333 736 -26 680 -50 c 0
 624 -74 564 -86 500 -86 c 256xe7c0
500 -54 m 256
 560 -54 616.166666667 -42.8333333333 668.5 -20.5 c 0
 720.833333333 1.83333333333 767 33 807 73 c 0
 847 113 878.166666667 159.166666667 900.5 211.5 c 0
 922.833333333 263.833333333 934 320 934 380 c 256
 934 440 922.833333333 496.166666667 900.5 548.5 c 0
 878.166666667 600.833333333 847 647 807 687 c 0
 767 727 720.833333333 758.166666667 668.5 780.5 c 0
 616.166666667 802.833333333 560 814 500 814 c 0
 439.333333333 814 382.833333333 802.666666667 330.5 780 c 0
 278.166666667 757.333333333 232.166666667 726 192.5 686 c 0
 152.833333333 646 121.833333333 599.833333333 99.5 547.5 c 0
 77.1666666667 495.166666667 66 439.333333333 66 380 c 0
 66 320 77.1666666667 263.833333333 99.5 211.5 c 0
 121.833333333 159.166666667 153 113 193 73 c 0
 233 33 279.166666667 1.83333333333 331.5 -20.5 c 0
 383.833333333 -42.8333333333 440 -54 500 -54 c 256
292 127 m 1
 292 551 l 1
 207 551 l 1
 207 604 l 1xf7c0
 229 608.666666667 248.166666667 614.5 264.5 621.5 c 0
 280.833333333 628.5 295.666666667 636.333333333 309 645 c 1
 369 645 l 1xefc0
 369 127 l 1
 292 127 l 1
614 115 m 0
 578 115 548 122 524 136 c 0
 500 150 479.666666667 166 463 184 c 1
 499 237 l 1
 512.333333333 223 527.833333333 210.166666667 545.5 198.5 c 0
 563.166666667 186.833333333 584.333333333 181 609 181 c 256
 633.666666667 181 654.333333333 191 671 211 c 0
 687.666666667 231 696 257.666666667 696 291 c 0
 696 323.666666667 688.333333333 349.666666667 673 369 c 0
 657.666666667 388.333333333 637.333333333 398 612 398 c 0
 597.333333333 398 584.333333333 395 573 389 c 0
 561.666666667 383 549.666666667 374.666666667 537 364 c 1
 500 390 l 1
 513 645 l 1
 752 645 l 1
 752 575 l 1
 578 575 l 1xefc0
 570 435 l 1
 579.333333333 440.333333333 589.333333333 445.166666667 600 449.5 c 0
 610.666666667 453.833333333 621.666666667 456 633 456 c 0
 671.666666667 456 704.833333333 442.666666667 732.5 416 c 0
 760.166666667 389.333333333 774 348.333333333 774 293 c 0
 774 255.666666667 766.5 223.666666667 751.5 197 c 0
 736.5 170.333333333 716.833333333 150 692.5 136 c 0
 668.166666667 122 642 115 614 115 c 0
EndSplineSet
Validated: 1
EndChar

StartChar: uni246F
Encoding: 9327 9327 15
Width: 1000
Flags: W
HStem: -86 32<381.703 618.195> 115 64<583.491 680.096> 385 61<584.226 680.917> 551 53<207 274.267> 589 68<595.346 711.08> 814 32<382.541 618.297>
VStem: 34 32<261.703 496.46> 292 77<127 551> 469 72<381 518.008> 706 72<207.17 357.376> 934 32<262.659 498.297>
LayerCount: 2
Fore
SplineSet
500 -86 m 256xe7e0
 436 -86 375.833333333 -73.8333333333 319.5 -49.5 c 0
 263.166666667 -25.1666666667 213.666666667 8.33333333333 171 51 c 0
 128.333333333 93.6666666667 94.8333333333 143.166666667 70.5 199.5 c 0
 46.1666666667 255.833333333 34 316 34 380 c 256
 34 444 46.1666666667 504.166666667 70.5 560.5 c 0
 94.8333333333 616.833333333 128.333333333 666.333333333 171 709 c 0
 213.666666667 751.666666667 263.166666667 785.166666667 319.5 809.5 c 0
 375.833333333 833.833333333 436 846 500 846 c 256
 564 846 624.166666667 833.833333333 680.5 809.5 c 0
 736.833333333 785.166666667 786.333333333 751.666666667 829 709 c 0
 871.666666667 666.333333333 905.166666667 616.833333333 929.5 560.5 c 0
 953.833333333 504.166666667 966 444 966 380 c 0
 966 315.333333333 953.833333333 254.833333333 929.5 198.5 c 0
 905.166666667 142.166666667 871.5 92.6666666667 828.5 50 c 0
 785.5 7.33333333333 736 -26 680 -50 c 0
 624 -74 564 -86 500 -86 c 256xe7e0
500 -54 m 256
 560 -54 616.166666667 -42.8333333333 668.5 -20.5 c 0
 720.833333333 1.83333333333 767 33 807 73 c 0
 847 113 878.166666667 159.166666667 900.5 211.5 c 0
 922.833333333 263.833333333 934 320 934 380 c 256
 934 440 922.833333333 496.166666667 900.5 548.5 c 0
 878.166666667 600.833333333 847 647 807 687 c 0
 767 727 720.833333333 758.166666667 668.5 780.5 c 0
 616.166666667 802.833333333 560 814 500 814 c 0
 439.333333333 814 382.833333333 802.666666667 330.5 780 c 0
 278.166666667 757.333333333 232.166666667 726 192.5 686 c 0
 152.833333333 646 121.833333333 599.833333333 99.5 547.5 c 0
 77.1666666667 495.166666667 66 439.333333333 66 380 c 0
 66 320 77.1666666667 263.833333333 99.5 211.5 c 0
 121.833333333 159.166666667 153 113 193 73 c 0
 233 33 279.166666667 1.83333333333 331.5 -20.5 c 0
 383.833333333 -42.8333333333 440 -54 500 -54 c 256
292 127 m 1
 292 551 l 1
 207 551 l 1
 207 604 l 1xf7e0
 229 608.666666667 248.166666667 614.5 264.5 621.5 c 0
 280.833333333 628.5 295.666666667 636.333333333 309 645 c 1
 369 645 l 1
 369 127 l 1
 292 127 l 1
634 115 m 0
 603.333333333 115 575.5 124.166666667 550.5 142.5 c 0
 525.5 160.833333333 505.666666667 188.666666667 491 226 c 0
 476.333333333 263.333333333 469 310.666666667 469 368 c 0
 469 436.666666667 477.5 492.166666667 494.5 534.5 c 0
 511.5 576.833333333 533.666666667 607.833333333 561 627.5 c 0
 588.333333333 647.166666667 618 657 650 657 c 0
 677.333333333 657 700.833333333 651.5 720.5 640.5 c 0
 740.166666667 629.5 756.333333333 616 769 600 c 1
 728 549 l 1
 719.333333333 561 708.333333333 570.666666667 695 578 c 0
 681.666666667 585.333333333 667.333333333 589 652 589 c 0xefe0
 632 589 613.833333333 582.5 597.5 569.5 c 0
 581.166666667 556.5 568 534.833333333 558 504.5 c 0
 548 474.166666667 542.333333333 433 541 381 c 1
 555 401 571.5 416.833333333 590.5 428.5 c 0
 609.5 440.166666667 628.666666667 446 648 446 c 0
 686.666666667 446 718 432.5 742 405.5 c 0
 766 378.5 778 338 778 284 c 0
 778 250 771.5 220.333333333 758.5 195 c 0
 745.5 169.666666667 728.166666667 150 706.5 136 c 0
 684.833333333 122 660.666666667 115 634 115 c 0
635 179 m 0
 655 179 671.833333333 188.5 685.5 207.5 c 0
 699.166666667 226.5 706 251.333333333 706 282 c 0
 706 313.333333333 699.5 338.333333333 686.5 357 c 0
 673.5 375.666666667 654.333333333 385 629 385 c 0
 615 385 600.5 380.166666667 585.5 370.5 c 0
 570.5 360.833333333 556.333333333 343.666666667 543 319 c 1
 547 271 557 235.666666667 573 213 c 0
 589 190.333333333 609.666666667 179 635 179 c 0
EndSplineSet
Validated: 1
EndChar

StartChar: uni2470
Encoding: 9328 9328 16
Width: 1000
Flags: W
HStem: -86 32<381.703 618.195> 551 53<208 275.626> 575 70<478 689> 814 32<382.541 618.297>
VStem: 34 32<261.703 496.46> 294 77<127 551> 563 77<127 324.174> 934 32<262.659 498.297>
LayerCount: 2
Fore
SplineSet
500 -86 m 256x9f
 436 -86 375.833333333 -73.8333333333 319.5 -49.5 c 0
 263.166666667 -25.1666666667 213.666666667 8.33333333333 171 51 c 0
 128.333333333 93.6666666667 94.8333333333 143.166666667 70.5 199.5 c 0
 46.1666666667 255.833333333 34 316 34 380 c 256
 34 444 46.1666666667 504.166666667 70.5 560.5 c 0
 94.8333333333 616.833333333 128.333333333 666.333333333 171 709 c 0
 213.666666667 751.666666667 263.166666667 785.166666667 319.5 809.5 c 0
 375.833333333 833.833333333 436 846 500 846 c 256
 564 846 624.166666667 833.833333333 680.5 809.5 c 0
 736.833333333 785.166666667 786.333333333 751.666666667 829 709 c 0
 871.666666667 666.333333333 905.166666667 616.833333333 929.5 560.5 c 0
 953.833333333 504.166666667 966 444 966 380 c 0
 966 315.333333333 953.833333333 254.833333333 929.5 198.5 c 0
 905.166666667 142.166666667 871.5 92.6666666667 828.5 50 c 0
 785.5 7.33333333333 736 -26 680 -50 c 0
 624 -74 564 -86 500 -86 c 256x9f
500 -54 m 256
 560 -54 616.166666667 -42.8333333333 668.5 -20.5 c 0
 720.833333333 1.83333333333 767 33 807 73 c 0
 847 113 878.166666667 159.166666667 900.5 211.5 c 0
 922.833333333 263.833333333 934 320 934 380 c 256
 934 440 922.833333333 496.166666667 900.5 548.5 c 0
 878.166666667 600.833333333 847 647 807 687 c 0
 767 727 720.833333333 758.166666667 668.5 780.5 c 0
 616.166666667 802.833333333 560 814 500 814 c 0
 439.333333333 814 382.833333333 802.666666667 330.5 780 c 0
 278.166666667 757.333333333 232.166666667 726 192.5 686 c 0
 152.833333333 646 121.833333333 599.833333333 99.5 547.5 c 0
 77.1666666667 495.166666667 66 439.333333333 66 380 c 0
 66 320 77.1666666667 263.833333333 99.5 211.5 c 0
 121.833333333 159.166666667 153 113 193 73 c 0
 233 33 279.166666667 1.83333333333 331.5 -20.5 c 0
 383.833333333 -42.8333333333 440 -54 500 -54 c 256
294 127 m 1
 294 551 l 1
 208 551 l 1
 208 604 l 1xdf
 230.666666667 608.666666667 250 614.5 266 621.5 c 0
 282 628.5 297 636.333333333 311 645 c 1
 371 645 l 1xbf
 371 127 l 1
 294 127 l 1
563 127 m 1
 565.666666667 190.333333333 571.166666667 246.833333333 579.5 296.5 c 0
 587.833333333 346.166666667 600.833333333 393.333333333 618.5 438 c 0
 636.166666667 482.666666667 659.666666667 528.333333333 689 575 c 1
 478 575 l 1
 478 645 l 1
 776 645 l 1xbf
 776 595 l 1
 749.333333333 556.333333333 727.5 519.666666667 710.5 485 c 0
 693.5 450.333333333 680.333333333 415 671 379 c 0
 661.666666667 343 654.833333333 304.666666667 650.5 264 c 0
 646.166666667 223.333333333 642.666666667 177.666666667 640 127 c 1
 563 127 l 1
EndSplineSet
Validated: 1
EndChar

StartChar: uni2471
Encoding: 9329 9329 17
Width: 1000
Flags: W
HStem: -86 32<381.703 618.195> 115 60<579.9 697.707> 551 53<207 274.626> 598 59<587.143 687.166> 814 32<382.541 618.297>
VStem: 34 32<261.703 496.46> 292 78<127 551> 479 70<205.93 333.713> 500 68<460.38 578.805> 708 66<440.503 574.902> 721 72<198.269 320.273> 934 32<262.659 498.297>
LayerCount: 2
Fore
SplineSet
500 -86 m 256xce90
 436 -86 375.833333333 -73.8333333333 319.5 -49.5 c 0
 263.166666667 -25.1666666667 213.666666667 8.33333333333 171 51 c 0
 128.333333333 93.6666666667 94.8333333333 143.166666667 70.5 199.5 c 0
 46.1666666667 255.833333333 34 316 34 380 c 256
 34 444 46.1666666667 504.166666667 70.5 560.5 c 0
 94.8333333333 616.833333333 128.333333333 666.333333333 171 709 c 0
 213.666666667 751.666666667 263.166666667 785.166666667 319.5 809.5 c 0
 375.833333333 833.833333333 436 846 500 846 c 256
 564 846 624.166666667 833.833333333 680.5 809.5 c 0
 736.833333333 785.166666667 786.333333333 751.666666667 829 709 c 0
 871.666666667 666.333333333 905.166666667 616.833333333 929.5 560.5 c 0
 953.833333333 504.166666667 966 444 966 380 c 0
 966 315.333333333 953.833333333 254.833333333 929.5 198.5 c 0
 905.166666667 142.166666667 871.5 92.6666666667 828.5 50 c 0
 785.5 7.33333333333 736 -26 680 -50 c 0
 624 -74 564 -86 500 -86 c 256xce90
500 -54 m 256
 560 -54 616.166666667 -42.8333333333 668.5 -20.5 c 0
 720.833333333 1.83333333333 767 33 807 73 c 0
 847 113 878.166666667 159.166666667 900.5 211.5 c 0
 922.833333333 263.833333333 934 320 934 380 c 256
 934 440 922.833333333 496.166666667 900.5 548.5 c 0
 878.166666667 600.833333333 847 647 807 687 c 0
 767 727 720.833333333 758.166666667 668.5 780.5 c 0
 616.166666667 802.833333333 560 814 500 814 c 0
 439.333333333 814 382.833333333 802.666666667 330.5 780 c 0
 278.166666667 757.333333333 232.166666667 726 192.5 686 c 0
 152.833333333 646 121.833333333 599.833333333 99.5 547.5 c 0
 77.1666666667 495.166666667 66 439.333333333 66 380 c 0
 66 320 77.1666666667 263.833333333 99.5 211.5 c 0
 121.833333333 159.166666667 153 113 193 73 c 0
 233 33 279.166666667 1.83333333333 331.5 -20.5 c 0
 383.833333333 -42.8333333333 440 -54 500 -54 c 256
292 127 m 1
 292 551 l 1
 207 551 l 1
 207 604 l 1xee10
 229.666666667 608.666666667 249 614.5 265 621.5 c 0
 281 628.5 296 636.333333333 310 645 c 1
 370 645 l 1
 370 127 l 1
 292 127 l 1
636 115 m 0
 606 115 579.166666667 121.166666667 555.5 133.5 c 0
 531.833333333 145.833333333 513.166666667 162.666666667 499.5 184 c 0
 485.833333333 205.333333333 479 229.333333333 479 256 c 0xdf30
 479 290.666666667 487.833333333 319.333333333 505.5 342 c 0
 523.166666667 364.666666667 543 382.333333333 565 395 c 1
 565 399 l 1
 547 412.333333333 531.666666667 429.166666667 519 449.5 c 0
 506.333333333 469.833333333 500 493.333333333 500 520 c 0
 500 562.666666667 513.166666667 596.166666667 539.5 620.5 c 0
 565.833333333 644.833333333 598.333333333 657 637 657 c 0
 679 657 712.333333333 644.333333333 737 619 c 0
 761.666666667 593.666666667 774 560.333333333 774 519 c 0xded0
 774 491 767.5 466.166666667 754.5 444.5 c 0
 741.5 422.833333333 727.333333333 406 712 394 c 1
 712 391 l 1
 733.333333333 377 752.166666667 360 768.5 340 c 0
 784.833333333 320 793 292.333333333 793 257 c 0xde30
 793 230.333333333 786.5 206.333333333 773.5 185 c 0
 760.5 163.666666667 742.166666667 146.666666667 718.5 134 c 0
 694.833333333 121.333333333 667.333333333 115 636 115 c 0
639 175 m 0
 663.666666667 175 683.5 182.5 698.5 197.5 c 0
 713.5 212.5 721 233 721 259 c 0
 721 290.333333333 710.333333333 313.666666667 689 329 c 0
 667.666666667 344.333333333 640.666666667 359.333333333 608 374 c 1
 592.666666667 361.333333333 579 346.166666667 567 328.5 c 0
 555 310.833333333 549 290.333333333 549 267 c 0
 549 240.333333333 557.666666667 218.333333333 575 201 c 0
 592.333333333 183.666666667 613.666666667 175 639 175 c 0
666 413 m 1
 694 443 708 476 708 512 c 0
 708 537.333333333 701.666666667 558 689 574 c 0
 676.333333333 590 658.333333333 598 635 598 c 0
 615.666666667 598 599.666666667 591.333333333 587 578 c 0
 574.333333333 564.666666667 568 545.333333333 568 520 c 0xded0
 568 491.333333333 577.666666667 469.166666667 597 453.5 c 0
 616.333333333 437.833333333 639.333333333 424.333333333 666 413 c 1
EndSplineSet
Validated: 1
EndChar

StartChar: uni2472
Encoding: 9330 9330 18
Width: 1000
Flags: W
HStem: -86 32<381.703 618.195> 115 68<543.726 658.201> 325 61<574.075 670.088> 551 53<207 274.267> 594 63<576.145 669.436> 814 32<382.541 618.297>
VStem: 34 32<261.703 496.46> 292 77<127 551> 477 72<412.802 565.977> 712 72<253.916 390> 934 32<262.659 498.297>
LayerCount: 2
Fore
SplineSet
500 -86 m 256xe7e0
 436 -86 375.833333333 -73.8333333333 319.5 -49.5 c 0
 263.166666667 -25.1666666667 213.666666667 8.33333333333 171 51 c 0
 128.333333333 93.6666666667 94.8333333333 143.166666667 70.5 199.5 c 0
 46.1666666667 255.833333333 34 316 34 380 c 256
 34 444 46.1666666667 504.166666667 70.5 560.5 c 0
 94.8333333333 616.833333333 128.333333333 666.333333333 171 709 c 0
 213.666666667 751.666666667 263.166666667 785.166666667 319.5 809.5 c 0
 375.833333333 833.833333333 436 846 500 846 c 256
 564 846 624.166666667 833.833333333 680.5 809.5 c 0
 736.833333333 785.166666667 786.333333333 751.666666667 829 709 c 0
 871.666666667 666.333333333 905.166666667 616.833333333 929.5 560.5 c 0
 953.833333333 504.166666667 966 444 966 380 c 0
 966 315.333333333 953.833333333 254.833333333 929.5 198.5 c 0
 905.166666667 142.166666667 871.5 92.6666666667 828.5 50 c 0
 785.5 7.33333333333 736 -26 680 -50 c 0
 624 -74 564 -86 500 -86 c 256xe7e0
500 -54 m 256
 560 -54 616.166666667 -42.8333333333 668.5 -20.5 c 0
 720.833333333 1.83333333333 767 33 807 73 c 0
 847 113 878.166666667 159.166666667 900.5 211.5 c 0
 922.833333333 263.833333333 934 320 934 380 c 256
 934 440 922.833333333 496.166666667 900.5 548.5 c 0
 878.166666667 600.833333333 847 647 807 687 c 0
 767 727 720.833333333 758.166666667 668.5 780.5 c 0
 616.166666667 802.833333333 560 814 500 814 c 0
 439.333333333 814 382.833333333 802.666666667 330.5 780 c 0
 278.166666667 757.333333333 232.166666667 726 192.5 686 c 0
 152.833333333 646 121.833333333 599.833333333 99.5 547.5 c 0
 77.1666666667 495.166666667 66 439.333333333 66 380 c 0
 66 320 77.1666666667 263.833333333 99.5 211.5 c 0
 121.833333333 159.166666667 153 113 193 73 c 0
 233 33 279.166666667 1.83333333333 331.5 -20.5 c 0
 383.833333333 -42.8333333333 440 -54 500 -54 c 256
292 127 m 1
 292 551 l 1
 207 551 l 1
 207 604 l 1xf7e0
 229 608.666666667 248.166666667 614.5 264.5 621.5 c 0
 280.833333333 628.5 295.666666667 636.333333333 309 645 c 1
 369 645 l 1
 369 127 l 1
 292 127 l 1
606 115 m 0
 578 115 554.166666667 120.333333333 534.5 131 c 0
 514.833333333 141.666666667 498.333333333 155 485 171 c 1
 527 221 l 1
 536.333333333 209.666666667 547.5 200.5 560.5 193.5 c 0
 573.5 186.5 587.333333333 183 602 183 c 0
 622 183 640 189.5 656 202.5 c 0
 672 215.5 685.166666667 237.166666667 695.5 267.5 c 0
 705.833333333 297.833333333 711.333333333 338.666666667 712 390 c 1
 698.666666667 370 682.666666667 354.166666667 664 342.5 c 0
 645.333333333 330.833333333 626.333333333 325 607 325 c 0
 568.333333333 325 537 338.5 513 365.5 c 0
 489 392.5 477 433.333333333 477 488 c 0
 477 522 483.5 551.666666667 496.5 577 c 0
 509.5 602.333333333 526.666666667 622 548 636 c 0
 569.333333333 650 593 657 619 657 c 0xefe0
 649.666666667 657 677.5 647.833333333 702.5 629.5 c 0
 727.5 611.166666667 747.333333333 583.333333333 762 546 c 0
 776.666666667 508.666666667 784 461.333333333 784 404 c 0
 784 335.333333333 775.666666667 279.666666667 759 237 c 0
 742.333333333 194.333333333 720.5 163.333333333 693.5 144 c 0
 666.5 124.666666667 637.333333333 115 606 115 c 0
625 386 m 0
 638.333333333 386 652.666666667 391 668 401 c 0
 683.333333333 411 697.333333333 428 710 452 c 1
 706 499.333333333 696.166666667 534.833333333 680.5 558.5 c 0
 664.833333333 582.166666667 644.333333333 594 619 594 c 0
 600.333333333 594 584 584.333333333 570 565 c 0
 556 545.666666667 549 520.333333333 549 489 c 256
 549 457.666666667 555.5 432.666666667 568.5 414 c 0
 581.5 395.333333333 600.333333333 386 625 386 c 0
EndSplineSet
Validated: 1
EndChar

StartChar: uni2473
Encoding: 9331 9331 19
Width: 1000
Flags: W
HStem: -86 32<381.703 618.195> 115 67<632.469 714.396> 127 70<311.563 499> 591 66<274.742 384.541 631.041 714.813> 814 32<382.541 618.297>
VStem: 34 32<261.703 496.46> 407 74<412.374 566.656> 514 78<235.641 539.16> 754 79<235.641 539.16> 934 32<262.659 498.297>
LayerCount: 2
Fore
SplineSet
500 -86 m 256x9fc0
 436 -86 375.833333333 -73.8333333333 319.5 -49.5 c 0
 263.166666667 -25.1666666667 213.666666667 8.33333333333 171 51 c 0
 128.333333333 93.6666666667 94.8333333333 143.166666667 70.5 199.5 c 0
 46.1666666667 255.833333333 34 316 34 380 c 256
 34 444 46.1666666667 504.166666667 70.5 560.5 c 0
 94.8333333333 616.833333333 128.333333333 666.333333333 171 709 c 0
 213.666666667 751.666666667 263.166666667 785.166666667 319.5 809.5 c 0
 375.833333333 833.833333333 436 846 500 846 c 256
 564 846 624.166666667 833.833333333 680.5 809.5 c 0
 736.833333333 785.166666667 786.333333333 751.666666667 829 709 c 0
 871.666666667 666.333333333 905.166666667 616.833333333 929.5 560.5 c 0
 953.833333333 504.166666667 966 444 966 380 c 0
 966 315.333333333 953.833333333 254.833333333 929.5 198.5 c 0
 905.166666667 142.166666667 871.5 92.6666666667 828.5 50 c 0
 785.5 7.33333333333 736 -26 680 -50 c 0
 624 -74 564 -86 500 -86 c 256x9fc0
500 -54 m 256
 560 -54 616.166666667 -42.8333333333 668.5 -20.5 c 0
 720.833333333 1.83333333333 767 33 807 73 c 0
 847 113 878.166666667 159.166666667 900.5 211.5 c 0
 922.833333333 263.833333333 934 320 934 380 c 256
 934 440 922.833333333 496.166666667 900.5 548.5 c 0
 878.166666667 600.833333333 847 647 807 687 c 0
 767 727 720.833333333 758.166666667 668.5 780.5 c 0
 616.166666667 802.833333333 560 814 500 814 c 0
 439.333333333 814 382.833333333 802.666666667 330.5 780 c 0
 278.166666667 757.333333333 232.166666667 726 192.5 686 c 0
 152.833333333 646 121.833333333 599.833333333 99.5 547.5 c 0
 77.1666666667 495.166666667 66 439.333333333 66 380 c 0
 66 320 77.1666666667 263.833333333 99.5 211.5 c 0
 121.833333333 159.166666667 153 113 193 73 c 0
 233 33 279.166666667 1.83333333333 331.5 -20.5 c 0
 383.833333333 -42.8333333333 440 -54 500 -54 c 256
205 127 m 1xbfc0
 205 175 l 1
 268.333333333 248.333333333 317.833333333 310 353.5 360 c 0
 389.166666667 410 407 455.333333333 407 496 c 0
 407 525.333333333 400.666666667 548.5 388 565.5 c 0
 375.333333333 582.5 356.333333333 591 331 591 c 0
 313.666666667 591 297.666666667 585.833333333 283 575.5 c 0
 268.333333333 565.166666667 255 552.333333333 243 537 c 1
 199 580 l 1
 219 605.333333333 240.833333333 624.5 264.5 637.5 c 0
 288.166666667 650.5 313.666666667 657 341 657 c 0
 384.333333333 657 418.5 642.833333333 443.5 614.5 c 0
 468.5 586.166666667 481 548.666666667 481 502 c 0
 481 470 473.333333333 437.666666667 458 405 c 0
 442.666666667 372.333333333 422.166666667 338.5 396.5 303.5 c 0
 370.833333333 268.5 342.333333333 231.666666667 311 193 c 1
 323 194.333333333 336 195.333333333 350 196 c 0
 364 196.666666667 377.666666667 197 391 197 c 2
 499 197 l 1
 499 127 l 1
 205 127 l 1xbfc0
674 115 m 0xdfc0
 625.333333333 115 586.5 139.333333333 557.5 188 c 0
 528.5 236.666666667 514 303.333333333 514 388 c 256
 514 472.666666667 528.5 538.666666667 557.5 586 c 0
 586.5 633.333333333 625.333333333 657 674 657 c 0
 722 657 760.5 633.333333333 789.5 586 c 0
 818.5 538.666666667 833 472.666666667 833 388 c 256
 833 303.333333333 818.5 236.666666667 789.5 188 c 0
 760.5 139.333333333 722 115 674 115 c 0xdfc0
674 182 m 0
 697.333333333 182 716.5 198.666666667 731.5 232 c 0
 746.5 265.333333333 754 317.333333333 754 388 c 256
 754 458.666666667 746.5 510.166666667 731.5 542.5 c 0
 716.5 574.833333333 697.333333333 591 674 591 c 0
 649.333333333 591 629.5 574.833333333 614.5 542.5 c 0
 599.5 510.166666667 592 458.666666667 592 388 c 256
 592 317.333333333 599.5 265.333333333 614.5 232 c 0
 629.5 198.666666667 649.333333333 182 674 182 c 0
EndSplineSet
Validated: 1
EndChar

StartChar: uni24EA
Encoding: 9450 9450 20
Width: 1000
Flags: W
HStem: -86 32<381.703 618.195> 115 67<441.253 557.169> 591 66<440.658 557.769> 814 32<382.541 618.297>
VStem: 34 32<261.703 496.46> 301 84<252.056 523.058> 614 85<252.995 522.139> 934 32<262.659 498.297>
LayerCount: 2
Fore
SplineSet
500 -86 m 256
 436 -86 375.833333333 -73.8333333333 319.5 -49.5 c 0
 263.166666667 -25.1666666667 213.666666667 8.33333333333 171 51 c 0
 128.333333333 93.6666666667 94.8333333333 143.166666667 70.5 199.5 c 0
 46.1666666667 255.833333333 34 316 34 380 c 256
 34 444 46.1666666667 504.166666667 70.5 560.5 c 0
 94.8333333333 616.833333333 128.333333333 666.333333333 171 709 c 0
 213.666666667 751.666666667 263.166666667 785.166666667 319.5 809.5 c 0
 375.833333333 833.833333333 436 846 500 846 c 256
 564 846 624.166666667 833.833333333 680.5 809.5 c 0
 736.833333333 785.166666667 786.333333333 751.666666667 829 709 c 0
 871.666666667 666.333333333 905.166666667 616.833333333 929.5 560.5 c 0
 953.833333333 504.166666667 966 444 966 380 c 0
 966 315.333333333 953.833333333 254.833333333 929.5 198.5 c 0
 905.166666667 142.166666667 871.5 92.6666666667 828.5 50 c 0
 785.5 7.33333333333 736 -26 680 -50 c 0
 624 -74 564 -86 500 -86 c 256
500 -54 m 256
 560 -54 616.166666667 -42.8333333333 668.5 -20.5 c 0
 720.833333333 1.83333333333 767 33 807 73 c 0
 847 113 878.166666667 159.166666667 900.5 211.5 c 0
 922.833333333 263.833333333 934 320 934 380 c 256
 934 440 922.833333333 496.166666667 900.5 548.5 c 0
 878.166666667 600.833333333 847 647 807 687 c 0
 767 727 720.833333333 758.166666667 668.5 780.5 c 0
 616.166666667 802.833333333 560 814 500 814 c 0
 439.333333333 814 382.833333333 802.666666667 330.5 780 c 0
 278.166666667 757.333333333 232.166666667 726 192.5 686 c 0
 152.833333333 646 121.833333333 599.833333333 99.5 547.5 c 0
 77.1666666667 495.166666667 66 439.333333333 66 380 c 0
 66 320 77.1666666667 263.833333333 99.5 211.5 c 0
 121.833333333 159.166666667 153 113 193 73 c 0
 233 33 279.166666667 1.83333333333 331.5 -20.5 c 0
 383.833333333 -42.8333333333 440 -54 500 -54 c 256
499 115 m 0
 439 115 391 139.333333333 355 188 c 0
 319 236.666666667 301 303.333333333 301 388 c 256
 301 472.666666667 319 538.666666667 355 586 c 0
 391 633.333333333 439 657 499 657 c 0
 559.666666667 657 608.166666667 633.333333333 644.5 586 c 0
 680.833333333 538.666666667 699 472.666666667 699 388 c 256
 699 303.333333333 680.833333333 236.666666667 644.5 188 c 0
 608.166666667 139.333333333 559.666666667 115 499 115 c 0
499 182 m 256
 532.333333333 182 559.833333333 198.666666667 581.5 232 c 0
 603.166666667 265.333333333 614 317.333333333 614 388 c 256
 614 458.666666667 603.166666667 510.166666667 581.5 542.5 c 0
 559.833333333 574.833333333 532.333333333 591 499 591 c 256
 465.666666667 591 438.333333333 574.833333333 417 542.5 c 0
 395.666666667 510.166666667 385 458.666666667 385 388 c 256
 385 317.333333333 395.666666667 265.333333333 417 232 c 0
 438.333333333 198.666666667 465.666666667 182 499 182 c 256
EndSplineSet
Validated: 1
EndChar

StartChar: uni3251
Encoding: 12881 12881 21
Width: 1000
Flags: W
HStem: -86 32<381.703 618.195> 127 70<338.532 525> 551 53<563 630.309> 591 66<302.005 410.573> 814 32<382.541 618.297>
VStem: 34 32<261.703 496.46> 433 75<412.374 566.656> 648 77<127 551> 934 32<262.659 498.297>
LayerCount: 2
Fore
SplineSet
500 -86 m 256xcf80
 436 -86 375.833333333 -73.8333333333 319.5 -49.5 c 0
 263.166666667 -25.1666666667 213.666666667 8.33333333333 171 51 c 0
 128.333333333 93.6666666667 94.8333333333 143.166666667 70.5 199.5 c 0
 46.1666666667 255.833333333 34 316 34 380 c 256
 34 444 46.1666666667 504.166666667 70.5 560.5 c 0
 94.8333333333 616.833333333 128.333333333 666.333333333 171 709 c 0
 213.666666667 751.666666667 263.166666667 785.166666667 319.5 809.5 c 0
 375.833333333 833.833333333 436 846 500 846 c 256
 564 846 624.166666667 833.833333333 680.5 809.5 c 0
 736.833333333 785.166666667 786.333333333 751.666666667 829 709 c 0
 871.666666667 666.333333333 905.166666667 616.833333333 929.5 560.5 c 0
 953.833333333 504.166666667 966 444 966 380 c 0
 966 315.333333333 953.833333333 254.833333333 929.5 198.5 c 0
 905.166666667 142.166666667 871.5 92.6666666667 828.5 50 c 0
 785.5 7.33333333333 736 -26 680 -50 c 0
 624 -74 564 -86 500 -86 c 256xcf80
500 -54 m 256
 560 -54 616.166666667 -42.8333333333 668.5 -20.5 c 0
 720.833333333 1.83333333333 767 33 807 73 c 0
 847 113 878.166666667 159.166666667 900.5 211.5 c 0
 922.833333333 263.833333333 934 320 934 380 c 256
 934 440 922.833333333 496.166666667 900.5 548.5 c 0
 878.166666667 600.833333333 847 647 807 687 c 0
 767 727 720.833333333 758.166666667 668.5 780.5 c 0
 616.166666667 802.833333333 560 814 500 814 c 0
 439.333333333 814 382.833333333 802.666666667 330.5 780 c 0
 278.166666667 757.333333333 232.166666667 726 192.5 686 c 0
 152.833333333 646 121.833333333 599.833333333 99.5 547.5 c 0
 77.1666666667 495.166666667 66 439.333333333 66 380 c 0
 66 320 77.1666666667 263.833333333 99.5 211.5 c 0
 121.833333333 159.166666667 153 113 193 73 c 0
 233 33 279.166666667 1.83333333333 331.5 -20.5 c 0
 383.833333333 -42.8333333333 440 -54 500 -54 c 256
232 127 m 1
 232 175 l 1
 295.333333333 248.333333333 344.666666667 310 380 360 c 0
 415.333333333 410 433 455.333333333 433 496 c 0
 433 525.333333333 426.666666667 548.5 414 565.5 c 0
 401.333333333 582.5 382.333333333 591 357 591 c 0
 340.333333333 591 324.666666667 585.833333333 310 575.5 c 0
 295.333333333 565.166666667 282.333333333 552.333333333 271 537 c 1
 227 580 l 1
 246.333333333 604.666666667 267.666666667 623.666666667 291 637 c 0
 314.333333333 650.333333333 339.666666667 657 367 657 c 0xdf80
 410.333333333 657 444.666666667 642.833333333 470 614.5 c 0
 495.333333333 586.166666667 508 548.666666667 508 502 c 0
 508 470 500.333333333 437.666666667 485 405 c 0
 469.666666667 372.333333333 449.166666667 338.5 423.5 303.5 c 0
 397.833333333 268.5 369.333333333 231.666666667 338 193 c 1
 349.333333333 194.333333333 362.166666667 195.333333333 376.5 196 c 0
 390.833333333 196.666666667 404.666666667 197 418 197 c 2
 525 197 l 1
 525 127 l 1
 232 127 l 1
648 127 m 1
 648 551 l 1
 563 551 l 1
 563 604 l 1xef80
 585 608.666666667 604.166666667 614.5 620.5 621.5 c 0
 636.833333333 628.5 652 636.333333333 666 645 c 1
 725 645 l 1
 725 127 l 1
 648 127 l 1
EndSplineSet
Validated: 1
EndChar

StartChar: uni3252
Encoding: 12882 12882 22
Width: 1000
Flags: W
HStem: -86 32<381.703 618.195> 127 70<297.563 482 623.563 808> 591 66<260.34 368.037 586.518 694.037> 814 32<382.541 618.297>
VStem: 34 32<261.703 496.46> 390 74<411.61 566.656> 716 74<411.61 566.656> 934 32<262.659 498.297>
LayerCount: 2
Fore
SplineSet
500 -86 m 256
 436 -86 375.833333333 -73.8333333333 319.5 -49.5 c 0
 263.166666667 -25.1666666667 213.666666667 8.33333333333 171 51 c 0
 128.333333333 93.6666666667 94.8333333333 143.166666667 70.5 199.5 c 0
 46.1666666667 255.833333333 34 316 34 380 c 256
 34 444 46.1666666667 504.166666667 70.5 560.5 c 0
 94.8333333333 616.833333333 128.333333333 666.333333333 171 709 c 0
 213.666666667 751.666666667 263.166666667 785.166666667 319.5 809.5 c 0
 375.833333333 833.833333333 436 846 500 846 c 256
 564 846 624.166666667 833.833333333 680.5 809.5 c 0
 736.833333333 785.166666667 786.333333333 751.666666667 829 709 c 0
 871.666666667 666.333333333 905.166666667 616.833333333 929.5 560.5 c 0
 953.833333333 504.166666667 966 444 966 380 c 0
 966 315.333333333 953.833333333 254.833333333 929.5 198.5 c 0
 905.166666667 142.166666667 871.5 92.6666666667 828.5 50 c 0
 785.5 7.33333333333 736 -26 680 -50 c 0
 624 -74 564 -86 500 -86 c 256
500 -54 m 256
 560 -54 616.166666667 -42.8333333333 668.5 -20.5 c 0
 720.833333333 1.83333333333 767 33 807 73 c 0
 847 113 878.166666667 159.166666667 900.5 211.5 c 0
 922.833333333 263.833333333 934 320 934 380 c 256
 934 440 922.833333333 496.166666667 900.5 548.5 c 0
 878.166666667 600.833333333 847 647 807 687 c 0
 767 727 720.833333333 758.166666667 668.5 780.5 c 0
 616.166666667 802.833333333 560 814 500 814 c 0
 439.333333333 814 382.833333333 802.666666667 330.5 780 c 0
 278.166666667 757.333333333 232.166666667 726 192.5 686 c 0
 152.833333333 646 121.833333333 599.833333333 99.5 547.5 c 0
 77.1666666667 495.166666667 66 439.333333333 66 380 c 0
 66 320 77.1666666667 263.833333333 99.5 211.5 c 0
 121.833333333 159.166666667 153 113 193 73 c 0
 233 33 279.166666667 1.83333333333 331.5 -20.5 c 0
 383.833333333 -42.8333333333 440 -54 500 -54 c 256
191 127 m 1
 191 175 l 1
 254.333333333 248.333333333 303.333333333 310 338 360 c 0
 372.666666667 410 390 455.333333333 390 496 c 0
 390 525.333333333 383.833333333 548.5 371.5 565.5 c 0
 359.166666667 582.5 340.666666667 591 316 591 c 0
 298.666666667 591 282.833333333 585.833333333 268.5 575.5 c 0
 254.166666667 565.166666667 241.333333333 552.333333333 230 537 c 1
 185 580 l 1
 204.333333333 604.666666667 225.666666667 623.666666667 249 637 c 0
 272.333333333 650.333333333 297.666666667 657 325 657 c 0
 367.666666667 657 401.5 642.833333333 426.5 614.5 c 0
 451.5 586.166666667 464 548.666666667 464 502 c 0
 464 470 456.5 437.666666667 441.5 405 c 0
 426.5 372.333333333 406.5 338.5 381.5 303.5 c 0
 356.5 268.5 328.333333333 231.666666667 297 193 c 1
 309 194.333333333 322 195.333333333 336 196 c 0
 350 196.666666667 364 197 378 197 c 2
 482 197 l 1
 482 127 l 1
 191 127 l 1
517 127 m 1
 517 175 l 1
 580.333333333 248.333333333 629.333333333 310 664 360 c 0
 698.666666667 410 716 455.333333333 716 496 c 0
 716 525.333333333 709.833333333 548.5 697.5 565.5 c 0
 685.166666667 582.5 666.666666667 591 642 591 c 0
 624.666666667 591 608.833333333 585.833333333 594.5 575.5 c 0
 580.166666667 565.166666667 567.333333333 552.333333333 556 537 c 1
 512 580 l 1
 531.333333333 604.666666667 552.5 623.666666667 575.5 637 c 0
 598.5 650.333333333 623.666666667 657 651 657 c 0
 693.666666667 657 727.5 642.833333333 752.5 614.5 c 0
 777.5 586.166666667 790 548.666666667 790 502 c 0
 790 470 782.5 437.666666667 767.5 405 c 0
 752.5 372.333333333 732.5 338.5 707.5 303.5 c 0
 682.5 268.5 654.333333333 231.666666667 623 193 c 1
 635 194.333333333 648.166666667 195.333333333 662.5 196 c 0
 676.833333333 196.666666667 690.666666667 197 704 197 c 2
 808 197 l 1
 808 127 l 1
 517 127 l 1
EndSplineSet
Validated: 1
EndChar

StartChar: uni3253
Encoding: 12883 12883 23
Width: 1000
Flags: W
HStem: -86 32<381.703 618.195> 115 66<581.921 709.179> 127 70<297.563 485> 365 61<599 688.438> 591 66<261.632 369.861 585.078 700.14> 814 32<382.541 618.297>
VStem: 34 32<261.703 496.46> 392 75<412.374 566.656> 719 78<456.126 572.203> 735 78<207.354 331.094> 934 32<262.659 498.297>
LayerCount: 2
Fore
SplineSet
500 -86 m 256x9f20
 436 -86 375.833333333 -73.8333333333 319.5 -49.5 c 0
 263.166666667 -25.1666666667 213.666666667 8.33333333333 171 51 c 0
 128.333333333 93.6666666667 94.8333333333 143.166666667 70.5 199.5 c 0
 46.1666666667 255.833333333 34 316 34 380 c 256
 34 444 46.1666666667 504.166666667 70.5 560.5 c 0
 94.8333333333 616.833333333 128.333333333 666.333333333 171 709 c 0
 213.666666667 751.666666667 263.166666667 785.166666667 319.5 809.5 c 0
 375.833333333 833.833333333 436 846 500 846 c 256
 564 846 624.166666667 833.833333333 680.5 809.5 c 0
 736.833333333 785.166666667 786.333333333 751.666666667 829 709 c 0
 871.666666667 666.333333333 905.166666667 616.833333333 929.5 560.5 c 0
 953.833333333 504.166666667 966 444 966 380 c 0
 966 315.333333333 953.833333333 254.833333333 929.5 198.5 c 0
 905.166666667 142.166666667 871.5 92.6666666667 828.5 50 c 0
 785.5 7.33333333333 736 -26 680 -50 c 0
 624 -74 564 -86 500 -86 c 256x9f20
500 -54 m 256
 560 -54 616.166666667 -42.8333333333 668.5 -20.5 c 0
 720.833333333 1.83333333333 767 33 807 73 c 0
 847 113 878.166666667 159.166666667 900.5 211.5 c 0
 922.833333333 263.833333333 934 320 934 380 c 256
 934 440 922.833333333 496.166666667 900.5 548.5 c 0
 878.166666667 600.833333333 847 647 807 687 c 0
 767 727 720.833333333 758.166666667 668.5 780.5 c 0
 616.166666667 802.833333333 560 814 500 814 c 0
 439.333333333 814 382.833333333 802.666666667 330.5 780 c 0
 278.166666667 757.333333333 232.166666667 726 192.5 686 c 0
 152.833333333 646 121.833333333 599.833333333 99.5 547.5 c 0
 77.1666666667 495.166666667 66 439.333333333 66 380 c 0
 66 320 77.1666666667 263.833333333 99.5 211.5 c 0
 121.833333333 159.166666667 153 113 193 73 c 0
 233 33 279.166666667 1.83333333333 331.5 -20.5 c 0
 383.833333333 -42.8333333333 440 -54 500 -54 c 256
191 127 m 1xbf20
 191 175 l 1
 254.333333333 248.333333333 303.666666667 310 339 360 c 0
 374.333333333 410 392 455.333333333 392 496 c 0
 392 525.333333333 385.833333333 548.5 373.5 565.5 c 0
 361.166666667 582.5 342.333333333 591 317 591 c 0
 299.666666667 591 283.833333333 585.833333333 269.5 575.5 c 0
 255.166666667 565.166666667 242 552.333333333 230 537 c 1
 185 580 l 1
 205 604.666666667 226.833333333 623.666666667 250.5 637 c 0
 274.166666667 650.333333333 299.333333333 657 326 657 c 0
 369.333333333 657 403.666666667 642.833333333 429 614.5 c 0
 454.333333333 586.166666667 467 548.666666667 467 502 c 0
 467 470 459.333333333 437.666666667 444 405 c 0
 428.666666667 372.333333333 408.166666667 338.5 382.5 303.5 c 0
 356.833333333 268.5 328.333333333 231.666666667 297 193 c 1
 309 194.333333333 322 195.333333333 336 196 c 0
 350 196.666666667 364 197 378 197 c 2
 485 197 l 1
 485 127 l 1
 191 127 l 1xbf20
655 115 m 0xdf60
 621 115 591.333333333 121.833333333 566 135.5 c 0
 540.666666667 149.166666667 520.333333333 165.666666667 505 185 c 1
 544 235 l 1
 558 220.333333333 573.5 207.666666667 590.5 197 c 0xbf60
 607.5 186.333333333 628 181 652 181 c 256
 676 181 695.833333333 189 711.5 205 c 0
 727.166666667 221 735 242.333333333 735 269 c 0xdf60
 735 298.333333333 725.333333333 321.666666667 706 339 c 0
 686.666666667 356.333333333 651 365 599 365 c 1
 599 426 l 1
 643.666666667 426 674.833333333 434.333333333 692.5 451 c 0
 710.166666667 467.666666667 719 489 719 515 c 0
 719 539 712.5 557.833333333 699.5 571.5 c 0
 686.5 585.166666667 669.333333333 592 648 592 c 0
 616 592 587.333333333 577 562 547 c 1
 519 595 l 1
 537.666666667 614.333333333 558.166666667 629.5 580.5 640.5 c 0
 602.833333333 651.5 627.333333333 657 654 657 c 0
 696 657 730.333333333 645.166666667 757 621.5 c 0
 783.666666667 597.833333333 797 564 797 520 c 0xdfa0
 797 490 789.666666667 465.333333333 775 446 c 0
 760.333333333 426.666666667 740.666666667 411.333333333 716 400 c 1
 716 397 l 1
 743.333333333 388.333333333 766.333333333 373 785 351 c 0
 803.666666667 329 813 300.333333333 813 265 c 0
 813 234.333333333 805.833333333 207.666666667 791.5 185 c 0
 777.166666667 162.333333333 758.166666667 145 734.5 133 c 0
 710.833333333 121 684.333333333 115 655 115 c 0xdf60
EndSplineSet
Validated: 1
EndChar

StartChar: uni3254
Encoding: 12884 12884 24
Width: 1000
Flags: W
HStem: -86 32<381.703 618.195> 127 70<297.563 482> 265 63<565 686 759 817> 591 66<260.518 367.825> 814 32<382.541 618.297>
VStem: 34 32<261.703 496.46> 389 75<411.61 567.518> 686 73<127 265 328 564> 934 32<262.659 498.297>
LayerCount: 2
Fore
SplineSet
500 -86 m 256
 436 -86 375.833333333 -73.8333333333 319.5 -49.5 c 0
 263.166666667 -25.1666666667 213.666666667 8.33333333333 171 51 c 0
 128.333333333 93.6666666667 94.8333333333 143.166666667 70.5 199.5 c 0
 46.1666666667 255.833333333 34 316 34 380 c 256
 34 444 46.1666666667 504.166666667 70.5 560.5 c 0
 94.8333333333 616.833333333 128.333333333 666.333333333 171 709 c 0
 213.666666667 751.666666667 263.166666667 785.166666667 319.5 809.5 c 0
 375.833333333 833.833333333 436 846 500 846 c 256
 564 846 624.166666667 833.833333333 680.5 809.5 c 0
 736.833333333 785.166666667 786.333333333 751.666666667 829 709 c 0
 871.666666667 666.333333333 905.166666667 616.833333333 929.5 560.5 c 0
 953.833333333 504.166666667 966 444 966 380 c 0
 966 315.333333333 953.833333333 254.833333333 929.5 198.5 c 0
 905.166666667 142.166666667 871.5 92.6666666667 828.5 50 c 0
 785.5 7.33333333333 736 -26 680 -50 c 0
 624 -74 564 -86 500 -86 c 256
500 -54 m 256
 560 -54 616.166666667 -42.8333333333 668.5 -20.5 c 0
 720.833333333 1.83333333333 767 33 807 73 c 0
 847 113 878.166666667 159.166666667 900.5 211.5 c 0
 922.833333333 263.833333333 934 320 934 380 c 256
 934 440 922.833333333 496.166666667 900.5 548.5 c 0
 878.166666667 600.833333333 847 647 807 687 c 0
 767 727 720.833333333 758.166666667 668.5 780.5 c 0
 616.166666667 802.833333333 560 814 500 814 c 0
 439.333333333 814 382.833333333 802.666666667 330.5 780 c 0
 278.166666667 757.333333333 232.166666667 726 192.5 686 c 0
 152.833333333 646 121.833333333 599.833333333 99.5 547.5 c 0
 77.1666666667 495.166666667 66 439.333333333 66 380 c 0
 66 320 77.1666666667 263.833333333 99.5 211.5 c 0
 121.833333333 159.166666667 153 113 193 73 c 0
 233 33 279.166666667 1.83333333333 331.5 -20.5 c 0
 383.833333333 -42.8333333333 440 -54 500 -54 c 256
191 127 m 1
 191 175 l 1
 254.333333333 248.333333333 303.166666667 310 337.5 360 c 0
 371.833333333 410 389 455.333333333 389 496 c 0
 389 525.333333333 383 548.5 371 565.5 c 0
 359 582.5 340.666666667 591 316 591 c 0
 298.666666667 591 282.833333333 585.833333333 268.5 575.5 c 0
 254.166666667 565.166666667 241.333333333 552.333333333 230 537 c 1
 185 580 l 1
 205 604.666666667 226.5 623.666666667 249.5 637 c 0
 272.5 650.333333333 297.666666667 657 325 657 c 0
 367.666666667 657 401.5 642.833333333 426.5 614.5 c 0
 451.5 586.166666667 464 548.666666667 464 502 c 0
 464 470 456.5 437.666666667 441.5 405 c 0
 426.5 372.333333333 406.5 338.5 381.5 303.5 c 0
 356.5 268.5 328.333333333 231.666666667 297 193 c 1
 309 194.333333333 322 195.333333333 336 196 c 0
 350 196.666666667 364 197 378 197 c 2
 482 197 l 1
 482 127 l 1
 191 127 l 1
686 127 m 1
 686 265 l 1
 493 265 l 1
 493 320 l 1
 669 645 l 1
 759 645 l 1
 759 328 l 1
 817 328 l 1
 817 265 l 1
 759 265 l 1
 759 127 l 1
 686 127 l 1
565 328 m 1
 686 328 l 1
 686 460 l 2
 686 474.666666667 686.5 492 687.5 512 c 0
 688.5 532 689.333333333 549.333333333 690 564 c 1
 686 564 l 1
 680.666666667 550 675.666666667 538.333333333 671 529 c 0
 666.333333333 519.666666667 660.666666667 507.666666667 654 493 c 2
 565 328 l 1
EndSplineSet
Validated: 1
EndChar

StartChar: uni3255
Encoding: 12885 12885 25
Width: 1000
Flags: W
HStem: -86 32<381.703 618.195> 115 66<577.98 700.5> 127 70<294.532 479> 398 58<610.469 703.143> 575 70<618 789> 591 66<257.518 365.034> 814 32<382.541 618.297>
VStem: 34 32<261.703 496.46> 387 74<411.61 566.656> 734 77<216.219 365.744> 934 32<262.659 498.297>
LayerCount: 2
Fore
SplineSet
500 -86 m 256x93e0
 436 -86 375.833333333 -73.8333333333 319.5 -49.5 c 0
 263.166666667 -25.1666666667 213.666666667 8.33333333333 171 51 c 0
 128.333333333 93.6666666667 94.8333333333 143.166666667 70.5 199.5 c 0
 46.1666666667 255.833333333 34 316 34 380 c 256
 34 444 46.1666666667 504.166666667 70.5 560.5 c 0
 94.8333333333 616.833333333 128.333333333 666.333333333 171 709 c 0
 213.666666667 751.666666667 263.166666667 785.166666667 319.5 809.5 c 0
 375.833333333 833.833333333 436 846 500 846 c 256
 564 846 624.166666667 833.833333333 680.5 809.5 c 0
 736.833333333 785.166666667 786.333333333 751.666666667 829 709 c 0
 871.666666667 666.333333333 905.166666667 616.833333333 929.5 560.5 c 0
 953.833333333 504.166666667 966 444 966 380 c 0
 966 315.333333333 953.833333333 254.833333333 929.5 198.5 c 0
 905.166666667 142.166666667 871.5 92.6666666667 828.5 50 c 0
 785.5 7.33333333333 736 -26 680 -50 c 0
 624 -74 564 -86 500 -86 c 256x93e0
500 -54 m 256
 560 -54 616.166666667 -42.8333333333 668.5 -20.5 c 0
 720.833333333 1.83333333333 767 33 807 73 c 0
 847 113 878.166666667 159.166666667 900.5 211.5 c 0
 922.833333333 263.833333333 934 320 934 380 c 256
 934 440 922.833333333 496.166666667 900.5 548.5 c 0
 878.166666667 600.833333333 847 647 807 687 c 0
 767 727 720.833333333 758.166666667 668.5 780.5 c 0
 616.166666667 802.833333333 560 814 500 814 c 0
 439.333333333 814 382.833333333 802.666666667 330.5 780 c 0
 278.166666667 757.333333333 232.166666667 726 192.5 686 c 0
 152.833333333 646 121.833333333 599.833333333 99.5 547.5 c 0
 77.1666666667 495.166666667 66 439.333333333 66 380 c 0
 66 320 77.1666666667 263.833333333 99.5 211.5 c 0
 121.833333333 159.166666667 153 113 193 73 c 0
 233 33 279.166666667 1.83333333333 331.5 -20.5 c 0
 383.833333333 -42.8333333333 440 -54 500 -54 c 256
188 127 m 1xb7e0
 188 175 l 1
 251.333333333 248.333333333 300.333333333 310 335 360 c 0
 369.666666667 410 387 455.333333333 387 496 c 0
 387 525.333333333 380.833333333 548.5 368.5 565.5 c 0
 356.166666667 582.5 337.333333333 591 312 591 c 0
 295.333333333 591 279.833333333 585.833333333 265.5 575.5 c 0
 251.166666667 565.166666667 238.333333333 552.333333333 227 537 c 1
 183 580 l 1
 202.333333333 604.666666667 223.5 623.666666667 246.5 637 c 0
 269.5 650.333333333 294.666666667 657 322 657 c 0
 364.666666667 657 398.5 642.833333333 423.5 614.5 c 0
 448.5 586.166666667 461 548.666666667 461 502 c 0
 461 470 453.5 437.666666667 438.5 405 c 0
 423.5 372.333333333 403.5 338.5 378.5 303.5 c 0
 353.5 268.5 325.333333333 231.666666667 294 193 c 1
 305.333333333 194.333333333 318.333333333 195.333333333 333 196 c 0
 347.666666667 196.666666667 361.333333333 197 374 197 c 2
 479 197 l 1
 479 127 l 1
 188 127 l 1xb7e0
654 115 m 0xd3e0
 618 115 588 122 564 136 c 0
 540 150 519.666666667 166 503 184 c 1
 539 237 l 1
 552.333333333 223 567.333333333 210.166666667 584 198.5 c 0
 600.666666667 186.833333333 621.333333333 181 646 181 c 256xd3e0
 670.666666667 181 691.5 191 708.5 211 c 0
 725.5 231 734 257.666666667 734 291 c 0
 734 323.666666667 726 349.666666667 710 369 c 0
 694 388.333333333 673.333333333 398 648 398 c 0
 634 398 621.666666667 394.833333333 611 388.5 c 0
 600.333333333 382.166666667 589 374 577 364 c 1
 540 390 l 1
 553 645 l 1
 789 645 l 1
 789 575 l 1
 618 575 l 1
 610 435 l 1
 619.333333333 440.333333333 629.333333333 445.166666667 640 449.5 c 0
 650.666666667 453.833333333 661.666666667 456 673 456 c 0
 710.333333333 456 742.666666667 442.666666667 770 416 c 0
 797.333333333 389.333333333 811 348.333333333 811 293 c 0
 811 255.666666667 803.5 223.666666667 788.5 197 c 0xbbe0
 773.5 170.333333333 754.166666667 150 730.5 136 c 0
 706.833333333 122 681.333333333 115 654 115 c 0xd3e0
EndSplineSet
Validated: 1
EndChar

StartChar: uni3256
Encoding: 12886 12886 26
Width: 1000
Flags: W
HStem: -86 32<381.703 618.195> 115 64<623.78 717.44> 127 70<294.532 479> 385 61<623.677 718.951> 591 66<257.518 365.034 637.014 745.764> 814 32<382.541 618.297>
VStem: 34 32<261.703 496.46> 387 74<411.61 566.656> 509 72<381 518.008> 743 72<207.17 358.301> 934 32<262.659 498.297>
LayerCount: 2
Fore
SplineSet
500 -86 m 256x9fe0
 436 -86 375.833333333 -73.8333333333 319.5 -49.5 c 0
 263.166666667 -25.1666666667 213.666666667 8.33333333333 171 51 c 0
 128.333333333 93.6666666667 94.8333333333 143.166666667 70.5 199.5 c 0
 46.1666666667 255.833333333 34 316 34 380 c 256
 34 444 46.1666666667 504.166666667 70.5 560.5 c 0
 94.8333333333 616.833333333 128.333333333 666.333333333 171 709 c 0
 213.666666667 751.666666667 263.166666667 785.166666667 319.5 809.5 c 0
 375.833333333 833.833333333 436 846 500 846 c 256
 564 846 624.166666667 833.833333333 680.5 809.5 c 0
 736.833333333 785.166666667 786.333333333 751.666666667 829 709 c 0
 871.666666667 666.333333333 905.166666667 616.833333333 929.5 560.5 c 0
 953.833333333 504.166666667 966 444 966 380 c 0
 966 315.333333333 953.833333333 254.833333333 929.5 198.5 c 0
 905.166666667 142.166666667 871.5 92.6666666667 828.5 50 c 0
 785.5 7.33333333333 736 -26 680 -50 c 0
 624 -74 564 -86 500 -86 c 256x9fe0
500 -54 m 256
 560 -54 616.166666667 -42.8333333333 668.5 -20.5 c 0
 720.833333333 1.83333333333 767 33 807 73 c 0
 847 113 878.166666667 159.166666667 900.5 211.5 c 0
 922.833333333 263.833333333 934 320 934 380 c 256
 934 440 922.833333333 496.166666667 900.5 548.5 c 0
 878.166666667 600.833333333 847 647 807 687 c 0
 767 727 720.833333333 758.166666667 668.5 780.5 c 0
 616.166666667 802.833333333 560 814 500 814 c 0
 439.333333333 814 382.833333333 802.666666667 330.5 780 c 0
 278.166666667 757.333333333 232.166666667 726 192.5 686 c 0
 152.833333333 646 121.833333333 599.833333333 99.5 547.5 c 0
 77.1666666667 495.166666667 66 439.333333333 66 380 c 0
 66 320 77.1666666667 263.833333333 99.5 211.5 c 0
 121.833333333 159.166666667 153 113 193 73 c 0
 233 33 279.166666667 1.83333333333 331.5 -20.5 c 0
 383.833333333 -42.8333333333 440 -54 500 -54 c 256
188 127 m 1xbfe0
 188 175 l 1
 251.333333333 248.333333333 300.333333333 310 335 360 c 0
 369.666666667 410 387 455.333333333 387 496 c 0
 387 525.333333333 380.833333333 548.5 368.5 565.5 c 0
 356.166666667 582.5 337.333333333 591 312 591 c 0
 295.333333333 591 279.833333333 585.833333333 265.5 575.5 c 0
 251.166666667 565.166666667 238.333333333 552.333333333 227 537 c 1
 183 580 l 1
 202.333333333 604.666666667 223.5 623.666666667 246.5 637 c 0
 269.5 650.333333333 294.666666667 657 322 657 c 0
 364.666666667 657 398.5 642.833333333 423.5 614.5 c 0
 448.5 586.166666667 461 548.666666667 461 502 c 0
 461 470 453.5 437.666666667 438.5 405 c 0
 423.5 372.333333333 403.5 338.5 378.5 303.5 c 0
 353.5 268.5 325.333333333 231.666666667 294 193 c 1
 305.333333333 194.333333333 318.333333333 195.333333333 333 196 c 0
 347.666666667 196.666666667 361.333333333 197 374 197 c 2
 479 197 l 1
 479 127 l 1
 188 127 l 1xbfe0
673 115 m 0xdfe0
 627 115 588.166666667 135.666666667 556.5 177 c 0
 524.833333333 218.333333333 509 282 509 368 c 0
 509 436.666666667 517.333333333 492.166666667 534 534.5 c 0
 550.666666667 576.833333333 572.666666667 607.833333333 600 627.5 c 0
 627.333333333 647.166666667 656.666666667 657 688 657 c 0
 715.333333333 657 738.666666667 651.5 758 640.5 c 0
 777.333333333 629.5 793.333333333 616 806 600 c 1
 766 549 l 1
 756.666666667 561 745.5 570.666666667 732.5 578 c 0
 719.5 585.333333333 705.333333333 589 690 589 c 0
 670.666666667 589 653 582.5 637 569.5 c 0
 621 556.5 608 534.833333333 598 504.5 c 0
 588 474.166666667 582.333333333 433 581 381 c 1
 595 401 611.333333333 416.833333333 630 428.5 c 0
 648.666666667 440.166666667 667.666666667 446 687 446 c 0
 725 446 755.833333333 432.5 779.5 405.5 c 0
 803.166666667 378.5 815 338 815 284 c 0
 815 250 808.666666667 220.333333333 796 195 c 0
 783.333333333 169.666666667 766.166666667 150 744.5 136 c 0
 722.833333333 122 699 115 673 115 c 0xdfe0
674 179 m 0
 693.333333333 179 709.666666667 188.5 723 207.5 c 0
 736.333333333 226.5 743 251.333333333 743 282 c 0
 743 313.333333333 736.666666667 338.333333333 724 357 c 0
 711.333333333 375.666666667 692.333333333 385 667 385 c 0
 654.333333333 385 640.5 380.166666667 625.5 370.5 c 0
 610.5 360.833333333 596.333333333 343.666666667 583 319 c 1
 587 271 597 235.666666667 613 213 c 0
 629 190.333333333 649.333333333 179 674 179 c 0
EndSplineSet
Validated: 1
EndChar

StartChar: uni3257
Encoding: 12887 12887 27
Width: 1000
Flags: W
HStem: -86 32<381.703 618.195> 127 70<311.563 495> 575 70<504 708> 591 66<274.5 381.825> 814 32<382.541 618.297>
VStem: 34 32<261.703 496.46> 403 75<411.61 567.518> 585 78<127 329.406> 934 32<262.659 498.297>
LayerCount: 2
Fore
SplineSet
500 -86 m 256xcf80
 436 -86 375.833333333 -73.8333333333 319.5 -49.5 c 0
 263.166666667 -25.1666666667 213.666666667 8.33333333333 171 51 c 0
 128.333333333 93.6666666667 94.8333333333 143.166666667 70.5 199.5 c 0
 46.1666666667 255.833333333 34 316 34 380 c 256
 34 444 46.1666666667 504.166666667 70.5 560.5 c 0
 94.8333333333 616.833333333 128.333333333 666.333333333 171 709 c 0
 213.666666667 751.666666667 263.166666667 785.166666667 319.5 809.5 c 0
 375.833333333 833.833333333 436 846 500 846 c 256
 564 846 624.166666667 833.833333333 680.5 809.5 c 0
 736.833333333 785.166666667 786.333333333 751.666666667 829 709 c 0
 871.666666667 666.333333333 905.166666667 616.833333333 929.5 560.5 c 0
 953.833333333 504.166666667 966 444 966 380 c 0
 966 315.333333333 953.833333333 254.833333333 929.5 198.5 c 0
 905.166666667 142.166666667 871.5 92.6666666667 828.5 50 c 0
 785.5 7.33333333333 736 -26 680 -50 c 0
 624 -74 564 -86 500 -86 c 256xcf80
500 -54 m 256
 560 -54 616.166666667 -42.8333333333 668.5 -20.5 c 0
 720.833333333 1.83333333333 767 33 807 73 c 0
 847 113 878.166666667 159.166666667 900.5 211.5 c 0
 922.833333333 263.833333333 934 320 934 380 c 256
 934 440 922.833333333 496.166666667 900.5 548.5 c 0
 878.166666667 600.833333333 847 647 807 687 c 0
 767 727 720.833333333 758.166666667 668.5 780.5 c 0
 616.166666667 802.833333333 560 814 500 814 c 0
 439.333333333 814 382.833333333 802.666666667 330.5 780 c 0
 278.166666667 757.333333333 232.166666667 726 192.5 686 c 0
 152.833333333 646 121.833333333 599.833333333 99.5 547.5 c 0
 77.1666666667 495.166666667 66 439.333333333 66 380 c 0
 66 320 77.1666666667 263.833333333 99.5 211.5 c 0
 121.833333333 159.166666667 153 113 193 73 c 0
 233 33 279.166666667 1.83333333333 331.5 -20.5 c 0
 383.833333333 -42.8333333333 440 -54 500 -54 c 256
205 127 m 1
 205 175 l 1
 268.333333333 248.333333333 317.166666667 310 351.5 360 c 0
 385.833333333 410 403 455.333333333 403 496 c 0
 403 525.333333333 397 548.5 385 565.5 c 0
 373 582.5 354.666666667 591 330 591 c 0
 312.666666667 591 296.833333333 585.833333333 282.5 575.5 c 0
 268.166666667 565.166666667 255 552.333333333 243 537 c 1
 199 580 l 1
 219 604.666666667 240.5 623.666666667 263.5 637 c 0
 286.5 650.333333333 311.666666667 657 339 657 c 0xdf80
 381.666666667 657 415.5 642.833333333 440.5 614.5 c 0
 465.5 586.166666667 478 548.666666667 478 502 c 0
 478 470 470.5 437.666666667 455.5 405 c 0
 440.5 372.333333333 420.5 338.5 395.5 303.5 c 0
 370.5 268.5 342.333333333 231.666666667 311 193 c 1
 323 194.333333333 336 195.333333333 350 196 c 0
 364 196.666666667 377.666666667 197 391 197 c 2
 495 197 l 1
 495 127 l 1
 205 127 l 1
585 127 m 1
 587.666666667 190.333333333 593 247 601 297 c 0
 609 347 621.5 394.166666667 638.5 438.5 c 0
 655.5 482.833333333 678.666666667 528.333333333 708 575 c 1
 504 575 l 1
 504 645 l 1
 795 645 l 1xef80
 795 595 l 1
 768.333333333 557 746.833333333 520.666666667 730.5 486 c 0
 714.166666667 451.333333333 701.5 416 692.5 380 c 0
 683.5 344 676.833333333 305.5 672.5 264.5 c 0
 668.166666667 223.5 665 177.666666667 663 127 c 1
 585 127 l 1
EndSplineSet
Validated: 1
EndChar

StartChar: uni3258
Encoding: 12888 12888 28
Width: 1000
Flags: W
HStem: -86 32<381.703 618.195> 115 60<619.69 736.547> 127 70<308.532 493> 591 66<271.518 379.034> 598 59<626.143 726.442> 814 32<382.541 618.297>
VStem: 34 32<261.703 496.46> 401 74<411.61 566.656> 519 69<205.93 333.713> 539 68<460.38 578.805> 748 66<441.676 574.902> 760 72<198.41 320.273> 934 32<262.659 498.297>
LayerCount: 2
Fore
SplineSet
500 -86 m 256x8708
 436 -86 375.833333333 -73.8333333333 319.5 -49.5 c 0
 263.166666667 -25.1666666667 213.666666667 8.33333333333 171 51 c 0
 128.333333333 93.6666666667 94.8333333333 143.166666667 70.5 199.5 c 0
 46.1666666667 255.833333333 34 316 34 380 c 256
 34 444 46.1666666667 504.166666667 70.5 560.5 c 0
 94.8333333333 616.833333333 128.333333333 666.333333333 171 709 c 0
 213.666666667 751.666666667 263.166666667 785.166666667 319.5 809.5 c 0
 375.833333333 833.833333333 436 846 500 846 c 256
 564 846 624.166666667 833.833333333 680.5 809.5 c 0
 736.833333333 785.166666667 786.333333333 751.666666667 829 709 c 0
 871.666666667 666.333333333 905.166666667 616.833333333 929.5 560.5 c 0
 953.833333333 504.166666667 966 444 966 380 c 0
 966 315.333333333 953.833333333 254.833333333 929.5 198.5 c 0
 905.166666667 142.166666667 871.5 92.6666666667 828.5 50 c 0
 785.5 7.33333333333 736 -26 680 -50 c 0
 624 -74 564 -86 500 -86 c 256x8708
500 -54 m 256
 560 -54 616.166666667 -42.8333333333 668.5 -20.5 c 0
 720.833333333 1.83333333333 767 33 807 73 c 0
 847 113 878.166666667 159.166666667 900.5 211.5 c 0
 922.833333333 263.833333333 934 320 934 380 c 256
 934 440 922.833333333 496.166666667 900.5 548.5 c 0
 878.166666667 600.833333333 847 647 807 687 c 0
 767 727 720.833333333 758.166666667 668.5 780.5 c 0
 616.166666667 802.833333333 560 814 500 814 c 0
 439.333333333 814 382.833333333 802.666666667 330.5 780 c 0
 278.166666667 757.333333333 232.166666667 726 192.5 686 c 0
 152.833333333 646 121.833333333 599.833333333 99.5 547.5 c 0
 77.1666666667 495.166666667 66 439.333333333 66 380 c 0
 66 320 77.1666666667 263.833333333 99.5 211.5 c 0
 121.833333333 159.166666667 153 113 193 73 c 0
 233 33 279.166666667 1.83333333333 331.5 -20.5 c 0
 383.833333333 -42.8333333333 440 -54 500 -54 c 256
202 127 m 1xb708
 202 175 l 1xc708
 265.333333333 248.333333333 314.333333333 310 349 360 c 0
 383.666666667 410 401 455.333333333 401 496 c 0
 401 525.333333333 394.833333333 548.5 382.5 565.5 c 0
 370.166666667 582.5 351.333333333 591 326 591 c 0
 309.333333333 591 293.833333333 585.833333333 279.5 575.5 c 0
 265.166666667 565.166666667 252.333333333 552.333333333 241 537 c 1
 197 580 l 1
 216.333333333 604.666666667 237.5 623.666666667 260.5 637 c 0
 283.5 650.333333333 308.666666667 657 336 657 c 0
 378.666666667 657 412.5 642.833333333 437.5 614.5 c 0
 462.5 586.166666667 475 548.666666667 475 502 c 0
 475 470 467.5 437.666666667 452.5 405 c 0
 437.5 372.333333333 417.5 338.5 392.5 303.5 c 0
 367.5 268.5 339.333333333 231.666666667 308 193 c 1
 319.333333333 194.333333333 332.166666667 195.333333333 346.5 196 c 0
 360.833333333 196.666666667 374.666666667 197 388 197 c 2
 493 197 l 1
 493 127 l 1
 202 127 l 1xb708
676 115 m 0
 646 115 619.166666667 121.166666667 595.5 133.5 c 0
 571.833333333 145.833333333 553.166666667 162.666666667 539.5 184 c 0
 525.833333333 205.333333333 519 229.333333333 519 256 c 0xcf98
 519 290.666666667 527.666666667 319.333333333 545 342 c 0
 562.333333333 364.666666667 582 382.333333333 604 395 c 1
 604 399 l 1
 586 412.333333333 570.666666667 429.166666667 558 449.5 c 0
 545.333333333 469.833333333 539 493.333333333 539 520 c 0
 539 562.666666667 552.166666667 596.166666667 578.5 620.5 c 0
 604.833333333 644.833333333 637.333333333 657 676 657 c 0
 718 657 751.5 644.333333333 776.5 619 c 0
 801.5 593.666666667 814 560.333333333 814 519 c 0xcf68
 814 491 807.333333333 466.166666667 794 444.5 c 0
 780.666666667 422.833333333 766.333333333 406 751 394 c 1
 751 391 l 1
 772.333333333 377 791.166666667 360 807.5 340 c 0
 823.833333333 320 832 292.333333333 832 257 c 0xcf18
 832 217 817.833333333 183.333333333 789.5 156 c 0
 761.166666667 128.666666667 723.333333333 115 676 115 c 0
678 175 m 256
 702.666666667 175 722.5 182.5 737.5 197.5 c 0
 752.5 212.5 760 233 760 259 c 0
 760 290.333333333 749.333333333 313.666666667 728 329 c 0
 706.666666667 344.333333333 679.666666667 359.333333333 647 374 c 1
 631.666666667 361.333333333 618 346.166666667 606 328.5 c 0
 594 310.833333333 588 290.333333333 588 267 c 0
 588 240.333333333 596.833333333 218.333333333 614.5 201 c 0
 632.166666667 183.666666667 653.333333333 175 678 175 c 256
705 413 m 1
 718.333333333 427.666666667 728.833333333 443.5 736.5 460.5 c 0
 744.166666667 477.5 748 494.666666667 748 512 c 0
 748 537.333333333 741.5 558 728.5 574 c 0
 715.5 590 697.666666667 598 675 598 c 0
 655 598 638.666666667 591.333333333 626 578 c 0
 613.333333333 564.666666667 607 545.333333333 607 520 c 0x8f68
 607 491.333333333 616.666666667 469.166666667 636 453.5 c 0
 655.333333333 437.833333333 678.333333333 424.333333333 705 413 c 1
EndSplineSet
Validated: 1
EndChar

StartChar: uni3259
Encoding: 12889 12889 29
Width: 1000
Flags: W
HStem: -86 32<381.703 618.195> 115 68<584.155 696.945> 127 70<308.532 495> 325 61<614.204 710.271> 591 66<272.005 380.573 613.699 711.686> 814 32<382.541 618.297>
VStem: 34 32<261.703 496.46> 403 75<412.374 566.656> 518 72<412.802 565.072> 750 73<251.467 389> 934 32<262.659 498.297>
LayerCount: 2
Fore
SplineSet
500 -86 m 256x9fe0
 436 -86 375.833333333 -73.8333333333 319.5 -49.5 c 0
 263.166666667 -25.1666666667 213.666666667 8.33333333333 171 51 c 0
 128.333333333 93.6666666667 94.8333333333 143.166666667 70.5 199.5 c 0
 46.1666666667 255.833333333 34 316 34 380 c 256
 34 444 46.1666666667 504.166666667 70.5 560.5 c 0
 94.8333333333 616.833333333 128.333333333 666.333333333 171 709 c 0
 213.666666667 751.666666667 263.166666667 785.166666667 319.5 809.5 c 0
 375.833333333 833.833333333 436 846 500 846 c 256
 564 846 624.166666667 833.833333333 680.5 809.5 c 0
 736.833333333 785.166666667 786.333333333 751.666666667 829 709 c 0
 871.666666667 666.333333333 905.166666667 616.833333333 929.5 560.5 c 0
 953.833333333 504.166666667 966 444 966 380 c 0
 966 315.333333333 953.833333333 254.833333333 929.5 198.5 c 0
 905.166666667 142.166666667 871.5 92.6666666667 828.5 50 c 0
 785.5 7.33333333333 736 -26 680 -50 c 0
 624 -74 564 -86 500 -86 c 256x9fe0
500 -54 m 256
 560 -54 616.166666667 -42.8333333333 668.5 -20.5 c 0
 720.833333333 1.83333333333 767 33 807 73 c 0
 847 113 878.166666667 159.166666667 900.5 211.5 c 0
 922.833333333 263.833333333 934 320 934 380 c 256
 934 440 922.833333333 496.166666667 900.5 548.5 c 0
 878.166666667 600.833333333 847 647 807 687 c 0
 767 727 720.833333333 758.166666667 668.5 780.5 c 0
 616.166666667 802.833333333 560 814 500 814 c 0
 439.333333333 814 382.833333333 802.666666667 330.5 780 c 0
 278.166666667 757.333333333 232.166666667 726 192.5 686 c 0
 152.833333333 646 121.833333333 599.833333333 99.5 547.5 c 0
 77.1666666667 495.166666667 66 439.333333333 66 380 c 0
 66 320 77.1666666667 263.833333333 99.5 211.5 c 0
 121.833333333 159.166666667 153 113 193 73 c 0
 233 33 279.166666667 1.83333333333 331.5 -20.5 c 0
 383.833333333 -42.8333333333 440 -54 500 -54 c 256
202 127 m 1xbfe0
 202 175 l 1
 265.333333333 248.333333333 314.666666667 310 350 360 c 0
 385.333333333 410 403 455.333333333 403 496 c 0
 403 525.333333333 396.666666667 548.5 384 565.5 c 0
 371.333333333 582.5 352.333333333 591 327 591 c 0
 310.333333333 591 294.666666667 585.833333333 280 575.5 c 0
 265.333333333 565.166666667 252.333333333 552.333333333 241 537 c 1
 197 580 l 1
 216.333333333 604.666666667 237.666666667 623.666666667 261 637 c 0
 284.333333333 650.333333333 309.666666667 657 337 657 c 0
 380.333333333 657 414.666666667 642.833333333 440 614.5 c 0
 465.333333333 586.166666667 478 548.666666667 478 502 c 0
 478 470 470.333333333 437.666666667 455 405 c 0
 439.666666667 372.333333333 419.166666667 338.5 393.5 303.5 c 0
 367.833333333 268.5 339.333333333 231.666666667 308 193 c 1
 319.333333333 194.333333333 332.166666667 195.333333333 346.5 196 c 0
 360.833333333 196.666666667 374.666666667 197 388 197 c 2
 495 197 l 1
 495 127 l 1
 202 127 l 1xbfe0
646 115 m 0xdfe0
 618.666666667 115 595.166666667 120.333333333 575.5 131 c 0
 555.833333333 141.666666667 539.333333333 155 526 171 c 1
 568 221 l 1
 577.333333333 209.666666667 588.333333333 200.5 601 193.5 c 0
 613.666666667 186.5 627.333333333 183 642 183 c 0
 661.333333333 183 679 189.5 695 202.5 c 0
 711 215.5 724 237.166666667 734 267.5 c 0
 744 297.833333333 749.333333333 338.333333333 750 389 c 1
 736.666666667 369 721.166666667 353.333333333 703.5 342 c 0
 685.833333333 330.666666667 667.333333333 325 648 325 c 0
 610 325 578.833333333 338.5 554.5 365.5 c 0
 530.166666667 392.5 518 433.333333333 518 488 c 0
 518 522 524.333333333 551.666666667 537 577 c 0
 549.666666667 602.333333333 566.833333333 622 588.5 636 c 0
 610.166666667 650 633.666666667 657 659 657 c 0
 689.666666667 657 717.333333333 647.833333333 742 629.5 c 0
 766.666666667 611.166666667 786.333333333 583.333333333 801 546 c 0
 815.666666667 508.666666667 823 461.333333333 823 404 c 0
 823 335.333333333 814.666666667 279.666666667 798 237 c 0
 781.333333333 194.333333333 759.666666667 163.333333333 733 144 c 0
 706.333333333 124.666666667 677.333333333 115 646 115 c 0xdfe0
665 386 m 0
 678.333333333 386 692.166666667 390.833333333 706.5 400.5 c 0
 720.833333333 410.166666667 734.666666667 426.666666667 748 450 c 1
 744.666666667 498 735.333333333 534 720 558 c 0
 704.666666667 582 684.333333333 594 659 594 c 0
 640.333333333 594 624.166666667 584.333333333 610.5 565 c 0
 596.833333333 545.666666667 590 520.333333333 590 489 c 256
 590 457.666666667 596.333333333 432.666666667 609 414 c 0
 621.666666667 395.333333333 640.333333333 386 665 386 c 0
EndSplineSet
Validated: 1
EndChar

StartChar: uni325A
Encoding: 12890 12890 30
Width: 1000
Flags: W
HStem: -86 32<381.703 618.195> 115 66<252.402 377.079 626.003 706.304> 365 61<270 356.668> 592 65<257.601 368.018 625.577 707.735> 814 32<382.541 618.297>
VStem: 34 32<261.703 496.46> 387 78<455.632 572.203> 403 79<207.354 332.138> 507 79<235.641 539.16> 748 78<235.641 539.16> 934 32<262.659 498.297>
LayerCount: 2
Fore
SplineSet
500 -86 m 256xfce0
 436 -86 375.833333333 -73.8333333333 319.5 -49.5 c 0
 263.166666667 -25.1666666667 213.666666667 8.33333333333 171 51 c 0
 128.333333333 93.6666666667 94.8333333333 143.166666667 70.5 199.5 c 0
 46.1666666667 255.833333333 34 316 34 380 c 256
 34 444 46.1666666667 504.166666667 70.5 560.5 c 0
 94.8333333333 616.833333333 128.333333333 666.333333333 171 709 c 0
 213.666666667 751.666666667 263.166666667 785.166666667 319.5 809.5 c 0
 375.833333333 833.833333333 436 846 500 846 c 256
 564 846 624.166666667 833.833333333 680.5 809.5 c 0
 736.833333333 785.166666667 786.333333333 751.666666667 829 709 c 0
 871.666666667 666.333333333 905.166666667 616.833333333 929.5 560.5 c 0
 953.833333333 504.166666667 966 444 966 380 c 0
 966 315.333333333 953.833333333 254.833333333 929.5 198.5 c 0
 905.166666667 142.166666667 871.5 92.6666666667 828.5 50 c 0
 785.5 7.33333333333 736 -26 680 -50 c 0
 624 -74 564 -86 500 -86 c 256xfce0
500 -54 m 256
 560 -54 616.166666667 -42.8333333333 668.5 -20.5 c 0
 720.833333333 1.83333333333 767 33 807 73 c 0
 847 113 878.166666667 159.166666667 900.5 211.5 c 0
 922.833333333 263.833333333 934 320 934 380 c 256
 934 440 922.833333333 496.166666667 900.5 548.5 c 0
 878.166666667 600.833333333 847 647 807 687 c 0
 767 727 720.833333333 758.166666667 668.5 780.5 c 0
 616.166666667 802.833333333 560 814 500 814 c 0
 439.333333333 814 382.833333333 802.666666667 330.5 780 c 0
 278.166666667 757.333333333 232.166666667 726 192.5 686 c 0
 152.833333333 646 121.833333333 599.833333333 99.5 547.5 c 0
 77.1666666667 495.166666667 66 439.333333333 66 380 c 0
 66 320 77.1666666667 263.833333333 99.5 211.5 c 0
 121.833333333 159.166666667 153 113 193 73 c 0
 233 33 279.166666667 1.83333333333 331.5 -20.5 c 0
 383.833333333 -42.8333333333 440 -54 500 -54 c 256
324 115 m 0
 290.666666667 115 261.5 121.833333333 236.5 135.5 c 0
 211.5 149.166666667 191.333333333 165.666666667 176 185 c 1
 216 235 l 1
 229.333333333 220.333333333 244.333333333 207.666666667 261 197 c 0
 277.666666667 186.333333333 297.666666667 181 321 181 c 256
 344.333333333 181 363.833333333 189 379.5 205 c 0
 395.166666667 221 403 242.333333333 403 269 c 0xfde0
 403 298.333333333 393.666666667 321.666666667 375 339 c 0
 356.333333333 356.333333333 321.333333333 365 270 365 c 1
 270 426 l 1
 313.333333333 426 343.666666667 434.333333333 361 451 c 0
 378.333333333 467.666666667 387 489 387 515 c 0
 387 539 380.666666667 557.833333333 368 571.5 c 0
 355.333333333 585.166666667 338.333333333 592 317 592 c 0
 287 592 259 577 233 547 c 1
 191 595 l 1
 209 614.333333333 229 629.5 251 640.5 c 0
 273 651.5 297 657 323 657 c 0
 365 657 399.166666667 645.166666667 425.5 621.5 c 0
 451.833333333 597.833333333 465 564 465 520 c 0xfee0
 465 490 457.666666667 465.333333333 443 446 c 0
 428.333333333 426.666666667 409 411.333333333 385 400 c 1
 385 397 l 1
 411.666666667 388.333333333 434.5 373 453.5 351 c 0
 472.5 329 482 300.333333333 482 265 c 0xfde0
 482 234.333333333 474.833333333 207.666666667 460.5 185 c 0
 446.166666667 162.333333333 427.166666667 145 403.5 133 c 0
 379.833333333 121 353.333333333 115 324 115 c 0
667 115 m 256
 618.333333333 115 579.5 139.333333333 550.5 188 c 0
 521.5 236.666666667 507 303.333333333 507 388 c 256
 507 472.666666667 521.5 538.666666667 550.5 586 c 0
 579.5 633.333333333 618.333333333 657 667 657 c 256
 715.666666667 657 754.333333333 633.333333333 783 586 c 0
 811.666666667 538.666666667 826 472.666666667 826 388 c 256
 826 303.333333333 811.666666667 236.666666667 783 188 c 0
 754.333333333 139.333333333 715.666666667 115 667 115 c 256
667 182 m 0
 690.333333333 182 709.666666667 198.666666667 725 232 c 0
 740.333333333 265.333333333 748 317.333333333 748 388 c 256
 748 458.666666667 740.333333333 510.166666667 725 542.5 c 0
 709.666666667 574.833333333 690.333333333 591 667 591 c 0
 642.333333333 591 622.666666667 574.833333333 608 542.5 c 0
 593.333333333 510.166666667 586 458.666666667 586 388 c 256
 586 317.333333333 593.333333333 265.333333333 608 232 c 0
 622.666666667 198.666666667 642.333333333 182 667 182 c 0
EndSplineSet
Validated: 1
EndChar

StartChar: uni325B
Encoding: 12891 12891 31
Width: 1000
Flags: W
HStem: -86 32<381.703 618.195> 115 66<301.741 428.787> 365 61<318 408.375> 551 53<573 640.626> 592 65<306.201 419.003> 814 32<382.541 618.297>
VStem: 34 32<261.703 496.46> 439 77<456.126 571.384> 455 78<207.354 331.094> 659 76<127 551> 934 32<262.659 498.297>
LayerCount: 2
Fore
SplineSet
500 -86 m 256xe660
 436 -86 375.833333333 -73.8333333333 319.5 -49.5 c 0
 263.166666667 -25.1666666667 213.666666667 8.33333333333 171 51 c 0
 128.333333333 93.6666666667 94.8333333333 143.166666667 70.5 199.5 c 0
 46.1666666667 255.833333333 34 316 34 380 c 256
 34 444 46.1666666667 504.166666667 70.5 560.5 c 0
 94.8333333333 616.833333333 128.333333333 666.333333333 171 709 c 0
 213.666666667 751.666666667 263.166666667 785.166666667 319.5 809.5 c 0
 375.833333333 833.833333333 436 846 500 846 c 256
 564 846 624.166666667 833.833333333 680.5 809.5 c 0
 736.833333333 785.166666667 786.333333333 751.666666667 829 709 c 0
 871.666666667 666.333333333 905.166666667 616.833333333 929.5 560.5 c 0
 953.833333333 504.166666667 966 444 966 380 c 0
 966 315.333333333 953.833333333 254.833333333 929.5 198.5 c 0
 905.166666667 142.166666667 871.5 92.6666666667 828.5 50 c 0
 785.5 7.33333333333 736 -26 680 -50 c 0
 624 -74 564 -86 500 -86 c 256xe660
500 -54 m 256
 560 -54 616.166666667 -42.8333333333 668.5 -20.5 c 0
 720.833333333 1.83333333333 767 33 807 73 c 0
 847 113 878.166666667 159.166666667 900.5 211.5 c 0
 922.833333333 263.833333333 934 320 934 380 c 256
 934 440 922.833333333 496.166666667 900.5 548.5 c 0
 878.166666667 600.833333333 847 647 807 687 c 0
 767 727 720.833333333 758.166666667 668.5 780.5 c 0
 616.166666667 802.833333333 560 814 500 814 c 0
 439.333333333 814 382.833333333 802.666666667 330.5 780 c 0
 278.166666667 757.333333333 232.166666667 726 192.5 686 c 0
 152.833333333 646 121.833333333 599.833333333 99.5 547.5 c 0
 77.1666666667 495.166666667 66 439.333333333 66 380 c 0
 66 320 77.1666666667 263.833333333 99.5 211.5 c 0
 121.833333333 159.166666667 153 113 193 73 c 0
 233 33 279.166666667 1.83333333333 331.5 -20.5 c 0
 383.833333333 -42.8333333333 440 -54 500 -54 c 256
374 115 m 0
 340.666666667 115 311.166666667 121.833333333 285.5 135.5 c 0
 259.833333333 149.166666667 239.333333333 165.666666667 224 185 c 1
 264 235 l 1
 278 220.333333333 293.5 207.666666667 310.5 197 c 0
 327.5 186.333333333 348 181 372 181 c 256
 396 181 415.833333333 189 431.5 205 c 0
 447.166666667 221 455 242.333333333 455 269 c 0xeee0
 455 298.333333333 445.333333333 321.666666667 426 339 c 0
 406.666666667 356.333333333 370.666666667 365 318 365 c 1
 318 426 l 1
 363.333333333 426 394.833333333 434.333333333 412.5 451 c 0
 430.166666667 467.666666667 439 489 439 515 c 0
 439 539 432.333333333 557.833333333 419 571.5 c 0
 405.666666667 585.166666667 388.333333333 592 367 592 c 0
 335.666666667 592 307.333333333 577 282 547 c 1
 239 595 l 1
 257.666666667 614.333333333 278.166666667 629.5 300.5 640.5 c 0
 322.833333333 651.5 347.333333333 657 374 657 c 0
 416 657 450.166666667 645.166666667 476.5 621.5 c 0
 502.833333333 597.833333333 516 564 516 520 c 0xef60
 516 490 508.666666667 465.333333333 494 446 c 0
 479.333333333 426.666666667 460 411.333333333 436 400 c 1
 436 397 l 1
 463.333333333 388.333333333 486.333333333 373 505 351 c 0
 523.666666667 329 533 300.333333333 533 265 c 0xeee0
 533 234.333333333 525.833333333 207.666666667 511.5 185 c 0
 497.166666667 162.333333333 478 145 454 133 c 0
 430 121 403.333333333 115 374 115 c 0
659 127 m 1
 659 551 l 1
 573 551 l 1
 573 604 l 1xf660
 595.666666667 608.666666667 615 614.5 631 621.5 c 0
 647 628.5 662 636.333333333 676 645 c 1
 735 645 l 1
 735 127 l 1
 659 127 l 1
EndSplineSet
Validated: 1
EndChar

StartChar: uni325C
Encoding: 12892 12892 32
Width: 1000
Flags: W
HStem: -86 32<381.703 618.195> 115 66<266.367 390.415> 127 70<620.563 805> 365 61<283 369.668> 592 65<271.091 381.018 584.721 689.663> 814 32<382.541 618.297>
VStem: 34 32<261.703 496.46> 400 78<455.632 572.203> 416 79<206.38 332.138> 712 75<411.61 567.518> 934 32<262.659 498.297>
LayerCount: 2
Fore
SplineSet
500 -86 m 256x9e60
 436 -86 375.833333333 -73.8333333333 319.5 -49.5 c 0
 263.166666667 -25.1666666667 213.666666667 8.33333333333 171 51 c 0
 128.333333333 93.6666666667 94.8333333333 143.166666667 70.5 199.5 c 0
 46.1666666667 255.833333333 34 316 34 380 c 256
 34 444 46.1666666667 504.166666667 70.5 560.5 c 0
 94.8333333333 616.833333333 128.333333333 666.333333333 171 709 c 0
 213.666666667 751.666666667 263.166666667 785.166666667 319.5 809.5 c 0
 375.833333333 833.833333333 436 846 500 846 c 256
 564 846 624.166666667 833.833333333 680.5 809.5 c 0
 736.833333333 785.166666667 786.333333333 751.666666667 829 709 c 0
 871.666666667 666.333333333 905.166666667 616.833333333 929.5 560.5 c 0
 953.833333333 504.166666667 966 444 966 380 c 0
 966 315.333333333 953.833333333 254.833333333 929.5 198.5 c 0
 905.166666667 142.166666667 871.5 92.6666666667 828.5 50 c 0
 785.5 7.33333333333 736 -26 680 -50 c 0
 624 -74 564 -86 500 -86 c 256x9e60
500 -54 m 256
 560 -54 616.166666667 -42.8333333333 668.5 -20.5 c 0
 720.833333333 1.83333333333 767 33 807 73 c 0
 847 113 878.166666667 159.166666667 900.5 211.5 c 0
 922.833333333 263.833333333 934 320 934 380 c 256
 934 440 922.833333333 496.166666667 900.5 548.5 c 0
 878.166666667 600.833333333 847 647 807 687 c 0
 767 727 720.833333333 758.166666667 668.5 780.5 c 0
 616.166666667 802.833333333 560 814 500 814 c 0
 439.333333333 814 382.833333333 802.666666667 330.5 780 c 0
 278.166666667 757.333333333 232.166666667 726 192.5 686 c 0
 152.833333333 646 121.833333333 599.833333333 99.5 547.5 c 0
 77.1666666667 495.166666667 66 439.333333333 66 380 c 0
 66 320 77.1666666667 263.833333333 99.5 211.5 c 0
 121.833333333 159.166666667 153 113 193 73 c 0
 233 33 279.166666667 1.83333333333 331.5 -20.5 c 0
 383.833333333 -42.8333333333 440 -54 500 -54 c 256
338 115 m 0xdee0
 304 115 274.5 121.833333333 249.5 135.5 c 0
 224.5 149.166666667 204.333333333 165.666666667 189 185 c 1
 229 235 l 1
 243 220.333333333 258.166666667 207.666666667 274.5 197 c 0xbee0
 290.833333333 186.333333333 310.666666667 181 334 181 c 0
 358 181 377.666666667 189 393 205 c 0
 408.333333333 221 416 242.333333333 416 269 c 0xdee0
 416 298.333333333 406.666666667 321.666666667 388 339 c 0
 369.333333333 356.333333333 334.333333333 365 283 365 c 1
 283 426 l 1
 326.333333333 426 356.666666667 434.333333333 374 451 c 0
 391.333333333 467.666666667 400 489 400 515 c 0
 400 539 393.666666667 557.833333333 381 571.5 c 0
 368.333333333 585.166666667 351.666666667 592 331 592 c 0
 300.333333333 592 272.333333333 577 247 547 c 1
 204 595 l 1
 222.666666667 614.333333333 242.833333333 629.5 264.5 640.5 c 0
 286.166666667 651.5 310 657 336 657 c 0
 378 657 412.166666667 645.166666667 438.5 621.5 c 0
 464.833333333 597.833333333 478 564 478 520 c 0xdf60
 478 490 470.666666667 465.333333333 456 446 c 0
 441.333333333 426.666666667 422 411.333333333 398 400 c 1
 398 397 l 1
 425.333333333 388.333333333 448.333333333 373 467 351 c 0
 485.666666667 329 495 300.333333333 495 265 c 0
 495 234.333333333 487.833333333 207.666666667 473.5 185 c 0
 459.166666667 162.333333333 440.166666667 145 416.5 133 c 0
 392.833333333 121 366.666666667 115 338 115 c 0xdee0
514 127 m 1
 514 175 l 1
 577.333333333 248.333333333 626.166666667 310 660.5 360 c 0
 694.833333333 410 712 455.333333333 712 496 c 0
 712 525.333333333 706 548.5 694 565.5 c 0
 682 582.5 663.666666667 591 639 591 c 0
 621.666666667 591 605.833333333 585.833333333 591.5 575.5 c 0
 577.166666667 565.166666667 564.333333333 552.333333333 553 537 c 1
 509 580 l 1
 528.333333333 604.666666667 549.5 623.666666667 572.5 637 c 0
 595.5 650.333333333 620.666666667 657 648 657 c 0
 690.666666667 657 724.5 642.833333333 749.5 614.5 c 0
 774.5 586.166666667 787 548.666666667 787 502 c 0
 787 470 779.666666667 437.666666667 765 405 c 0
 750.333333333 372.333333333 730.333333333 338.5 705 303.5 c 0
 679.666666667 268.5 651.333333333 231.666666667 620 193 c 1
 632 194.333333333 645.166666667 195.333333333 659.5 196 c 0
 673.833333333 196.666666667 687.333333333 197 700 197 c 2
 805 197 l 1
 805 127 l 1
 514 127 l 1
EndSplineSet
Validated: 1
EndChar

StartChar: uni325D
Encoding: 12893 12893 33
Width: 1000
Flags: W
HStem: -86 32<381.703 618.195> 115 66<262.057 386.417 588.862 712.417> 365 61<279 366.938 606 693> 592 65<267.091 377.299 593.095 704.018> 814 32<382.541 618.297>
VStem: 34 32<261.703 496.46> 397 78<456.126 572.203> 412 79<206.38 332.138> 723 78<455.632 572.203> 738 79<206.38 332.138> 934 32<262.659 498.297>
LayerCount: 2
Fore
SplineSet
500 -86 m 256xfc20
 436 -86 375.833333333 -73.8333333333 319.5 -49.5 c 0
 263.166666667 -25.1666666667 213.666666667 8.33333333333 171 51 c 0
 128.333333333 93.6666666667 94.8333333333 143.166666667 70.5 199.5 c 0
 46.1666666667 255.833333333 34 316 34 380 c 256
 34 444 46.1666666667 504.166666667 70.5 560.5 c 0
 94.8333333333 616.833333333 128.333333333 666.333333333 171 709 c 0
 213.666666667 751.666666667 263.166666667 785.166666667 319.5 809.5 c 0
 375.833333333 833.833333333 436 846 500 846 c 256
 564 846 624.166666667 833.833333333 680.5 809.5 c 0
 736.833333333 785.166666667 786.333333333 751.666666667 829 709 c 0
 871.666666667 666.333333333 905.166666667 616.833333333 929.5 560.5 c 0
 953.833333333 504.166666667 966 444 966 380 c 0
 966 315.333333333 953.833333333 254.833333333 929.5 198.5 c 0
 905.166666667 142.166666667 871.5 92.6666666667 828.5 50 c 0
 785.5 7.33333333333 736 -26 680 -50 c 0
 624 -74 564 -86 500 -86 c 256xfc20
500 -54 m 256
 560 -54 616.166666667 -42.8333333333 668.5 -20.5 c 0
 720.833333333 1.83333333333 767 33 807 73 c 0
 847 113 878.166666667 159.166666667 900.5 211.5 c 0
 922.833333333 263.833333333 934 320 934 380 c 256
 934 440 922.833333333 496.166666667 900.5 548.5 c 0
 878.166666667 600.833333333 847 647 807 687 c 0
 767 727 720.833333333 758.166666667 668.5 780.5 c 0
 616.166666667 802.833333333 560 814 500 814 c 0
 439.333333333 814 382.833333333 802.666666667 330.5 780 c 0
 278.166666667 757.333333333 232.166666667 726 192.5 686 c 0
 152.833333333 646 121.833333333 599.833333333 99.5 547.5 c 0
 77.1666666667 495.166666667 66 439.333333333 66 380 c 0
 66 320 77.1666666667 263.833333333 99.5 211.5 c 0
 121.833333333 159.166666667 153 113 193 73 c 0
 233 33 279.166666667 1.83333333333 331.5 -20.5 c 0
 383.833333333 -42.8333333333 440 -54 500 -54 c 256
334 115 m 0
 300.666666667 115 271.333333333 121.833333333 246 135.5 c 0
 220.666666667 149.166666667 200.666666667 165.666666667 186 185 c 1
 225 235 l 1
 239 220.333333333 254.166666667 207.666666667 270.5 197 c 0
 286.833333333 186.333333333 307 181 331 181 c 0
 354.333333333 181 373.666666667 189 389 205 c 0
 404.333333333 221 412 242.333333333 412 269 c 0xfd20
 412 298.333333333 402.666666667 321.666666667 384 339 c 0
 365.333333333 356.333333333 330.333333333 365 279 365 c 1
 279 426 l 1
 322.333333333 426 352.833333333 434.333333333 370.5 451 c 0
 388.166666667 467.666666667 397 489 397 515 c 0
 397 539 390.5 557.833333333 377.5 571.5 c 0
 364.5 585.166666667 347.666666667 592 327 592 c 0
 296.333333333 592 268.333333333 577 243 547 c 1
 200 595 l 1
 218.666666667 614.333333333 238.833333333 629.5 260.5 640.5 c 0
 282.166666667 651.5 306 657 332 657 c 0
 374 657 408.333333333 645.166666667 435 621.5 c 0
 461.666666667 597.833333333 475 564 475 520 c 0xfe20
 475 490 467.5 465.333333333 452.5 446 c 0
 437.5 426.666666667 418 411.333333333 394 400 c 1
 394 397 l 1
 421.333333333 388.333333333 444.333333333 373 463 351 c 0
 481.666666667 329 491 300.333333333 491 265 c 0xfd20
 491 234.333333333 483.833333333 207.666666667 469.5 185 c 0
 455.166666667 162.333333333 436.166666667 145 412.5 133 c 0
 388.833333333 121 362.666666667 115 334 115 c 0
660 115 m 0
 626.666666667 115 597.333333333 121.833333333 572 135.5 c 0
 546.666666667 149.166666667 526.666666667 165.666666667 512 185 c 1
 551 235 l 1
 565 220.333333333 580.333333333 207.666666667 597 197 c 0
 613.666666667 186.333333333 633.666666667 181 657 181 c 256
 680.333333333 181 699.666666667 189 715 205 c 0
 730.333333333 221 738 242.333333333 738 269 c 0xfc60
 738 298.333333333 728.666666667 321.666666667 710 339 c 0
 691.333333333 356.333333333 656.666666667 365 606 365 c 1
 606 426 l 1
 649.333333333 426 679.666666667 434.333333333 697 451 c 0
 714.333333333 467.666666667 723 489 723 515 c 0
 723 539 716.666666667 557.833333333 704 571.5 c 0
 691.333333333 585.166666667 674.333333333 592 653 592 c 0
 622.333333333 592 594.333333333 577 569 547 c 1
 527 595 l 1
 545 614.333333333 564.833333333 629.5 586.5 640.5 c 0
 608.166666667 651.5 632.333333333 657 659 657 c 0
 701 657 735.166666667 645.166666667 761.5 621.5 c 0
 787.833333333 597.833333333 801 564 801 520 c 0xfca0
 801 490 793.5 465.333333333 778.5 446 c 0
 763.5 426.666666667 744 411.333333333 720 400 c 1
 720 397 l 1
 747.333333333 388.333333333 770.333333333 373 789 351 c 0
 807.666666667 329 817 300.333333333 817 265 c 0xfc60
 817 234.333333333 809.833333333 207.666666667 795.5 185 c 0
 781.166666667 162.333333333 762.166666667 145 738.5 133 c 0
 714.833333333 121 688.666666667 115 660 115 c 0
EndSplineSet
Validated: 1
EndChar

StartChar: uni325E
Encoding: 12894 12894 34
Width: 1000
Flags: W
HStem: -86 32<381.703 618.195> 115 66<268.408 393.417> 265 63<586 708 780 838> 365 61<287 374> 592 65<274.047 384.76> 814 32<382.541 618.297>
VStem: 34 32<261.703 496.46> 404 78<455.632 572.203> 419 79<206.38 332.138> 708 72<127 265 328 564> 934 32<262.659 498.297>
LayerCount: 2
Fore
SplineSet
500 -86 m 256xfe60
 436 -86 375.833333333 -73.8333333333 319.5 -49.5 c 0
 263.166666667 -25.1666666667 213.666666667 8.33333333333 171 51 c 0
 128.333333333 93.6666666667 94.8333333333 143.166666667 70.5 199.5 c 0
 46.1666666667 255.833333333 34 316 34 380 c 256
 34 444 46.1666666667 504.166666667 70.5 560.5 c 0
 94.8333333333 616.833333333 128.333333333 666.333333333 171 709 c 0
 213.666666667 751.666666667 263.166666667 785.166666667 319.5 809.5 c 0
 375.833333333 833.833333333 436 846 500 846 c 256
 564 846 624.166666667 833.833333333 680.5 809.5 c 0
 736.833333333 785.166666667 786.333333333 751.666666667 829 709 c 0
 871.666666667 666.333333333 905.166666667 616.833333333 929.5 560.5 c 0
 953.833333333 504.166666667 966 444 966 380 c 0
 966 315.333333333 953.833333333 254.833333333 929.5 198.5 c 0
 905.166666667 142.166666667 871.5 92.6666666667 828.5 50 c 0
 785.5 7.33333333333 736 -26 680 -50 c 0
 624 -74 564 -86 500 -86 c 256xfe60
500 -54 m 256
 560 -54 616.166666667 -42.8333333333 668.5 -20.5 c 0
 720.833333333 1.83333333333 767 33 807 73 c 0
 847 113 878.166666667 159.166666667 900.5 211.5 c 0
 922.833333333 263.833333333 934 320 934 380 c 256
 934 440 922.833333333 496.166666667 900.5 548.5 c 0
 878.166666667 600.833333333 847 647 807 687 c 0
 767 727 720.833333333 758.166666667 668.5 780.5 c 0
 616.166666667 802.833333333 560 814 500 814 c 0
 439.333333333 814 382.833333333 802.666666667 330.5 780 c 0
 278.166666667 757.333333333 232.166666667 726 192.5 686 c 0
 152.833333333 646 121.833333333 599.833333333 99.5 547.5 c 0
 77.1666666667 495.166666667 66 439.333333333 66 380 c 0
 66 320 77.1666666667 263.833333333 99.5 211.5 c 0
 121.833333333 159.166666667 153 113 193 73 c 0
 233 33 279.166666667 1.83333333333 331.5 -20.5 c 0
 383.833333333 -42.8333333333 440 -54 500 -54 c 256
341 115 m 0
 307 115 277.5 121.833333333 252.5 135.5 c 0
 227.5 149.166666667 207.333333333 165.666666667 192 185 c 1
 231 235 l 1
 245 220.333333333 260.333333333 207.666666667 277 197 c 0
 293.666666667 186.333333333 314 181 338 181 c 0
 361.333333333 181 380.666666667 189 396 205 c 0
 411.333333333 221 419 242.333333333 419 269 c 0xfee0
 419 298.333333333 409.666666667 321.666666667 391 339 c 0
 372.333333333 356.333333333 337.666666667 365 287 365 c 1
 287 426 l 1
 330.333333333 426 360.666666667 434.333333333 378 451 c 0
 395.333333333 467.666666667 404 489 404 515 c 0
 404 539 397.5 557.833333333 384.5 571.5 c 0
 371.5 585.166666667 354.333333333 592 333 592 c 0
 303 592 275.333333333 577 250 547 c 1
 208 595 l 1
 226 614.333333333 245.833333333 629.5 267.5 640.5 c 0
 289.166666667 651.5 313.333333333 657 340 657 c 0
 382 657 416.166666667 645.166666667 442.5 621.5 c 0
 468.833333333 597.833333333 482 564 482 520 c 0xff60
 482 490 474.5 465.333333333 459.5 446 c 0
 444.5 426.666666667 425 411.333333333 401 400 c 1
 401 397 l 1
 428.333333333 388.333333333 451.333333333 373 470 351 c 0
 488.666666667 329 498 300.333333333 498 265 c 0xfee0
 498 234.333333333 490.833333333 207.666666667 476.5 185 c 0
 462.166666667 162.333333333 443.166666667 145 419.5 133 c 0
 395.833333333 121 369.666666667 115 341 115 c 0
708 127 m 1
 708 265 l 1
 514 265 l 1
 514 320 l 1
 691 645 l 1
 780 645 l 1
 780 328 l 1
 838 328 l 1
 838 265 l 1
 780 265 l 1
 780 127 l 1
 708 127 l 1
586 328 m 1
 708 328 l 1
 708 460 l 2
 708 474.666666667 708.333333333 492 709 512 c 0
 709.666666667 532 710.333333333 549.333333333 711 564 c 1
 708 564 l 1
 702 550 696.833333333 538.333333333 692.5 529 c 0
 688.166666667 519.666666667 682.333333333 507.666666667 675 493 c 2
 586 328 l 1
EndSplineSet
Validated: 1
EndChar

StartChar: uni325F
Encoding: 12895 12895 35
Width: 1000
Flags: W
HStem: -86 32<381.703 618.195> 115 66<266.367 390.144 578.153 700.897> 365 61<283 369.668> 398 58<610.482 703.148> 575 70<618 790> 592 65<271.091 381.018> 814 32<382.541 618.297>
VStem: 34 32<261.703 496.46> 400 78<455.632 572.203> 416 79<207.354 332.138> 734 78<215.047 365.744> 934 32<262.659 498.297>
LayerCount: 2
Fore
SplineSet
500 -86 m 256xc330
 436 -86 375.833333333 -73.8333333333 319.5 -49.5 c 0
 263.166666667 -25.1666666667 213.666666667 8.33333333333 171 51 c 0
 128.333333333 93.6666666667 94.8333333333 143.166666667 70.5 199.5 c 0
 46.1666666667 255.833333333 34 316 34 380 c 256
 34 444 46.1666666667 504.166666667 70.5 560.5 c 0
 94.8333333333 616.833333333 128.333333333 666.333333333 171 709 c 0
 213.666666667 751.666666667 263.166666667 785.166666667 319.5 809.5 c 0
 375.833333333 833.833333333 436 846 500 846 c 256
 564 846 624.166666667 833.833333333 680.5 809.5 c 0
 736.833333333 785.166666667 786.333333333 751.666666667 829 709 c 0
 871.666666667 666.333333333 905.166666667 616.833333333 929.5 560.5 c 0
 953.833333333 504.166666667 966 444 966 380 c 0
 966 315.333333333 953.833333333 254.833333333 929.5 198.5 c 0
 905.166666667 142.166666667 871.5 92.6666666667 828.5 50 c 0
 785.5 7.33333333333 736 -26 680 -50 c 0
 624 -74 564 -86 500 -86 c 256xc330
500 -54 m 256
 560 -54 616.166666667 -42.8333333333 668.5 -20.5 c 0
 720.833333333 1.83333333333 767 33 807 73 c 0
 847 113 878.166666667 159.166666667 900.5 211.5 c 0
 922.833333333 263.833333333 934 320 934 380 c 256
 934 440 922.833333333 496.166666667 900.5 548.5 c 0
 878.166666667 600.833333333 847 647 807 687 c 0
 767 727 720.833333333 758.166666667 668.5 780.5 c 0
 616.166666667 802.833333333 560 814 500 814 c 0
 439.333333333 814 382.833333333 802.666666667 330.5 780 c 0
 278.166666667 757.333333333 232.166666667 726 192.5 686 c 0
 152.833333333 646 121.833333333 599.833333333 99.5 547.5 c 0
 77.1666666667 495.166666667 66 439.333333333 66 380 c 0
 66 320 77.1666666667 263.833333333 99.5 211.5 c 0
 121.833333333 159.166666667 153 113 193 73 c 0
 233 33 279.166666667 1.83333333333 331.5 -20.5 c 0
 383.833333333 -42.8333333333 440 -54 500 -54 c 256
338 115 m 0
 304 115 274.5 121.833333333 249.5 135.5 c 0
 224.5 149.166666667 204.333333333 165.666666667 189 185 c 1
 229 235 l 1
 243 220.333333333 258.166666667 207.666666667 274.5 197 c 0
 290.833333333 186.333333333 310.666666667 181 334 181 c 256
 357.333333333 181 376.833333333 189 392.5 205 c 0
 408.166666667 221 416 242.333333333 416 269 c 0xe770
 416 298.333333333 406.666666667 321.666666667 388 339 c 0
 369.333333333 356.333333333 334.333333333 365 283 365 c 1
 283 426 l 1
 326.333333333 426 356.666666667 434.333333333 374 451 c 0
 391.333333333 467.666666667 400 489 400 515 c 0
 400 539 393.666666667 557.833333333 381 571.5 c 0
 368.333333333 585.166666667 351.666666667 592 331 592 c 0
 300.333333333 592 272.333333333 577 247 547 c 1
 204 595 l 1
 222.666666667 614.333333333 242.833333333 629.5 264.5 640.5 c 0
 286.166666667 651.5 310 657 336 657 c 0
 378 657 412.166666667 645.166666667 438.5 621.5 c 0
 464.833333333 597.833333333 478 564 478 520 c 0xe7b0
 478 490 470.666666667 465.333333333 456 446 c 0
 441.333333333 426.666666667 422 411.333333333 398 400 c 1
 398 397 l 1
 425.333333333 388.333333333 448.333333333 373 467 351 c 0
 485.666666667 329 495 300.333333333 495 265 c 0xe770
 495 234.333333333 487.833333333 207.666666667 473.5 185 c 0
 459.166666667 162.333333333 440.166666667 145 416.5 133 c 0
 392.833333333 121 366.666666667 115 338 115 c 0
654 115 m 0
 618 115 588.166666667 122 564.5 136 c 0
 540.833333333 150 520.666666667 166 504 184 c 1
 540 237 l 1
 552.666666667 223 567.333333333 210.166666667 584 198.5 c 0
 600.666666667 186.833333333 621.333333333 181 646 181 c 0
 671.333333333 181 692.333333333 191 709 211 c 0
 725.666666667 231 734 257.666666667 734 291 c 0
 734 323.666666667 726.166666667 349.666666667 710.5 369 c 0
 694.833333333 388.333333333 674.333333333 398 649 398 c 0
 635 398 622.666666667 394.833333333 612 388.5 c 0
 601.333333333 382.166666667 590 374 578 364 c 1
 541 390 l 1
 553 645 l 1
 790 645 l 1
 790 575 l 1
 618 575 l 1
 610 435 l 1
 620 440.333333333 630.333333333 445.166666667 641 449.5 c 0
 651.666666667 453.833333333 662.666666667 456 674 456 c 0xdb30
 711.333333333 456 743.666666667 442.666666667 771 416 c 0
 798.333333333 389.333333333 812 348.333333333 812 293 c 0
 812 255.666666667 804.5 223.666666667 789.5 197 c 0
 774.5 170.333333333 755 150 731 136 c 0
 707 122 681.333333333 115 654 115 c 0
EndSplineSet
Validated: 1
EndChar

StartChar: uni32B1
Encoding: 12977 12977 36
Width: 1000
Flags: W
HStem: -86 32<381.703 618.195> 115 66<250.057 375.079 623.042 719.975> 365 61<268 355.281> 385 61<624.606 720.282> 592 65<255.386 365.98 639.505 745.858> 814 32<382.541 618.297>
VStem: 34 32<261.703 496.46> 385 77<455.632 572.203> 401 78<207.354 332.138> 511 71<381 518.008> 744 73<207.17 358.301> 934 32<262.659 498.297>
LayerCount: 2
Fore
SplineSet
500 -86 m 256xce70
 436 -86 375.833333333 -73.8333333333 319.5 -49.5 c 0
 263.166666667 -25.1666666667 213.666666667 8.33333333333 171 51 c 0
 128.333333333 93.6666666667 94.8333333333 143.166666667 70.5 199.5 c 0
 46.1666666667 255.833333333 34 316 34 380 c 256
 34 444 46.1666666667 504.166666667 70.5 560.5 c 0
 94.8333333333 616.833333333 128.333333333 666.333333333 171 709 c 0
 213.666666667 751.666666667 263.166666667 785.166666667 319.5 809.5 c 0
 375.833333333 833.833333333 436 846 500 846 c 256
 564 846 624.166666667 833.833333333 680.5 809.5 c 0
 736.833333333 785.166666667 786.333333333 751.666666667 829 709 c 0
 871.666666667 666.333333333 905.166666667 616.833333333 929.5 560.5 c 0
 953.833333333 504.166666667 966 444 966 380 c 0
 966 315.333333333 953.833333333 254.833333333 929.5 198.5 c 0
 905.166666667 142.166666667 871.5 92.6666666667 828.5 50 c 0
 785.5 7.33333333333 736 -26 680 -50 c 0
 624 -74 564 -86 500 -86 c 256xce70
500 -54 m 256
 560 -54 616.166666667 -42.8333333333 668.5 -20.5 c 0
 720.833333333 1.83333333333 767 33 807 73 c 0
 847 113 878.166666667 159.166666667 900.5 211.5 c 0
 922.833333333 263.833333333 934 320 934 380 c 256
 934 440 922.833333333 496.166666667 900.5 548.5 c 0
 878.166666667 600.833333333 847 647 807 687 c 0
 767 727 720.833333333 758.166666667 668.5 780.5 c 0
 616.166666667 802.833333333 560 814 500 814 c 0
 439.333333333 814 382.833333333 802.666666667 330.5 780 c 0
 278.166666667 757.333333333 232.166666667 726 192.5 686 c 0
 152.833333333 646 121.833333333 599.833333333 99.5 547.5 c 0
 77.1666666667 495.166666667 66 439.333333333 66 380 c 0
 66 320 77.1666666667 263.833333333 99.5 211.5 c 0
 121.833333333 159.166666667 153 113 193 73 c 0
 233 33 279.166666667 1.83333333333 331.5 -20.5 c 0
 383.833333333 -42.8333333333 440 -54 500 -54 c 256
322 115 m 0
 288.666666667 115 259.333333333 121.833333333 234 135.5 c 0
 208.666666667 149.166666667 188.333333333 165.666666667 173 185 c 1
 213 235 l 1
 227 220.333333333 242.166666667 207.666666667 258.5 197 c 0
 274.833333333 186.333333333 295 181 319 181 c 0
 342.333333333 181 361.833333333 189 377.5 205 c 0
 393.166666667 221 401 242.333333333 401 269 c 0xdef0
 401 298.333333333 391.5 321.666666667 372.5 339 c 0
 353.5 356.333333333 318.666666667 365 268 365 c 1
 268 426 l 1
 311.333333333 426 341.666666667 434.333333333 359 451 c 0
 376.333333333 467.666666667 385 489 385 515 c 0
 385 539 378.666666667 557.833333333 366 571.5 c 0
 353.333333333 585.166666667 336.333333333 592 315 592 c 0
 284.333333333 592 256.333333333 577 231 547 c 1
 188 595 l 1
 206.666666667 614.333333333 227 629.5 249 640.5 c 0
 271 651.5 295 657 321 657 c 0
 363 657 397 645.166666667 423 621.5 c 0
 449 597.833333333 462 564 462 520 c 0xef70
 462 490 454.833333333 465.333333333 440.5 446 c 0
 426.166666667 426.666666667 406.666666667 411.333333333 382 400 c 1
 382 397 l 1
 409.333333333 388.333333333 432.333333333 373 451 351 c 0
 469.666666667 329 479 300.333333333 479 265 c 0xdef0
 479 234.333333333 472 207.666666667 458 185 c 0
 444 162.333333333 425.166666667 145 401.5 133 c 0
 377.833333333 121 351.333333333 115 322 115 c 0
674 115 m 0
 628 115 589.333333333 135.666666667 558 177 c 0
 526.666666667 218.333333333 511 282 511 368 c 0
 511 436.666666667 519.333333333 492.166666667 536 534.5 c 0
 552.666666667 576.833333333 574.5 607.833333333 601.5 627.5 c 0
 628.5 647.166666667 658 657 690 657 c 0
 716.666666667 657 739.666666667 651.5 759 640.5 c 0
 778.333333333 629.5 794.666666667 616 808 600 c 1
 767 549 l 1
 757.666666667 561 746.666666667 570.666666667 734 578 c 0
 721.333333333 585.333333333 707.333333333 589 692 589 c 0
 672.666666667 589 654.833333333 582.5 638.5 569.5 c 0
 622.166666667 556.5 609 534.833333333 599 504.5 c 0
 589 474.166666667 583.333333333 433 582 381 c 1
 596 401 612.333333333 416.833333333 631 428.5 c 0
 649.666666667 440.166666667 668.666666667 446 688 446 c 0
 726 446 757 432.5 781 405.5 c 0
 805 378.5 817 338 817 284 c 0
 817 250 810.5 220.333333333 797.5 195 c 0
 784.5 169.666666667 767.333333333 150 746 136 c 0
 724.666666667 122 700.666666667 115 674 115 c 0
675 179 m 0
 694.333333333 179 710.666666667 188.5 724 207.5 c 0
 737.333333333 226.5 744 251.333333333 744 282 c 0
 744 313.333333333 737.833333333 338.333333333 725.5 357 c 0
 713.166666667 375.666666667 694.333333333 385 669 385 c 0
 655.666666667 385 641.666666667 380.166666667 627 370.5 c 0
 612.333333333 360.833333333 598 344.333333333 584 321 c 1
 588 272.333333333 598 236.5 614 213.5 c 0
 630 190.5 650.333333333 179 675 179 c 0
EndSplineSet
Validated: 1
EndChar

StartChar: uni32B2
Encoding: 12978 12978 37
Width: 1000
Flags: W
HStem: -86 32<381.703 618.195> 115 66<263.423 389.24> 365 61<282 369.281> 575 70<506 710> 592 65<269.047 379.722> 814 32<382.541 618.297>
VStem: 34 32<261.703 496.46> 399 77<455.632 572.203> 415 78<207.354 332.138> 588 77<127 331.689> 934 32<262.659 498.297>
LayerCount: 2
Fore
SplineSet
500 -86 m 256xe660
 436 -86 375.833333333 -73.8333333333 319.5 -49.5 c 0
 263.166666667 -25.1666666667 213.666666667 8.33333333333 171 51 c 0
 128.333333333 93.6666666667 94.8333333333 143.166666667 70.5 199.5 c 0
 46.1666666667 255.833333333 34 316 34 380 c 256
 34 444 46.1666666667 504.166666667 70.5 560.5 c 0
 94.8333333333 616.833333333 128.333333333 666.333333333 171 709 c 0
 213.666666667 751.666666667 263.166666667 785.166666667 319.5 809.5 c 0
 375.833333333 833.833333333 436 846 500 846 c 256
 564 846 624.166666667 833.833333333 680.5 809.5 c 0
 736.833333333 785.166666667 786.333333333 751.666666667 829 709 c 0
 871.666666667 666.333333333 905.166666667 616.833333333 929.5 560.5 c 0
 953.833333333 504.166666667 966 444 966 380 c 0
 966 315.333333333 953.833333333 254.833333333 929.5 198.5 c 0
 905.166666667 142.166666667 871.5 92.6666666667 828.5 50 c 0
 785.5 7.33333333333 736 -26 680 -50 c 0
 624 -74 564 -86 500 -86 c 256xe660
500 -54 m 256
 560 -54 616.166666667 -42.8333333333 668.5 -20.5 c 0
 720.833333333 1.83333333333 767 33 807 73 c 0
 847 113 878.166666667 159.166666667 900.5 211.5 c 0
 922.833333333 263.833333333 934 320 934 380 c 256
 934 440 922.833333333 496.166666667 900.5 548.5 c 0
 878.166666667 600.833333333 847 647 807 687 c 0
 767 727 720.833333333 758.166666667 668.5 780.5 c 0
 616.166666667 802.833333333 560 814 500 814 c 0
 439.333333333 814 382.833333333 802.666666667 330.5 780 c 0
 278.166666667 757.333333333 232.166666667 726 192.5 686 c 0
 152.833333333 646 121.833333333 599.833333333 99.5 547.5 c 0
 77.1666666667 495.166666667 66 439.333333333 66 380 c 0
 66 320 77.1666666667 263.833333333 99.5 211.5 c 0
 121.833333333 159.166666667 153 113 193 73 c 0
 233 33 279.166666667 1.83333333333 331.5 -20.5 c 0
 383.833333333 -42.8333333333 440 -54 500 -54 c 256
336 115 m 0
 302 115 272.5 121.833333333 247.5 135.5 c 0
 222.5 149.166666667 202.333333333 165.666666667 187 185 c 1
 227 235 l 1
 240.333333333 220.333333333 255.333333333 207.666666667 272 197 c 0
 288.666666667 186.333333333 309 181 333 181 c 0
 356.333333333 181 375.833333333 189 391.5 205 c 0
 407.166666667 221 415 242.333333333 415 269 c 0xeee0
 415 298.333333333 405.5 321.666666667 386.5 339 c 0
 367.5 356.333333333 332.666666667 365 282 365 c 1
 282 426 l 1
 325.333333333 426 355.666666667 434.333333333 373 451 c 0
 390.333333333 467.666666667 399 489 399 515 c 0
 399 539 392.5 557.833333333 379.5 571.5 c 0
 366.5 585.166666667 349.333333333 592 328 592 c 0
 298 592 270.333333333 577 245 547 c 1
 202 595 l 1
 220.666666667 614.333333333 240.833333333 629.5 262.5 640.5 c 0
 284.166666667 651.5 308.333333333 657 335 657 c 0
 377 657 411 645.166666667 437 621.5 c 0
 463 597.833333333 476 564 476 520 c 0xef60
 476 490 468.666666667 465.333333333 454 446 c 0
 439.333333333 426.666666667 420 411.333333333 396 400 c 1
 396 397 l 1
 423.333333333 388.333333333 446.333333333 373 465 351 c 0
 483.666666667 329 493 300.333333333 493 265 c 0xeee0
 493 234.333333333 485.833333333 207.666666667 471.5 185 c 0
 457.166666667 162.333333333 438.166666667 145 414.5 133 c 0
 390.833333333 121 364.666666667 115 336 115 c 0
588 127 m 1
 590.666666667 190.333333333 595.833333333 247 603.5 297 c 0
 611.166666667 347 623.5 394.166666667 640.5 438.5 c 0
 657.5 482.833333333 680.666666667 528.333333333 710 575 c 1
 506 575 l 1
 506 645 l 1
 797 645 l 1xf660
 797 595 l 1
 770.333333333 557 748.833333333 520.666666667 732.5 486 c 0
 716.166666667 451.333333333 703.5 416 694.5 380 c 0
 685.5 344 678.833333333 305.5 674.5 264.5 c 0
 670.166666667 223.5 667 177.666666667 665 127 c 1
 588 127 l 1
EndSplineSet
Validated: 1
EndChar

StartChar: uni32B3
Encoding: 12979 12979 38
Width: 1000
Flags: W
HStem: -86 32<381.703 618.195> 115 66<251.423 376.144 616.087 741.106> 365 61<269 356.938> 592 65<257.042 367.536 625.351 731.034> 814 32<382.541 618.297>
VStem: 34 32<261.703 496.46> 387 77<456.126 572.203> 402 79<207.354 332.138> 520 70<205.93 334.677> 540 69<459.972 578.805> 749 66<441.676 574.902> 762 72<198.269 320.273> 934 32<262.659 498.297>
LayerCount: 2
Fore
SplineSet
500 -86 m 256xfc08
 436 -86 375.833333333 -73.8333333333 319.5 -49.5 c 0
 263.166666667 -25.1666666667 213.666666667 8.33333333333 171 51 c 0
 128.333333333 93.6666666667 94.8333333333 143.166666667 70.5 199.5 c 0
 46.1666666667 255.833333333 34 316 34 380 c 256
 34 444 46.1666666667 504.166666667 70.5 560.5 c 0
 94.8333333333 616.833333333 128.333333333 666.333333333 171 709 c 0
 213.666666667 751.666666667 263.166666667 785.166666667 319.5 809.5 c 0
 375.833333333 833.833333333 436 846 500 846 c 256
 564 846 624.166666667 833.833333333 680.5 809.5 c 0
 736.833333333 785.166666667 786.333333333 751.666666667 829 709 c 0
 871.666666667 666.333333333 905.166666667 616.833333333 929.5 560.5 c 0
 953.833333333 504.166666667 966 444 966 380 c 0
 966 315.333333333 953.833333333 254.833333333 929.5 198.5 c 0
 905.166666667 142.166666667 871.5 92.6666666667 828.5 50 c 0
 785.5 7.33333333333 736 -26 680 -50 c 0
 624 -74 564 -86 500 -86 c 256xfc08
500 -54 m 256
 560 -54 616.166666667 -42.8333333333 668.5 -20.5 c 0
 720.833333333 1.83333333333 767 33 807 73 c 0
 847 113 878.166666667 159.166666667 900.5 211.5 c 0
 922.833333333 263.833333333 934 320 934 380 c 256
 934 440 922.833333333 496.166666667 900.5 548.5 c 0
 878.166666667 600.833333333 847 647 807 687 c 0
 767 727 720.833333333 758.166666667 668.5 780.5 c 0
 616.166666667 802.833333333 560 814 500 814 c 0
 439.333333333 814 382.833333333 802.666666667 330.5 780 c 0
 278.166666667 757.333333333 232.166666667 726 192.5 686 c 0
 152.833333333 646 121.833333333 599.833333333 99.5 547.5 c 0
 77.1666666667 495.166666667 66 439.333333333 66 380 c 0
 66 320 77.1666666667 263.833333333 99.5 211.5 c 0
 121.833333333 159.166666667 153 113 193 73 c 0
 233 33 279.166666667 1.83333333333 331.5 -20.5 c 0
 383.833333333 -42.8333333333 440 -54 500 -54 c 256
324 115 m 0
 290 115 260.5 121.833333333 235.5 135.5 c 0
 210.5 149.166666667 190.333333333 165.666666667 175 185 c 1
 215 235 l 1
 228.333333333 220.333333333 243.333333333 207.666666667 260 197 c 0
 276.666666667 186.333333333 296.666666667 181 320 181 c 256
 343.333333333 181 362.833333333 189 378.5 205 c 0
 394.166666667 221 402 242.333333333 402 269 c 0xfd08
 402 298.333333333 392.666666667 321.666666667 374 339 c 0
 355.333333333 356.333333333 320.333333333 365 269 365 c 1
 269 426 l 1
 312.333333333 426 342.833333333 434.333333333 360.5 451 c 0
 378.166666667 467.666666667 387 489 387 515 c 0
 387 539 380.5 557.833333333 367.5 571.5 c 0
 354.5 585.166666667 337.333333333 592 316 592 c 0
 286 592 258.333333333 577 233 547 c 1
 190 595 l 1
 208.666666667 614.333333333 228.833333333 629.5 250.5 640.5 c 0
 272.166666667 651.5 296 657 322 657 c 0
 364.666666667 657 399 645.166666667 425 621.5 c 0
 451 597.833333333 464 564 464 520 c 0xfe08
 464 490 456.666666667 465.333333333 442 446 c 0
 427.333333333 426.666666667 408 411.333333333 384 400 c 1
 384 397 l 1
 411.333333333 388.333333333 434.333333333 373 453 351 c 0
 471.666666667 329 481 300.333333333 481 265 c 0xfd08
 481 234.333333333 473.833333333 207.666666667 459.5 185 c 0
 445.166666667 162.333333333 426.166666667 145 402.5 133 c 0
 378.833333333 121 352.666666667 115 324 115 c 0
677 115 m 0
 647 115 620.166666667 121.166666667 596.5 133.5 c 0
 572.833333333 145.833333333 554.166666667 162.666666667 540.5 184 c 0
 526.833333333 205.333333333 520 229.333333333 520 256 c 0xfc98
 520 290.666666667 528.833333333 319.333333333 546.5 342 c 0
 564.166666667 364.666666667 584 382.333333333 606 395 c 1
 606 399 l 1
 588 412.333333333 572.5 429.166666667 559.5 449.5 c 0
 546.5 469.833333333 540 493.333333333 540 520 c 0
 540 562.666666667 553.166666667 596.166666667 579.5 620.5 c 0
 605.833333333 644.833333333 638.333333333 657 677 657 c 0
 719.666666667 657 753.333333333 644.333333333 778 619 c 0
 802.666666667 593.666666667 815 560.333333333 815 519 c 0xfc68
 815 491 808.333333333 466.166666667 795 444.5 c 0
 781.666666667 422.833333333 767.666666667 406 753 394 c 1
 753 391 l 1
 773.666666667 377 792.333333333 360 809 340 c 0
 825.666666667 320 834 292.333333333 834 257 c 0xfc18
 834 230.333333333 827.5 206.333333333 814.5 185 c 0
 801.5 163.666666667 783.166666667 146.666666667 759.5 134 c 0
 735.833333333 121.333333333 708.333333333 115 677 115 c 0
680 175 m 256
 704.666666667 175 724.5 182.5 739.5 197.5 c 0
 754.5 212.5 762 233 762 259 c 0
 762 290.333333333 751.333333333 313.666666667 730 329 c 0
 708.666666667 344.333333333 681.666666667 359.333333333 649 374 c 1
 633 361.333333333 619.166666667 346.166666667 607.5 328.5 c 0
 595.833333333 310.833333333 590 290.333333333 590 267 c 0
 590 240.333333333 598.833333333 218.333333333 616.5 201 c 0
 634.166666667 183.666666667 655.333333333 175 680 175 c 256
706 413 m 1
 719.333333333 427.666666667 729.833333333 443.5 737.5 460.5 c 0
 745.166666667 477.5 749 494.666666667 749 512 c 0
 749 537.333333333 742.666666667 558 730 574 c 0
 717.333333333 590 699.333333333 598 676 598 c 0
 656.666666667 598 640.666666667 591.333333333 628 578 c 0
 615.333333333 564.666666667 609 545.333333333 609 520 c 0xfc68
 609 491.333333333 618.5 469.166666667 637.5 453.5 c 0
 656.5 437.833333333 679.333333333 424.333333333 706 413 c 1
EndSplineSet
Validated: 1
EndChar

StartChar: uni32B4
Encoding: 12980 12980 39
Width: 1000
Flags: W
HStem: -86 32<381.703 618.195> 115 66<253.862 377.417 588.108 696.654> 325 61<615.396 711.061> 365 61<271 358> 592 65<258.095 369.018 615.856 711.75> 814 32<382.541 618.297>
VStem: 34 32<261.703 496.46> 388 78<455.632 572.203> 403 79<206.38 332.138> 519 73<412.802 565.693> 752 72<251.467 390> 934 32<262.659 498.297>
LayerCount: 2
Fore
SplineSet
500 -86 m 256xce70
 436 -86 375.833333333 -73.8333333333 319.5 -49.5 c 0
 263.166666667 -25.1666666667 213.666666667 8.33333333333 171 51 c 0
 128.333333333 93.6666666667 94.8333333333 143.166666667 70.5 199.5 c 0
 46.1666666667 255.833333333 34 316 34 380 c 256
 34 444 46.1666666667 504.166666667 70.5 560.5 c 0
 94.8333333333 616.833333333 128.333333333 666.333333333 171 709 c 0
 213.666666667 751.666666667 263.166666667 785.166666667 319.5 809.5 c 0
 375.833333333 833.833333333 436 846 500 846 c 256
 564 846 624.166666667 833.833333333 680.5 809.5 c 0
 736.833333333 785.166666667 786.333333333 751.666666667 829 709 c 0
 871.666666667 666.333333333 905.166666667 616.833333333 929.5 560.5 c 0
 953.833333333 504.166666667 966 444 966 380 c 0
 966 315.333333333 953.833333333 254.833333333 929.5 198.5 c 0
 905.166666667 142.166666667 871.5 92.6666666667 828.5 50 c 0
 785.5 7.33333333333 736 -26 680 -50 c 0
 624 -74 564 -86 500 -86 c 256xce70
500 -54 m 256
 560 -54 616.166666667 -42.8333333333 668.5 -20.5 c 0
 720.833333333 1.83333333333 767 33 807 73 c 0
 847 113 878.166666667 159.166666667 900.5 211.5 c 0
 922.833333333 263.833333333 934 320 934 380 c 256
 934 440 922.833333333 496.166666667 900.5 548.5 c 0
 878.166666667 600.833333333 847 647 807 687 c 0
 767 727 720.833333333 758.166666667 668.5 780.5 c 0
 616.166666667 802.833333333 560 814 500 814 c 0
 439.333333333 814 382.833333333 802.666666667 330.5 780 c 0
 278.166666667 757.333333333 232.166666667 726 192.5 686 c 0
 152.833333333 646 121.833333333 599.833333333 99.5 547.5 c 0
 77.1666666667 495.166666667 66 439.333333333 66 380 c 0
 66 320 77.1666666667 263.833333333 99.5 211.5 c 0
 121.833333333 159.166666667 153 113 193 73 c 0
 233 33 279.166666667 1.83333333333 331.5 -20.5 c 0
 383.833333333 -42.8333333333 440 -54 500 -54 c 256
325 115 m 0
 291.666666667 115 262.333333333 121.833333333 237 135.5 c 0
 211.666666667 149.166666667 191.333333333 165.666666667 176 185 c 1
 216 235 l 1
 230 220.333333333 245.333333333 207.666666667 262 197 c 0
 278.666666667 186.333333333 298.666666667 181 322 181 c 256
 345.333333333 181 364.666666667 189 380 205 c 0
 395.333333333 221 403 242.333333333 403 269 c 0xdef0
 403 298.333333333 393.666666667 321.666666667 375 339 c 0
 356.333333333 356.333333333 321.666666667 365 271 365 c 1
 271 426 l 1
 314.333333333 426 344.666666667 434.333333333 362 451 c 0
 379.333333333 467.666666667 388 489 388 515 c 0
 388 539 381.666666667 557.833333333 369 571.5 c 0
 356.333333333 585.166666667 339.333333333 592 318 592 c 0
 287.333333333 592 259.333333333 577 234 547 c 1
 192 595 l 1
 210 614.333333333 229.833333333 629.5 251.5 640.5 c 0
 273.166666667 651.5 297.333333333 657 324 657 c 0
 366 657 400.166666667 645.166666667 426.5 621.5 c 0
 452.833333333 597.833333333 466 564 466 520 c 0xdf70
 466 490 458.5 465.333333333 443.5 446 c 0
 428.5 426.666666667 409 411.333333333 385 400 c 1
 385 397 l 1
 412.333333333 388.333333333 435.333333333 373 454 351 c 0
 472.666666667 329 482 300.333333333 482 265 c 0xdef0
 482 234.333333333 474.833333333 207.666666667 460.5 185 c 0
 446.166666667 162.333333333 427.166666667 145 403.5 133 c 0
 379.833333333 121 353.666666667 115 325 115 c 0
647 115 m 0
 619.666666667 115 596.333333333 120.333333333 577 131 c 0
 557.666666667 141.666666667 541.333333333 155 528 171 c 1
 569 221 l 1
 578.333333333 209.666666667 589.333333333 200.5 602 193.5 c 0
 614.666666667 186.5 628.333333333 183 643 183 c 0
 663 183 681 189.5 697 202.5 c 0
 713 215.5 726 237.166666667 736 267.5 c 0
 746 297.833333333 751.333333333 338.666666667 752 390 c 1
 738.666666667 370 723 354.166666667 705 342.5 c 0
 687 330.833333333 668.333333333 325 649 325 c 0xee70
 611 325 579.833333333 338.5 555.5 365.5 c 0
 531.166666667 392.5 519 433.333333333 519 488 c 0
 519 522 525.333333333 551.666666667 538 577 c 0
 550.666666667 602.333333333 567.833333333 622 589.5 636 c 0
 611.166666667 650 635 657 661 657 c 0
 691 657 718.333333333 647.833333333 743 629.5 c 0
 767.666666667 611.166666667 787.333333333 583.333333333 802 546 c 0
 816.666666667 508.666666667 824 461.333333333 824 404 c 0
 824 335.333333333 815.666666667 279.666666667 799 237 c 0
 782.333333333 194.333333333 760.666666667 163.333333333 734 144 c 0
 707.333333333 124.666666667 678.333333333 115 647 115 c 0
666 386 m 0
 679.333333333 386 693.5 391 708.5 401 c 0
 723.5 411 737.333333333 428.333333333 750 453 c 1
 746 500.333333333 736.333333333 535.666666667 721 559 c 0
 705.666666667 582.333333333 685.666666667 594 661 594 c 0
 641.666666667 594 625.333333333 584.333333333 612 565 c 0
 598.666666667 545.666666667 592 520.333333333 592 489 c 256
 592 457.666666667 598.166666667 432.666666667 610.5 414 c 0
 622.833333333 395.333333333 641.333333333 386 666 386 c 0
EndSplineSet
Validated: 1
EndChar

StartChar: uni32B5
Encoding: 12981 12981 40
Width: 1000
Flags: W
HStem: -86 32<381.703 618.195> 115 67<623.91 706.423> 265 63<218 343 415 474> 591 66<623.488 707.846> 814 32<382.541 618.297>
VStem: 34 32<261.703 496.46> 343 72<127 265 328 564> 505 79<235.641 539.16> 746 79<235.641 539.16> 934 32<262.659 498.297>
LayerCount: 2
Fore
SplineSet
500 -86 m 256
 436 -86 375.833333333 -73.8333333333 319.5 -49.5 c 0
 263.166666667 -25.1666666667 213.666666667 8.33333333333 171 51 c 0
 128.333333333 93.6666666667 94.8333333333 143.166666667 70.5 199.5 c 0
 46.1666666667 255.833333333 34 316 34 380 c 256
 34 444 46.1666666667 504.166666667 70.5 560.5 c 0
 94.8333333333 616.833333333 128.333333333 666.333333333 171 709 c 0
 213.666666667 751.666666667 263.166666667 785.166666667 319.5 809.5 c 0
 375.833333333 833.833333333 436 846 500 846 c 256
 564 846 624.166666667 833.833333333 680.5 809.5 c 0
 736.833333333 785.166666667 786.333333333 751.666666667 829 709 c 0
 871.666666667 666.333333333 905.166666667 616.833333333 929.5 560.5 c 0
 953.833333333 504.166666667 966 444 966 380 c 0
 966 315.333333333 953.833333333 254.833333333 929.5 198.5 c 0
 905.166666667 142.166666667 871.5 92.6666666667 828.5 50 c 0
 785.5 7.33333333333 736 -26 680 -50 c 0
 624 -74 564 -86 500 -86 c 256
500 -54 m 256
 560 -54 616.166666667 -42.8333333333 668.5 -20.5 c 0
 720.833333333 1.83333333333 767 33 807 73 c 0
 847 113 878.166666667 159.166666667 900.5 211.5 c 0
 922.833333333 263.833333333 934 320 934 380 c 256
 934 440 922.833333333 496.166666667 900.5 548.5 c 0
 878.166666667 600.833333333 847 647 807 687 c 0
 767 727 720.833333333 758.166666667 668.5 780.5 c 0
 616.166666667 802.833333333 560 814 500 814 c 0
 439.333333333 814 382.833333333 802.666666667 330.5 780 c 0
 278.166666667 757.333333333 232.166666667 726 192.5 686 c 0
 152.833333333 646 121.833333333 599.833333333 99.5 547.5 c 0
 77.1666666667 495.166666667 66 439.333333333 66 380 c 0
 66 320 77.1666666667 263.833333333 99.5 211.5 c 0
 121.833333333 159.166666667 153 113 193 73 c 0
 233 33 279.166666667 1.83333333333 331.5 -20.5 c 0
 383.833333333 -42.8333333333 440 -54 500 -54 c 256
343 127 m 1
 343 265 l 1
 143 265 l 1
 143 320 l 1
 326 645 l 1
 415 645 l 1
 415 328 l 1
 474 328 l 1
 474 265 l 1
 415 265 l 1
 415 127 l 1
 343 127 l 1
218 328 m 1
 343 328 l 1
 343 460 l 2
 343 474.666666667 343.5 492 344.5 512 c 0
 345.5 532 346 549.333333333 346 564 c 1
 344 564 l 1
 337.333333333 550 331.5 538.166666667 326.5 528.5 c 0
 321.5 518.833333333 315.333333333 507 308 493 c 2
 218 328 l 1
665 115 m 256
 616.333333333 115 577.5 139.333333333 548.5 188 c 0
 519.5 236.666666667 505 303.333333333 505 388 c 256
 505 472.666666667 519.5 538.666666667 548.5 586 c 0
 577.5 633.333333333 616.333333333 657 665 657 c 256
 713.666666667 657 752.5 633.333333333 781.5 586 c 0
 810.5 538.666666667 825 472.666666667 825 388 c 256
 825 303.333333333 810.5 236.666666667 781.5 188 c 0
 752.5 139.333333333 713.666666667 115 665 115 c 256
665 182 m 0
 689.666666667 182 709.333333333 198.666666667 724 232 c 0
 738.666666667 265.333333333 746 317.333333333 746 388 c 256
 746 458.666666667 738.666666667 510.166666667 724 542.5 c 0
 709.333333333 574.833333333 689.666666667 591 665 591 c 0
 641 591 621.5 574.833333333 606.5 542.5 c 0
 591.5 510.166666667 584 458.666666667 584 388 c 256
 584 317.333333333 591.5 265.333333333 606.5 232 c 0
 621.5 198.666666667 641 182 665 182 c 0
EndSplineSet
Validated: 1
EndChar

StartChar: uni32B6
Encoding: 12982 12982 41
Width: 1000
Flags: W
HStem: -86 32<381.703 618.195> 265 63<258 383 455 514> 551 53<541 608.267> 814 32<382.541 618.297>
VStem: 34 32<261.703 496.46> 383 72<127 265 328 564> 626 77<127 551> 934 32<262.659 498.297>
LayerCount: 2
Fore
SplineSet
500 -86 m 256
 436 -86 375.833333333 -73.8333333333 319.5 -49.5 c 0
 263.166666667 -25.1666666667 213.666666667 8.33333333333 171 51 c 0
 128.333333333 93.6666666667 94.8333333333 143.166666667 70.5 199.5 c 0
 46.1666666667 255.833333333 34 316 34 380 c 256
 34 444 46.1666666667 504.166666667 70.5 560.5 c 0
 94.8333333333 616.833333333 128.333333333 666.333333333 171 709 c 0
 213.666666667 751.666666667 263.166666667 785.166666667 319.5 809.5 c 0
 375.833333333 833.833333333 436 846 500 846 c 256
 564 846 624.166666667 833.833333333 680.5 809.5 c 0
 736.833333333 785.166666667 786.333333333 751.666666667 829 709 c 0
 871.666666667 666.333333333 905.166666667 616.833333333 929.5 560.5 c 0
 953.833333333 504.166666667 966 444 966 380 c 0
 966 315.333333333 953.833333333 254.833333333 929.5 198.5 c 0
 905.166666667 142.166666667 871.5 92.6666666667 828.5 50 c 0
 785.5 7.33333333333 736 -26 680 -50 c 0
 624 -74 564 -86 500 -86 c 256
500 -54 m 256
 560 -54 616.166666667 -42.8333333333 668.5 -20.5 c 0
 720.833333333 1.83333333333 767 33 807 73 c 0
 847 113 878.166666667 159.166666667 900.5 211.5 c 0
 922.833333333 263.833333333 934 320 934 380 c 256
 934 440 922.833333333 496.166666667 900.5 548.5 c 0
 878.166666667 600.833333333 847 647 807 687 c 0
 767 727 720.833333333 758.166666667 668.5 780.5 c 0
 616.166666667 802.833333333 560 814 500 814 c 0
 439.333333333 814 382.833333333 802.666666667 330.5 780 c 0
 278.166666667 757.333333333 232.166666667 726 192.5 686 c 0
 152.833333333 646 121.833333333 599.833333333 99.5 547.5 c 0
 77.1666666667 495.166666667 66 439.333333333 66 380 c 0
 66 320 77.1666666667 263.833333333 99.5 211.5 c 0
 121.833333333 159.166666667 153 113 193 73 c 0
 233 33 279.166666667 1.83333333333 331.5 -20.5 c 0
 383.833333333 -42.8333333333 440 -54 500 -54 c 256
383 127 m 1
 383 265 l 1
 183 265 l 1
 183 320 l 1
 366 645 l 1
 455 645 l 1
 455 328 l 1
 514 328 l 1
 514 265 l 1
 455 265 l 1
 455 127 l 1
 383 127 l 1
258 328 m 1
 383 328 l 1
 383 460 l 2
 383 474.666666667 383.5 492 384.5 512 c 0
 385.5 532 386 549.333333333 386 564 c 1
 384 564 l 1
 377.333333333 550 371.5 538.166666667 366.5 528.5 c 0
 361.5 518.833333333 355.333333333 507 348 493 c 2
 258 328 l 1
626 127 m 1
 626 551 l 1
 541 551 l 1
 541 604 l 1
 563 608.666666667 582.166666667 614.5 598.5 621.5 c 0
 614.833333333 628.5 629.666666667 636.333333333 643 645 c 1
 703 645 l 1
 703 127 l 1
 626 127 l 1
EndSplineSet
Validated: 1
EndChar

StartChar: uni32B7
Encoding: 12983 12983 42
Width: 1000
Flags: W
HStem: -86 32<381.703 618.195> 127 70<606.563 791> 265 63<234 360 432 491> 591 66<569.828 676.825> 814 32<382.541 618.297>
VStem: 34 32<261.703 496.46> 360 72<127 265 328 564> 698 75<411.61 567.518> 934 32<262.659 498.297>
LayerCount: 2
Fore
SplineSet
500 -86 m 256
 436 -86 375.833333333 -73.8333333333 319.5 -49.5 c 0
 263.166666667 -25.1666666667 213.666666667 8.33333333333 171 51 c 0
 128.333333333 93.6666666667 94.8333333333 143.166666667 70.5 199.5 c 0
 46.1666666667 255.833333333 34 316 34 380 c 256
 34 444 46.1666666667 504.166666667 70.5 560.5 c 0
 94.8333333333 616.833333333 128.333333333 666.333333333 171 709 c 0
 213.666666667 751.666666667 263.166666667 785.166666667 319.5 809.5 c 0
 375.833333333 833.833333333 436 846 500 846 c 256
 564 846 624.166666667 833.833333333 680.5 809.5 c 0
 736.833333333 785.166666667 786.333333333 751.666666667 829 709 c 0
 871.666666667 666.333333333 905.166666667 616.833333333 929.5 560.5 c 0
 953.833333333 504.166666667 966 444 966 380 c 0
 966 315.333333333 953.833333333 254.833333333 929.5 198.5 c 0
 905.166666667 142.166666667 871.5 92.6666666667 828.5 50 c 0
 785.5 7.33333333333 736 -26 680 -50 c 0
 624 -74 564 -86 500 -86 c 256
500 -54 m 256
 560 -54 616.166666667 -42.8333333333 668.5 -20.5 c 0
 720.833333333 1.83333333333 767 33 807 73 c 0
 847 113 878.166666667 159.166666667 900.5 211.5 c 0
 922.833333333 263.833333333 934 320 934 380 c 256
 934 440 922.833333333 496.166666667 900.5 548.5 c 0
 878.166666667 600.833333333 847 647 807 687 c 0
 767 727 720.833333333 758.166666667 668.5 780.5 c 0
 616.166666667 802.833333333 560 814 500 814 c 0
 439.333333333 814 382.833333333 802.666666667 330.5 780 c 0
 278.166666667 757.333333333 232.166666667 726 192.5 686 c 0
 152.833333333 646 121.833333333 599.833333333 99.5 547.5 c 0
 77.1666666667 495.166666667 66 439.333333333 66 380 c 0
 66 320 77.1666666667 263.833333333 99.5 211.5 c 0
 121.833333333 159.166666667 153 113 193 73 c 0
 233 33 279.166666667 1.83333333333 331.5 -20.5 c 0
 383.833333333 -42.8333333333 440 -54 500 -54 c 256
360 127 m 1
 360 265 l 1
 160 265 l 1
 160 320 l 1
 343 645 l 1
 432 645 l 1
 432 328 l 1
 491 328 l 1
 491 265 l 1
 432 265 l 1
 432 127 l 1
 360 127 l 1
234 328 m 1
 360 328 l 1
 360 460 l 2
 360 474.666666667 360.5 492 361.5 512 c 0
 362.5 532 363.333333333 549.333333333 364 564 c 1
 360 564 l 1
 353.333333333 550 347.5 538.166666667 342.5 528.5 c 0
 337.5 518.833333333 331.666666667 507 325 493 c 2
 234 328 l 1
500 127 m 1
 500 175 l 1
 563.333333333 248.333333333 612.166666667 310 646.5 360 c 0
 680.833333333 410 698 455.333333333 698 496 c 0
 698 525.333333333 692 548.5 680 565.5 c 0
 668 582.5 649.666666667 591 625 591 c 0
 607.666666667 591 591.833333333 585.833333333 577.5 575.5 c 0
 563.166666667 565.166666667 550.333333333 552.333333333 539 537 c 1
 495 580 l 1
 514.333333333 604.666666667 535.666666667 623.666666667 559 637 c 0
 582.333333333 650.333333333 607.333333333 657 634 657 c 0
 676.666666667 657 710.5 642.833333333 735.5 614.5 c 0
 760.5 586.166666667 773 548.666666667 773 502 c 0
 773 470 765.666666667 437.666666667 751 405 c 0
 736.333333333 372.333333333 716.333333333 338.5 691 303.5 c 0
 665.666666667 268.5 637.333333333 231.666666667 606 193 c 1
 618 194.333333333 631.166666667 195.333333333 645.5 196 c 0
 659.833333333 196.666666667 673.666666667 197 687 197 c 2
 791 197 l 1
 791 127 l 1
 500 127 l 1
EndSplineSet
Validated: 1
EndChar

StartChar: uni32B8
Encoding: 12984 12984 43
Width: 1000
Flags: W
HStem: -86 32<381.703 618.195> 115 66<578.862 702.417> 265 63<235 361 434 492> 365 61<596 683> 592 65<583.095 694.018> 814 32<382.541 618.297>
VStem: 34 32<261.703 496.46> 361 73<127 265 328 564> 713 78<455.632 572.203> 728 79<206.38 332.138> 934 32<262.659 498.297>
LayerCount: 2
Fore
SplineSet
500 -86 m 256xff20
 436 -86 375.833333333 -73.8333333333 319.5 -49.5 c 0
 263.166666667 -25.1666666667 213.666666667 8.33333333333 171 51 c 0
 128.333333333 93.6666666667 94.8333333333 143.166666667 70.5 199.5 c 0
 46.1666666667 255.833333333 34 316 34 380 c 256
 34 444 46.1666666667 504.166666667 70.5 560.5 c 0
 94.8333333333 616.833333333 128.333333333 666.333333333 171 709 c 0
 213.666666667 751.666666667 263.166666667 785.166666667 319.5 809.5 c 0
 375.833333333 833.833333333 436 846 500 846 c 256
 564 846 624.166666667 833.833333333 680.5 809.5 c 0
 736.833333333 785.166666667 786.333333333 751.666666667 829 709 c 0
 871.666666667 666.333333333 905.166666667 616.833333333 929.5 560.5 c 0
 953.833333333 504.166666667 966 444 966 380 c 0
 966 315.333333333 953.833333333 254.833333333 929.5 198.5 c 0
 905.166666667 142.166666667 871.5 92.6666666667 828.5 50 c 0
 785.5 7.33333333333 736 -26 680 -50 c 0
 624 -74 564 -86 500 -86 c 256xff20
500 -54 m 256
 560 -54 616.166666667 -42.8333333333 668.5 -20.5 c 0
 720.833333333 1.83333333333 767 33 807 73 c 0
 847 113 878.166666667 159.166666667 900.5 211.5 c 0
 922.833333333 263.833333333 934 320 934 380 c 256
 934 440 922.833333333 496.166666667 900.5 548.5 c 0
 878.166666667 600.833333333 847 647 807 687 c 0xff60
 767 727 720.833333333 758.166666667 668.5 780.5 c 0
 616.166666667 802.833333333 560 814 500 814 c 0
 439.333333333 814 382.833333333 802.666666667 330.5 780 c 0
 278.166666667 757.333333333 232.166666667 726 192.5 686 c 0
 152.833333333 646 121.833333333 599.833333333 99.5 547.5 c 0
 77.1666666667 495.166666667 66 439.333333333 66 380 c 0
 66 320 77.1666666667 263.833333333 99.5 211.5 c 0
 121.833333333 159.166666667 153 113 193 73 c 0
 233 33 279.166666667 1.83333333333 331.5 -20.5 c 0
 383.833333333 -42.8333333333 440 -54 500 -54 c 256
361 127 m 1
 361 265 l 1
 161 265 l 1
 161 320 l 1
 344 645 l 1
 434 645 l 1
 434 328 l 1
 492 328 l 1
 492 265 l 1
 434 265 l 1
 434 127 l 1
 361 127 l 1
235 328 m 1
 361 328 l 1
 361 460 l 2
 361 474.666666667 361.5 492 362.5 512 c 0
 363.5 532 364.333333333 549.333333333 365 564 c 1
 361 564 l 1
 354.333333333 550 348.666666667 538.166666667 344 528.5 c 0
 339.333333333 518.833333333 333.666666667 507 327 493 c 2
 235 328 l 1
650 115 m 0
 616.666666667 115 587.333333333 121.833333333 562 135.5 c 0
 536.666666667 149.166666667 516.666666667 165.666666667 502 185 c 1
 541 235 l 1
 555 220.333333333 570.333333333 207.666666667 587 197 c 0
 603.666666667 186.333333333 623.666666667 181 647 181 c 256
 670.333333333 181 689.666666667 189 705 205 c 0
 720.333333333 221 728 242.333333333 728 269 c 0xff60
 728 298.333333333 718.666666667 321.666666667 700 339 c 0
 681.333333333 356.333333333 646.666666667 365 596 365 c 1
 596 426 l 1
 639.333333333 426 669.666666667 434.333333333 687 451 c 0
 704.333333333 467.666666667 713 489 713 515 c 0
 713 539 706.666666667 557.833333333 694 571.5 c 0
 681.333333333 585.166666667 664.333333333 592 643 592 c 0
 612.333333333 592 584.333333333 577 559 547 c 1
 517 595 l 1
 535 614.333333333 554.833333333 629.5 576.5 640.5 c 0
 598.166666667 651.5 622.333333333 657 649 657 c 0
 691 657 725.166666667 645.166666667 751.5 621.5 c 0
 777.833333333 597.833333333 791 564 791 520 c 0xffa0
 791 490 783.5 465.333333333 768.5 446 c 0
 753.5 426.666666667 734 411.333333333 710 400 c 1
 710 397 l 1
 737.333333333 388.333333333 760.333333333 373 779 351 c 0
 797.666666667 329 807 300.333333333 807 265 c 0
 807 234.333333333 799.833333333 207.666666667 785.5 185 c 0
 771.166666667 162.333333333 752.166666667 145 728.5 133 c 0
 704.833333333 121 678.666666667 115 650 115 c 0
EndSplineSet
Validated: 1
EndChar

StartChar: uni32B9
Encoding: 12985 12985 44
Width: 1000
Flags: W
HStem: -86 32<381.703 618.195> 265 63<225 347 419 478 572 693 765 824> 814 32<382.541 618.297>
VStem: 34 32<261.703 496.46> 347 72<127 265 328 564> 693 72<127 265 328 564> 934 32<262.659 498.297>
LayerCount: 2
Fore
SplineSet
500 -86 m 256
 436 -86 375.833333333 -73.8333333333 319.5 -49.5 c 0
 263.166666667 -25.1666666667 213.666666667 8.33333333333 171 51 c 0
 128.333333333 93.6666666667 94.8333333333 143.166666667 70.5 199.5 c 0
 46.1666666667 255.833333333 34 316 34 380 c 256
 34 444 46.1666666667 504.166666667 70.5 560.5 c 0
 94.8333333333 616.833333333 128.333333333 666.333333333 171 709 c 0
 213.666666667 751.666666667 263.166666667 785.166666667 319.5 809.5 c 0
 375.833333333 833.833333333 436 846 500 846 c 256
 564 846 624.166666667 833.833333333 680.5 809.5 c 0
 736.833333333 785.166666667 786.333333333 751.666666667 829 709 c 0
 871.666666667 666.333333333 905.166666667 616.833333333 929.5 560.5 c 0
 953.833333333 504.166666667 966 444 966 380 c 0
 966 315.333333333 953.833333333 254.833333333 929.5 198.5 c 0
 905.166666667 142.166666667 871.5 92.6666666667 828.5 50 c 0
 785.5 7.33333333333 736 -26 680 -50 c 0
 624 -74 564 -86 500 -86 c 256
500 -54 m 256
 560 -54 616.166666667 -42.8333333333 668.5 -20.5 c 0
 720.833333333 1.83333333333 767 33 807 73 c 0
 847 113 878.166666667 159.166666667 900.5 211.5 c 0
 922.833333333 263.833333333 934 320 934 380 c 256
 934 440 922.833333333 496.166666667 900.5 548.5 c 0
 878.166666667 600.833333333 847 647 807 687 c 0
 767 727 720.833333333 758.166666667 668.5 780.5 c 0
 616.166666667 802.833333333 560 814 500 814 c 0
 439.333333333 814 382.833333333 802.666666667 330.5 780 c 0
 278.166666667 757.333333333 232.166666667 726 192.5 686 c 0
 152.833333333 646 121.833333333 599.833333333 99.5 547.5 c 0
 77.1666666667 495.166666667 66 439.333333333 66 380 c 0
 66 320 77.1666666667 263.833333333 99.5 211.5 c 0
 121.833333333 159.166666667 153 113 193 73 c 0
 233 33 279.166666667 1.83333333333 331.5 -20.5 c 0
 383.833333333 -42.8333333333 440 -54 500 -54 c 256
347 127 m 1
 347 265 l 1
 153 265 l 1
 153 320 l 1
 330 645 l 1
 419 645 l 1
 419 328 l 1
 478 328 l 1
 478 265 l 1
 419 265 l 1
 419 127 l 1
 347 127 l 1
225 328 m 1
 347 328 l 1
 347 460 l 2
 347 474.666666667 347.333333333 492 348 512 c 0
 348.666666667 532 349.333333333 549.333333333 350 564 c 1
 347 564 l 1
 341.666666667 550 336.666666667 538.333333333 332 529 c 0
 327.333333333 519.666666667 321.666666667 507.666666667 315 493 c 2
 225 328 l 1
693 127 m 1
 693 265 l 1
 499 265 l 1
 499 320 l 1
 676 645 l 1
 765 645 l 1
 765 328 l 1
 824 328 l 1
 824 265 l 1
 765 265 l 1
 765 127 l 1
 693 127 l 1
572 328 m 1
 693 328 l 1
 693 460 l 2
 693 474.666666667 693.5 492 694.5 512 c 0
 695.5 532 696 549.333333333 696 564 c 1
 694 564 l 1
 688 550 682.833333333 538.333333333 678.5 529 c 0
 674.166666667 519.666666667 668.333333333 507.666666667 661 493 c 2
 572 328 l 1
EndSplineSet
Validated: 1
EndChar

StartChar: uni32BA
Encoding: 12986 12986 45
Width: 1000
Flags: W
HStem: -86 32<381.703 618.195> 115 66<577.98 700.5> 265 63<234 360 432 491> 398 58<610.469 703.143> 575 70<618 789> 814 32<382.541 618.297>
VStem: 34 32<261.703 496.46> 360 72<127 265 328 564> 734 77<216.219 365.744> 934 32<262.659 498.297>
LayerCount: 2
Fore
SplineSet
500 -86 m 256
 436 -86 375.833333333 -73.8333333333 319.5 -49.5 c 0
 263.166666667 -25.1666666667 213.666666667 8.33333333333 171 51 c 0
 128.333333333 93.6666666667 94.8333333333 143.166666667 70.5 199.5 c 0
 46.1666666667 255.833333333 34 316 34 380 c 256
 34 444 46.1666666667 504.166666667 70.5 560.5 c 0
 94.8333333333 616.833333333 128.333333333 666.333333333 171 709 c 0
 213.666666667 751.666666667 263.166666667 785.166666667 319.5 809.5 c 0
 375.833333333 833.833333333 436 846 500 846 c 256
 564 846 624.166666667 833.833333333 680.5 809.5 c 0
 736.833333333 785.166666667 786.333333333 751.666666667 829 709 c 0
 871.666666667 666.333333333 905.166666667 616.833333333 929.5 560.5 c 0
 953.833333333 504.166666667 966 444 966 380 c 0
 966 315.333333333 953.833333333 254.833333333 929.5 198.5 c 0
 905.166666667 142.166666667 871.5 92.6666666667 828.5 50 c 0
 785.5 7.33333333333 736 -26 680 -50 c 0
 624 -74 564 -86 500 -86 c 256
500 -54 m 256
 560 -54 616.166666667 -42.8333333333 668.5 -20.5 c 0
 720.833333333 1.83333333333 767 33 807 73 c 0
 847 113 878.166666667 159.166666667 900.5 211.5 c 0
 922.833333333 263.833333333 934 320 934 380 c 256
 934 440 922.833333333 496.166666667 900.5 548.5 c 0
 878.166666667 600.833333333 847 647 807 687 c 0
 767 727 720.833333333 758.166666667 668.5 780.5 c 0
 616.166666667 802.833333333 560 814 500 814 c 0
 439.333333333 814 382.833333333 802.666666667 330.5 780 c 0
 278.166666667 757.333333333 232.166666667 726 192.5 686 c 0
 152.833333333 646 121.833333333 599.833333333 99.5 547.5 c 0
 77.1666666667 495.166666667 66 439.333333333 66 380 c 0
 66 320 77.1666666667 263.833333333 99.5 211.5 c 0
 121.833333333 159.166666667 153 113 193 73 c 0
 233 33 279.166666667 1.83333333333 331.5 -20.5 c 0
 383.833333333 -42.8333333333 440 -54 500 -54 c 256
360 127 m 1
 360 265 l 1
 160 265 l 1
 160 320 l 1
 343 645 l 1
 432 645 l 1
 432 328 l 1
 491 328 l 1
 491 265 l 1
 432 265 l 1
 432 127 l 1
 360 127 l 1
234 328 m 1
 360 328 l 1
 360 460 l 2
 360 474.666666667 360.5 492 361.5 512 c 0
 362.5 532 363.333333333 549.333333333 364 564 c 1
 360 564 l 1
 353.333333333 550 347.5 538.166666667 342.5 528.5 c 0
 337.5 518.833333333 331.666666667 507 325 493 c 2
 234 328 l 1
654 115 m 0
 618 115 588 122 564 136 c 0
 540 150 519.666666667 166 503 184 c 1
 539 237 l 1
 552.333333333 223 567.333333333 210.166666667 584 198.5 c 0
 600.666666667 186.833333333 621.333333333 181 646 181 c 256
 670.666666667 181 691.5 191 708.5 211 c 0
 725.5 231 734 257.666666667 734 291 c 0
 734 323.666666667 726 349.666666667 710 369 c 0
 694 388.333333333 673.333333333 398 648 398 c 0
 634 398 621.666666667 394.833333333 611 388.5 c 0
 600.333333333 382.166666667 589 374 577 364 c 1
 540 390 l 1
 553 645 l 1
 789 645 l 1
 789 575 l 1
 618 575 l 1
 610 435 l 1
 619.333333333 440.333333333 629.333333333 445.166666667 640 449.5 c 0
 650.666666667 453.833333333 661.666666667 456 673 456 c 0
 710.333333333 456 742.666666667 442.666666667 770 416 c 0
 797.333333333 389.333333333 811 348.333333333 811 293 c 0
 811 255.666666667 803.5 223.666666667 788.5 197 c 0
 773.5 170.333333333 754.166666667 150 730.5 136 c 0
 706.833333333 122 681.333333333 115 654 115 c 0
EndSplineSet
Validated: 1
EndChar

StartChar: uni32BB
Encoding: 12987 12987 46
Width: 1000
Flags: W
HStem: -86 32<381.703 618.195> 115 64<623.78 717.44> 265 63<214 340 412 471> 385 61<623.677 718.951> 589 68<634.536 748.093> 814 32<382.541 618.297>
VStem: 34 32<261.703 496.46> 340 72<127 265 328 564> 509 72<381 518.008> 743 72<207.17 358.301> 934 32<262.659 498.297>
LayerCount: 2
Fore
SplineSet
500 -86 m 256
 436 -86 375.833333333 -73.8333333333 319.5 -49.5 c 0
 263.166666667 -25.1666666667 213.666666667 8.33333333333 171 51 c 0
 128.333333333 93.6666666667 94.8333333333 143.166666667 70.5 199.5 c 0
 46.1666666667 255.833333333 34 316 34 380 c 256
 34 444 46.1666666667 504.166666667 70.5 560.5 c 0
 94.8333333333 616.833333333 128.333333333 666.333333333 171 709 c 0
 213.666666667 751.666666667 263.166666667 785.166666667 319.5 809.5 c 0
 375.833333333 833.833333333 436 846 500 846 c 256
 564 846 624.166666667 833.833333333 680.5 809.5 c 0
 736.833333333 785.166666667 786.333333333 751.666666667 829 709 c 0
 871.666666667 666.333333333 905.166666667 616.833333333 929.5 560.5 c 0
 953.833333333 504.166666667 966 444 966 380 c 0
 966 315.333333333 953.833333333 254.833333333 929.5 198.5 c 0
 905.166666667 142.166666667 871.5 92.6666666667 828.5 50 c 0
 785.5 7.33333333333 736 -26 680 -50 c 0
 624 -74 564 -86 500 -86 c 256
500 -54 m 256
 560 -54 616.166666667 -42.8333333333 668.5 -20.5 c 0
 720.833333333 1.83333333333 767 33 807 73 c 0
 847 113 878.166666667 159.166666667 900.5 211.5 c 0
 922.833333333 263.833333333 934 320 934 380 c 256
 934 440 922.833333333 496.166666667 900.5 548.5 c 0
 878.166666667 600.833333333 847 647 807 687 c 0
 767 727 720.833333333 758.166666667 668.5 780.5 c 0
 616.166666667 802.833333333 560 814 500 814 c 0
 439.333333333 814 382.833333333 802.666666667 330.5 780 c 0
 278.166666667 757.333333333 232.166666667 726 192.5 686 c 0
 152.833333333 646 121.833333333 599.833333333 99.5 547.5 c 0
 77.1666666667 495.166666667 66 439.333333333 66 380 c 0
 66 320 77.1666666667 263.833333333 99.5 211.5 c 0
 121.833333333 159.166666667 153 113 193 73 c 0
 233 33 279.166666667 1.83333333333 331.5 -20.5 c 0
 383.833333333 -42.8333333333 440 -54 500 -54 c 256
340 127 m 1
 340 265 l 1
 140 265 l 1
 140 320 l 1
 323 645 l 1
 412 645 l 1
 412 328 l 1
 471 328 l 1
 471 265 l 1
 412 265 l 1
 412 127 l 1
 340 127 l 1
214 328 m 1
 340 328 l 1
 340 460 l 2
 340 474.666666667 340.5 492 341.5 512 c 0
 342.5 532 343.333333333 549.333333333 344 564 c 1
 340 564 l 1
 333.333333333 550 327.5 538.166666667 322.5 528.5 c 0
 317.5 518.833333333 311.666666667 507 305 493 c 2
 214 328 l 1
673 115 m 0
 627 115 588.166666667 135.666666667 556.5 177 c 0
 524.833333333 218.333333333 509 282 509 368 c 0
 509 436.666666667 517.333333333 492.166666667 534 534.5 c 0
 550.666666667 576.833333333 572.666666667 607.833333333 600 627.5 c 0
 627.333333333 647.166666667 656.666666667 657 688 657 c 0
 715.333333333 657 738.666666667 651.5 758 640.5 c 0
 777.333333333 629.5 793.333333333 616 806 600 c 1
 766 549 l 1
 756.666666667 561 745.5 570.666666667 732.5 578 c 0
 719.5 585.333333333 705.333333333 589 690 589 c 0
 670.666666667 589 653 582.5 637 569.5 c 0
 621 556.5 608 534.833333333 598 504.5 c 0
 588 474.166666667 582.333333333 433 581 381 c 1
 595 401 611.333333333 416.833333333 630 428.5 c 0
 648.666666667 440.166666667 667.666666667 446 687 446 c 0
 725 446 755.833333333 432.5 779.5 405.5 c 0
 803.166666667 378.5 815 338 815 284 c 0
 815 250 808.666666667 220.333333333 796 195 c 0
 783.333333333 169.666666667 766.166666667 150 744.5 136 c 0
 722.833333333 122 699 115 673 115 c 0
674 179 m 0
 693.333333333 179 709.666666667 188.5 723 207.5 c 0
 736.333333333 226.5 743 251.333333333 743 282 c 0
 743 313.333333333 736.666666667 338.333333333 724 357 c 0
 711.333333333 375.666666667 692.333333333 385 667 385 c 0
 654.333333333 385 640.5 380.166666667 625.5 370.5 c 0
 610.5 360.833333333 596.333333333 343.666666667 583 319 c 1
 587 271 597 235.666666667 613 213 c 0
 629 190.333333333 649.333333333 179 674 179 c 0
EndSplineSet
Validated: 1
EndChar

StartChar: uni32BC
Encoding: 12988 12988 47
Width: 1000
Flags: W
HStem: -86 32<381.703 618.195> 265 63<234 360 432 491> 575 70<506 710> 814 32<382.541 618.297>
VStem: 34 32<261.703 496.46> 360 72<127 265 328 564> 588 77<127 331.689> 934 32<262.659 498.297>
LayerCount: 2
Fore
SplineSet
500 -86 m 256
 436 -86 375.833333333 -73.8333333333 319.5 -49.5 c 0
 263.166666667 -25.1666666667 213.666666667 8.33333333333 171 51 c 0
 128.333333333 93.6666666667 94.8333333333 143.166666667 70.5 199.5 c 0
 46.1666666667 255.833333333 34 316 34 380 c 256
 34 444 46.1666666667 504.166666667 70.5 560.5 c 0
 94.8333333333 616.833333333 128.333333333 666.333333333 171 709 c 0
 213.666666667 751.666666667 263.166666667 785.166666667 319.5 809.5 c 0
 375.833333333 833.833333333 436 846 500 846 c 256
 564 846 624.166666667 833.833333333 680.5 809.5 c 0
 736.833333333 785.166666667 786.333333333 751.666666667 829 709 c 0
 871.666666667 666.333333333 905.166666667 616.833333333 929.5 560.5 c 0
 953.833333333 504.166666667 966 444 966 380 c 0
 966 315.333333333 953.833333333 254.833333333 929.5 198.5 c 0
 905.166666667 142.166666667 871.5 92.6666666667 828.5 50 c 0
 785.5 7.33333333333 736 -26 680 -50 c 0
 624 -74 564 -86 500 -86 c 256
500 -54 m 256
 560 -54 616.166666667 -42.8333333333 668.5 -20.5 c 0
 720.833333333 1.83333333333 767 33 807 73 c 0
 847 113 878.166666667 159.166666667 900.5 211.5 c 0
 922.833333333 263.833333333 934 320 934 380 c 256
 934 440 922.833333333 496.166666667 900.5 548.5 c 0
 878.166666667 600.833333333 847 647 807 687 c 0
 767 727 720.833333333 758.166666667 668.5 780.5 c 0
 616.166666667 802.833333333 560 814 500 814 c 0
 439.333333333 814 382.833333333 802.666666667 330.5 780 c 0
 278.166666667 757.333333333 232.166666667 726 192.5 686 c 0
 152.833333333 646 121.833333333 599.833333333 99.5 547.5 c 0
 77.1666666667 495.166666667 66 439.333333333 66 380 c 0
 66 320 77.1666666667 263.833333333 99.5 211.5 c 0
 121.833333333 159.166666667 153 113 193 73 c 0
 233 33 279.166666667 1.83333333333 331.5 -20.5 c 0
 383.833333333 -42.8333333333 440 -54 500 -54 c 256
360 127 m 1
 360 265 l 1
 160 265 l 1
 160 320 l 1
 343 645 l 1
 432 645 l 1
 432 328 l 1
 491 328 l 1
 491 265 l 1
 432 265 l 1
 432 127 l 1
 360 127 l 1
234 328 m 1
 360 328 l 1
 360 460 l 2
 360 474.666666667 360.5 492 361.5 512 c 0
 362.5 532 363.333333333 549.333333333 364 564 c 1
 360 564 l 1
 353.333333333 550 347.5 538.166666667 342.5 528.5 c 0
 337.5 518.833333333 331.666666667 507 325 493 c 2
 234 328 l 1
588 127 m 1
 590.666666667 190.333333333 595.833333333 247 603.5 297 c 0
 611.166666667 347 623.5 394.166666667 640.5 438.5 c 0
 657.5 482.833333333 680.666666667 528.333333333 710 575 c 1
 506 575 l 1
 506 645 l 1
 797 645 l 1
 797 595 l 1
 770.333333333 557 748.833333333 520.666666667 732.5 486 c 0
 716.166666667 451.333333333 703.5 416 694.5 380 c 0
 685.5 344 678.833333333 305.5 674.5 264.5 c 0
 670.166666667 223.5 667 177.666666667 665 127 c 1
 588 127 l 1
EndSplineSet
Validated: 1
EndChar

StartChar: uni32BD
Encoding: 12989 12989 48
Width: 1000
Flags: W
HStem: -86 32<381.703 618.195> 115 60<605.9 722.789> 265 63<219 340 412 471> 598 59<612.456 711.917> 814 32<382.541 618.297>
VStem: 34 32<261.703 496.46> 340 72<127 265 328 564> 505 70<205.93 334.677> 526 67<460.38 578.805> 734 66<441.744 574.902> 747 71<198.767 320.273> 934 32<262.659 498.297>
LayerCount: 2
Fore
SplineSet
500 -86 m 256xfe10
 436 -86 375.833333333 -73.8333333333 319.5 -49.5 c 0
 263.166666667 -25.1666666667 213.666666667 8.33333333333 171 51 c 0
 128.333333333 93.6666666667 94.8333333333 143.166666667 70.5 199.5 c 0
 46.1666666667 255.833333333 34 316 34 380 c 256
 34 444 46.1666666667 504.166666667 70.5 560.5 c 0
 94.8333333333 616.833333333 128.333333333 666.333333333 171 709 c 0
 213.666666667 751.666666667 263.166666667 785.166666667 319.5 809.5 c 0
 375.833333333 833.833333333 436 846 500 846 c 256
 564 846 624.166666667 833.833333333 680.5 809.5 c 0
 736.833333333 785.166666667 786.333333333 751.666666667 829 709 c 0
 871.666666667 666.333333333 905.166666667 616.833333333 929.5 560.5 c 0
 953.833333333 504.166666667 966 444 966 380 c 0
 966 315.333333333 953.833333333 254.833333333 929.5 198.5 c 0
 905.166666667 142.166666667 871.5 92.6666666667 828.5 50 c 0
 785.5 7.33333333333 736 -26 680 -50 c 0
 624 -74 564 -86 500 -86 c 256xfe10
500 -54 m 256
 560 -54 616.166666667 -42.8333333333 668.5 -20.5 c 0
 720.833333333 1.83333333333 767 33 807 73 c 0
 847 113 878.166666667 159.166666667 900.5 211.5 c 0
 922.833333333 263.833333333 934 320 934 380 c 256
 934 440 922.833333333 496.166666667 900.5 548.5 c 0
 878.166666667 600.833333333 847 647 807 687 c 0
 767 727 720.833333333 758.166666667 668.5 780.5 c 0
 616.166666667 802.833333333 560 814 500 814 c 0
 439.333333333 814 382.833333333 802.666666667 330.5 780 c 0
 278.166666667 757.333333333 232.166666667 726 192.5 686 c 0
 152.833333333 646 121.833333333 599.833333333 99.5 547.5 c 0
 77.1666666667 495.166666667 66 439.333333333 66 380 c 0
 66 320 77.1666666667 263.833333333 99.5 211.5 c 0
 121.833333333 159.166666667 153 113 193 73 c 0
 233 33 279.166666667 1.83333333333 331.5 -20.5 c 0
 383.833333333 -42.8333333333 440 -54 500 -54 c 256
340 127 m 1
 340 265 l 1
 146 265 l 1
 146 320 l 1
 324 645 l 1
 412 645 l 1
 412 328 l 1
 471 328 l 1
 471 265 l 1
 412 265 l 1
 412 127 l 1
 340 127 l 1
219 328 m 1
 340 328 l 1
 340 460 l 2
 340 474.666666667 340.5 492 341.5 512 c 0
 342.5 532 343.333333333 549.333333333 344 564 c 1
 341 564 l 1
 335 550 329.833333333 538.333333333 325.5 529 c 0
 321.166666667 519.666666667 315.666666667 507.666666667 309 493 c 2
 219 328 l 1
662 115 m 0
 632 115 605.166666667 121.166666667 581.5 133.5 c 0
 557.833333333 145.833333333 539.166666667 162.666666667 525.5 184 c 0
 511.833333333 205.333333333 505 229.333333333 505 256 c 0xff30
 505 290.666666667 513.666666667 319.333333333 531 342 c 0
 548.333333333 364.666666667 568 382.333333333 590 395 c 1
 590 399 l 1
 572 412.333333333 556.833333333 429.166666667 544.5 449.5 c 0
 532.166666667 469.833333333 526 493.333333333 526 520 c 0
 526 562.666666667 539 596.166666667 565 620.5 c 0
 591 644.833333333 623.333333333 657 662 657 c 0
 704.666666667 657 738.333333333 644.333333333 763 619 c 0
 787.666666667 593.666666667 800 560.333333333 800 519 c 0xfed0
 800 491 793.333333333 466.166666667 780 444.5 c 0
 766.666666667 422.833333333 752.333333333 406 737 394 c 1
 737 391 l 1
 758.333333333 377 777.166666667 360 793.5 340 c 0
 809.833333333 320 818 292.333333333 818 257 c 0xfe30
 818 217 803.833333333 183.333333333 775.5 156 c 0
 747.166666667 128.666666667 709.333333333 115 662 115 c 0
665 175 m 0
 689 175 708.666666667 182.5 724 197.5 c 0
 739.333333333 212.5 747 233 747 259 c 0
 747 290.333333333 736.333333333 313.666666667 715 329 c 0
 693.666666667 344.333333333 666.666666667 359.333333333 634 374 c 1
 618 361.333333333 604.166666667 346.166666667 592.5 328.5 c 0
 580.833333333 310.833333333 575 290.333333333 575 267 c 0
 575 240.333333333 583.666666667 218.333333333 601 201 c 0
 618.333333333 183.666666667 639.666666667 175 665 175 c 0
691 413 m 1
 719.666666667 443 734 476 734 512 c 0
 734 537.333333333 727.5 558 714.5 574 c 0
 701.5 590 683.666666667 598 661 598 c 0
 641.666666667 598 625.5 591.333333333 612.5 578 c 0
 599.5 564.666666667 593 545.333333333 593 520 c 0xfed0
 593 491.333333333 602.666666667 469.166666667 622 453.5 c 0
 641.333333333 437.833333333 664.333333333 424.333333333 691 413 c 1
EndSplineSet
Validated: 1
EndChar

StartChar: uni32BE
Encoding: 12990 12990 49
Width: 1000
Flags: W
HStem: -86 32<381.703 618.195> 115 68<584.155 696.945> 265 63<234 360 432 491> 325 61<614.204 710.271> 594 63<616.657 709.2> 814 32<382.541 618.297>
VStem: 34 32<261.703 496.46> 360 72<127 265 328 564> 518 72<412.802 565.072> 750 73<251.467 389> 934 32<262.659 498.297>
LayerCount: 2
Fore
SplineSet
500 -86 m 256xcfe0
 436 -86 375.833333333 -73.8333333333 319.5 -49.5 c 0
 263.166666667 -25.1666666667 213.666666667 8.33333333333 171 51 c 0
 128.333333333 93.6666666667 94.8333333333 143.166666667 70.5 199.5 c 0
 46.1666666667 255.833333333 34 316 34 380 c 256
 34 444 46.1666666667 504.166666667 70.5 560.5 c 0
 94.8333333333 616.833333333 128.333333333 666.333333333 171 709 c 0
 213.666666667 751.666666667 263.166666667 785.166666667 319.5 809.5 c 0
 375.833333333 833.833333333 436 846 500 846 c 256
 564 846 624.166666667 833.833333333 680.5 809.5 c 0
 736.833333333 785.166666667 786.333333333 751.666666667 829 709 c 0
 871.666666667 666.333333333 905.166666667 616.833333333 929.5 560.5 c 0
 953.833333333 504.166666667 966 444 966 380 c 0
 966 315.333333333 953.833333333 254.833333333 929.5 198.5 c 0
 905.166666667 142.166666667 871.5 92.6666666667 828.5 50 c 0
 785.5 7.33333333333 736 -26 680 -50 c 0
 624 -74 564 -86 500 -86 c 256xcfe0
500 -54 m 256
 560 -54 616.166666667 -42.8333333333 668.5 -20.5 c 0
 720.833333333 1.83333333333 767 33 807 73 c 0
 847 113 878.166666667 159.166666667 900.5 211.5 c 0
 922.833333333 263.833333333 934 320 934 380 c 256
 934 440 922.833333333 496.166666667 900.5 548.5 c 0
 878.166666667 600.833333333 847 647 807 687 c 0
 767 727 720.833333333 758.166666667 668.5 780.5 c 0
 616.166666667 802.833333333 560 814 500 814 c 0
 439.333333333 814 382.833333333 802.666666667 330.5 780 c 0
 278.166666667 757.333333333 232.166666667 726 192.5 686 c 0
 152.833333333 646 121.833333333 599.833333333 99.5 547.5 c 0
 77.1666666667 495.166666667 66 439.333333333 66 380 c 0
 66 320 77.1666666667 263.833333333 99.5 211.5 c 0
 121.833333333 159.166666667 153 113 193 73 c 0
 233 33 279.166666667 1.83333333333 331.5 -20.5 c 0
 383.833333333 -42.8333333333 440 -54 500 -54 c 256
360 127 m 1
 360 265 l 1
 160 265 l 1
 160 320 l 1
 343 645 l 1
 432 645 l 1
 432 328 l 1
 491 328 l 1
 491 265 l 1
 432 265 l 1xefe0
 432 127 l 1
 360 127 l 1
234 328 m 1
 360 328 l 1
 360 460 l 2
 360 474.666666667 360.5 492 361.5 512 c 0
 362.5 532 363.333333333 549.333333333 364 564 c 1
 360 564 l 1
 353.333333333 550 347.5 538.166666667 342.5 528.5 c 0
 337.5 518.833333333 331.666666667 507 325 493 c 2
 234 328 l 1
646 115 m 0
 618.666666667 115 595.166666667 120.333333333 575.5 131 c 0
 555.833333333 141.666666667 539.333333333 155 526 171 c 1
 568 221 l 1
 577.333333333 209.666666667 588.333333333 200.5 601 193.5 c 0
 613.666666667 186.5 627.333333333 183 642 183 c 0
 661.333333333 183 679 189.5 695 202.5 c 0
 711 215.5 724 237.166666667 734 267.5 c 0
 744 297.833333333 749.333333333 338.333333333 750 389 c 1
 736.666666667 369 721.166666667 353.333333333 703.5 342 c 0
 685.833333333 330.666666667 667.333333333 325 648 325 c 0xdfe0
 610 325 578.833333333 338.5 554.5 365.5 c 0
 530.166666667 392.5 518 433.333333333 518 488 c 0
 518 522 524.333333333 551.666666667 537 577 c 0
 549.666666667 602.333333333 566.833333333 622 588.5 636 c 0
 610.166666667 650 633.666666667 657 659 657 c 0
 689.666666667 657 717.333333333 647.833333333 742 629.5 c 0
 766.666666667 611.166666667 786.333333333 583.333333333 801 546 c 0
 815.666666667 508.666666667 823 461.333333333 823 404 c 0
 823 335.333333333 814.666666667 279.666666667 798 237 c 0
 781.333333333 194.333333333 759.666666667 163.333333333 733 144 c 0
 706.333333333 124.666666667 677.333333333 115 646 115 c 0
665 386 m 0
 678.333333333 386 692.166666667 390.833333333 706.5 400.5 c 0
 720.833333333 410.166666667 734.666666667 426.666666667 748 450 c 1
 744.666666667 498 735.333333333 534 720 558 c 0
 704.666666667 582 684.333333333 594 659 594 c 0
 640.333333333 594 624.166666667 584.333333333 610.5 565 c 0
 596.833333333 545.666666667 590 520.333333333 590 489 c 256
 590 457.666666667 596.333333333 432.666666667 609 414 c 0
 621.666666667 395.333333333 640.333333333 386 665 386 c 0
EndSplineSet
Validated: 1
EndChar

StartChar: uni32BF
Encoding: 12991 12991 50
Width: 1000
Flags: W
HStem: -86 32<381.703 618.195> 115 66<240.153 362.897 627.9 709.079> 398 58<272.254 365.148> 575 70<280 451> 591 66<626.041 709.926> 814 32<382.541 618.297>
VStem: 34 32<261.703 496.46> 396 78<215.047 365.744> 509 78<235.641 539.16> 750 78<235.641 539.16> 934 32<262.659 498.297>
LayerCount: 2
Fore
SplineSet
500 -86 m 256xe7e0
 436 -86 375.833333333 -73.8333333333 319.5 -49.5 c 0
 263.166666667 -25.1666666667 213.666666667 8.33333333333 171 51 c 0
 128.333333333 93.6666666667 94.8333333333 143.166666667 70.5 199.5 c 0
 46.1666666667 255.833333333 34 316 34 380 c 256
 34 444 46.1666666667 504.166666667 70.5 560.5 c 0
 94.8333333333 616.833333333 128.333333333 666.333333333 171 709 c 0
 213.666666667 751.666666667 263.166666667 785.166666667 319.5 809.5 c 0
 375.833333333 833.833333333 436 846 500 846 c 256
 564 846 624.166666667 833.833333333 680.5 809.5 c 0
 736.833333333 785.166666667 786.333333333 751.666666667 829 709 c 0
 871.666666667 666.333333333 905.166666667 616.833333333 929.5 560.5 c 0
 953.833333333 504.166666667 966 444 966 380 c 0
 966 315.333333333 953.833333333 254.833333333 929.5 198.5 c 0
 905.166666667 142.166666667 871.5 92.6666666667 828.5 50 c 0
 785.5 7.33333333333 736 -26 680 -50 c 0
 624 -74 564 -86 500 -86 c 256xe7e0
500 -54 m 256
 560 -54 616.166666667 -42.8333333333 668.5 -20.5 c 0
 720.833333333 1.83333333333 767 33 807 73 c 0
 847 113 878.166666667 159.166666667 900.5 211.5 c 0
 922.833333333 263.833333333 934 320 934 380 c 256
 934 440 922.833333333 496.166666667 900.5 548.5 c 0
 878.166666667 600.833333333 847 647 807 687 c 0
 767 727 720.833333333 758.166666667 668.5 780.5 c 0
 616.166666667 802.833333333 560 814 500 814 c 0
 439.333333333 814 382.833333333 802.666666667 330.5 780 c 0
 278.166666667 757.333333333 232.166666667 726 192.5 686 c 0
 152.833333333 646 121.833333333 599.833333333 99.5 547.5 c 0
 77.1666666667 495.166666667 66 439.333333333 66 380 c 0
 66 320 77.1666666667 263.833333333 99.5 211.5 c 0
 121.833333333 159.166666667 153 113 193 73 c 0
 233 33 279.166666667 1.83333333333 331.5 -20.5 c 0
 383.833333333 -42.8333333333 440 -54 500 -54 c 256
316 115 m 0
 280 115 250.166666667 122 226.5 136 c 0
 202.833333333 150 182.666666667 166 166 184 c 1
 202 237 l 1
 214.666666667 223 229.333333333 210.166666667 246 198.5 c 0
 262.666666667 186.833333333 283.333333333 181 308 181 c 0
 333.333333333 181 354.333333333 191 371 211 c 0
 387.666666667 231 396 257.666666667 396 291 c 0
 396 323.666666667 388.166666667 349.666666667 372.5 369 c 0
 356.833333333 388.333333333 336.333333333 398 311 398 c 0
 296.333333333 398 283.833333333 394.833333333 273.5 388.5 c 0
 263.166666667 382.166666667 251.666666667 374 239 364 c 1
 203 390 l 1
 216 645 l 1
 451 645 l 1
 451 575 l 1
 280 575 l 1xf7e0
 272 435 l 1
 282 440.333333333 292.333333333 445.166666667 303 449.5 c 0
 313.666666667 453.833333333 324.666666667 456 336 456 c 0
 373.333333333 456 405.666666667 442.666666667 433 416 c 0
 460.333333333 389.333333333 474 348.333333333 474 293 c 0
 474 255.666666667 466.5 223.666666667 451.5 197 c 0
 436.5 170.333333333 417 150 393 136 c 0
 369 122 343.333333333 115 316 115 c 0
669 115 m 0
 620.333333333 115 581.5 139.333333333 552.5 188 c 0
 523.5 236.666666667 509 303.333333333 509 388 c 256
 509 472.666666667 523.5 538.666666667 552.5 586 c 0
 581.5 633.333333333 620.333333333 657 669 657 c 0xefe0
 717 657 755.5 633.333333333 784.5 586 c 0
 813.5 538.666666667 828 472.666666667 828 388 c 256
 828 303.333333333 813.5 236.666666667 784.5 188 c 0
 755.5 139.333333333 717 115 669 115 c 0
669 182 m 0
 692.333333333 182 711.666666667 198.666666667 727 232 c 0
 742.333333333 265.333333333 750 317.333333333 750 388 c 256
 750 458.666666667 742.333333333 510.166666667 727 542.5 c 0
 711.666666667 574.833333333 692.333333333 591 669 591 c 0
 644.333333333 591 624.5 574.833333333 609.5 542.5 c 0
 594.5 510.166666667 587 458.666666667 587 388 c 256
 587 317.333333333 594.5 265.333333333 609.5 232 c 0
 624.5 198.666666667 644.333333333 182 669 182 c 0
EndSplineSet
Validated: 1
EndChar

